<?xml version="1.0" encoding="UTF-8" standalone="no"?>
<!DOCTYPE svg PUBLIC "-//W3C//DTD SVG 1.1//EN"
 "http://www.w3.org/Graphics/SVG/1.1/DTD/svg11.dtd">
<!-- Generated by graphviz version 2.44.1 (20200629.0846)
 -->
<!-- Title: G Pages: 1 -->
<svg width="724pt" height="496pt"
 viewBox="0.00 0.00 724.00 496.00" xmlns="http://www.w3.org/2000/svg" xmlns:xlink="http://www.w3.org/1999/xlink">
<g id="graph0" class="graph" transform="scale(1 1) rotate(0) translate(4 492)">
<title>G</title>
<polygon fill="white" stroke="transparent" points="-4,4 -4,-492 720,-492 720,4 -4,4"/>
<g id="clust1" class="cluster">
<title>cluster7484784333</title>
<path fill="none" stroke="#8b7d6b" stroke-width="2" d="M20,-8C20,-8 696,-8 696,-8 702,-8 708,-14 708,-20 708,-20 708,-468 708,-468 708,-474 702,-480 696,-480 696,-480 20,-480 20,-480 14,-480 8,-474 8,-468 8,-468 8,-20 8,-20 8,-14 14,-8 20,-8"/>
<text text-anchor="start" x="344.5" y="-465.8" font-family="Helvetica,sans-Serif" font-weight="bold" font-size="14.00">root</text>
</g>
<g id="clust2" class="cluster">
<title>cluster249736545</title>
<path fill="bisque" stroke="#8b7d6b" stroke-width="2" d="M28,-16C28,-16 688,-16 688,-16 694,-16 700,-22 700,-28 700,-28 700,-393 700,-393 700,-399 694,-405 688,-405 688,-405 28,-405 28,-405 22,-405 16,-399 16,-393 16,-393 16,-28 16,-28 16,-22 22,-16 28,-16"/>
<text text-anchor="start" x="347.5" y="-390.8" font-family="Helvetica,sans-Serif" font-weight="bold" font-size="14.00">src</text>
</g>
<!-- deps.ts -->
<g id="node1" class="node">
<title>deps.ts</title>
<path fill="#79cdcd" stroke="#79cdcd" d="M279,-449C279,-449 243,-449 243,-449 237,-449 231,-443 231,-437 231,-437 231,-425 231,-425 231,-419 237,-413 243,-413 243,-413 279,-413 279,-413 285,-413 291,-419 291,-425 291,-425 291,-437 291,-437 291,-443 285,-449 279,-449"/>
<text text-anchor="middle" x="261" y="-427.3" font-family="Helvetica,sans-Serif" font-size="14.00">deps.ts</text>
</g>
<!-- src/connection.ts -->
<g id="node2" class="node">
<title>src/connection.ts</title>
<path fill="#79cdcd" stroke="#79cdcd" d="M297,-214C297,-214 225,-214 225,-214 219,-214 213,-208 213,-202 213,-202 213,-190 213,-190 213,-184 219,-178 225,-178 225,-178 297,-178 297,-178 303,-178 309,-184 309,-190 309,-190 309,-202 309,-202 309,-208 303,-214 297,-214"/>
<text text-anchor="middle" x="261" y="-192.3" font-family="Helvetica,sans-Serif" font-size="14.00">connection.ts</text>
</g>
<!-- src/errors.ts -->
<g id="node3" class="node">
<title>src/errors.ts</title>
<path fill="#79cdcd" stroke="#79cdcd" d="M526,-120C526,-120 484,-120 484,-120 478,-120 472,-114 472,-108 472,-108 472,-96 472,-96 472,-90 478,-84 484,-84 484,-84 526,-84 526,-84 532,-84 538,-90 538,-96 538,-96 538,-108 538,-108 538,-114 532,-120 526,-120"/>
<text text-anchor="middle" x="505" y="-98.3" font-family="Helvetica,sans-Serif" font-size="14.00">errors.ts</text>
</g>
<!-- src/connection.ts&#45;&gt;src/errors.ts -->
<g id="edge1" class="edge">
<title>src/connection.ts&#45;&gt;src/errors.ts</title>
<path fill="none" stroke="#528b8b" stroke-width="2" d="M294.98,-177.86C309.99,-169.98 328.14,-160.98 345,-154 383.91,-137.9 429.76,-123.36 462.19,-113.77"/>
<polygon fill="#528b8b" stroke="#528b8b" stroke-width="2" points="463.19,-117.13 471.81,-110.96 461.23,-110.41 463.19,-117.13"/>
</g>
<!-- src/types&#45;bag.ts -->
<g id="node7" class="node">
<title>src/types&#45;bag.ts</title>
<path fill="#79cdcd" stroke="#79cdcd" d="M680,-217C680,-217 614,-217 614,-217 608,-217 602,-211 602,-205 602,-205 602,-193 602,-193 602,-187 608,-181 614,-181 614,-181 680,-181 680,-181 686,-181 692,-187 692,-193 692,-193 692,-205 692,-205 692,-211 686,-217 680,-217"/>
<text text-anchor="middle" x="647" y="-195.3" font-family="Helvetica,sans-Serif" font-size="14.00">types&#45;bag.ts</text>
</g>
<!-- src/connection.ts&#45;&gt;src/types&#45;bag.ts -->
<g id="edge3" class="edge">
<title>src/connection.ts&#45;&gt;src/types&#45;bag.ts</title>
<path fill="none" stroke="#528b8b" stroke-width="2" d="M309.15,-194.15C368.93,-192.13 475.15,-189.6 566,-193 574.21,-193.31 582.89,-193.79 591.38,-194.36"/>
<polygon fill="#528b8b" stroke="#528b8b" stroke-width="2" points="591.38,-197.86 601.6,-195.08 591.87,-190.88 591.38,-197.86"/>
</g>
<!-- src/types&#45;envelope.ts -->
<g id="node8" class="node">
<title>src/types&#45;envelope.ts</title>
<path fill="#79cdcd" stroke="#79cdcd" d="M554,-312C554,-312 456,-312 456,-312 450,-312 444,-306 444,-300 444,-300 444,-288 444,-288 444,-282 450,-276 456,-276 456,-276 554,-276 554,-276 560,-276 566,-282 566,-288 566,-288 566,-300 566,-300 566,-306 560,-312 554,-312"/>
<text text-anchor="middle" x="505" y="-290.3" font-family="Helvetica,sans-Serif" font-size="14.00">types&#45;envelope.ts</text>
</g>
<!-- src/connection.ts&#45;&gt;src/types&#45;envelope.ts -->
<g id="edge4" class="edge">
<title>src/connection.ts&#45;&gt;src/types&#45;envelope.ts</title>
<path fill="none" stroke="#528b8b" stroke-width="2" d="M309.1,-211.89C337.91,-221.9 375.37,-235.46 408,-249 424.63,-255.9 442.56,-264.09 458.38,-271.59"/>
<polygon fill="#528b8b" stroke="#528b8b" stroke-width="2" points="456.89,-274.76 467.42,-275.91 459.9,-268.44 456.89,-274.76"/>
</g>
<!-- src/types.ts -->
<g id="node9" class="node">
<title>src/types.ts</title>
<path fill="#79cdcd" stroke="#79cdcd" d="M396,-294C396,-294 357,-294 357,-294 351,-294 345,-288 345,-282 345,-282 345,-270 345,-270 345,-264 351,-258 357,-258 357,-258 396,-258 396,-258 402,-258 408,-264 408,-270 408,-270 408,-282 408,-282 408,-288 402,-294 396,-294"/>
<text text-anchor="middle" x="376.5" y="-272.3" font-family="Helvetica,sans-Serif" font-size="14.00">types.ts</text>
</g>
<!-- src/connection.ts&#45;&gt;src/types.ts -->
<g id="edge2" class="edge">
<title>src/connection.ts&#45;&gt;src/types.ts</title>
<path fill="none" stroke="#528b8b" stroke-width="2" d="M287.75,-214.15C303.57,-225.3 324.02,-239.72 341.2,-251.83"/>
<polygon fill="#528b8b" stroke="#528b8b" stroke-width="2" points="339.66,-255.02 349.85,-257.92 343.69,-249.3 339.66,-255.02"/>
</g>
<!-- src/util.ts -->
<g id="node10" class="node">
<title>src/util.ts</title>
<path fill="#79cdcd" stroke="#79cdcd" d="M391.5,-120C391.5,-120 361.5,-120 361.5,-120 355.5,-120 349.5,-114 349.5,-108 349.5,-108 349.5,-96 349.5,-96 349.5,-90 355.5,-84 361.5,-84 361.5,-84 391.5,-84 391.5,-84 397.5,-84 403.5,-90 403.5,-96 403.5,-96 403.5,-108 403.5,-108 403.5,-114 397.5,-120 391.5,-120"/>
<text text-anchor="middle" x="376.5" y="-98.3" font-family="Helvetica,sans-Serif" font-size="14.00">util.ts</text>
</g>
<!-- src/connection.ts&#45;&gt;src/util.ts -->
<g id="edge6" class="edge">
<title>src/connection.ts&#45;&gt;src/util.ts</title>
<path fill="none" stroke="#528b8b" stroke-width="2" d="M283.88,-177.88C301.47,-163.31 326.35,-142.71 345.74,-126.64"/>
<polygon fill="#528b8b" stroke="#528b8b" stroke-width="2" points="348.21,-129.14 353.68,-120.07 343.75,-123.75 348.21,-129.14"/>
</g>
<!-- src/watchable.ts -->
<g id="node11" class="node">
<title>src/watchable.ts</title>
<path fill="#79cdcd" stroke="#79cdcd" d="M539,-238C539,-238 471,-238 471,-238 465,-238 459,-232 459,-226 459,-226 459,-214 459,-214 459,-208 465,-202 471,-202 471,-202 539,-202 539,-202 545,-202 551,-208 551,-214 551,-214 551,-226 551,-226 551,-232 545,-238 539,-238"/>
<text text-anchor="middle" x="505" y="-216.3" font-family="Helvetica,sans-Serif" font-size="14.00">watchable.ts</text>
</g>
<!-- src/connection.ts&#45;&gt;src/watchable.ts -->
<g id="edge5" class="edge">
<title>src/connection.ts&#45;&gt;src/watchable.ts</title>
<path fill="none" stroke="#528b8b" stroke-width="2" d="M309.23,-200.68C349.26,-204.65 406.71,-210.35 448.84,-214.53"/>
<polygon fill="#528b8b" stroke="#528b8b" stroke-width="2" points="448.63,-218.03 458.93,-215.53 449.32,-211.06 448.63,-218.03"/>
</g>
<!-- src/transport&#45;http&#45;client.ts -->
<g id="node4" class="node">
<title>src/transport&#45;http&#45;client.ts</title>
<path fill="#79cdcd" stroke="#79cdcd" d="M162,-150C162,-150 39,-150 39,-150 33,-150 27,-144 27,-138 27,-138 27,-126 27,-126 27,-120 33,-114 39,-114 39,-114 162,-114 162,-114 168,-114 174,-120 174,-126 174,-126 174,-138 174,-138 174,-144 168,-150 162,-150"/>
<text text-anchor="middle" x="100.5" y="-128.3" font-family="Helvetica,sans-Serif" font-size="14.00">transport&#45;http&#45;client.ts</text>
</g>
<!-- src/transport&#45;http&#45;client.ts&#45;&gt;src/connection.ts -->
<g id="edge12" class="edge">
<title>src/transport&#45;http&#45;client.ts&#45;&gt;src/connection.ts</title>
<path fill="none" stroke="#528b8b" stroke-width="2" d="M146.5,-150.17C164.98,-157.63 186.54,-166.34 205.88,-174.15"/>
<polygon fill="#528b8b" stroke="#528b8b" stroke-width="2" points="204.58,-177.4 215.17,-177.9 207.2,-170.91 204.58,-177.4"/>
</g>
<!-- src/transport&#45;http&#45;client.ts&#45;&gt;src/errors.ts -->
<g id="edge8" class="edge">
<title>src/transport&#45;http&#45;client.ts&#45;&gt;src/errors.ts</title>
<path fill="none" stroke="#528b8b" stroke-width="2" d="M147.75,-113.97C207.57,-92.82 315.11,-62.19 408,-75 425.9,-77.47 445.15,-82.41 461.69,-87.4"/>
<polygon fill="#528b8b" stroke="#528b8b" stroke-width="2" points="461,-90.85 471.59,-90.49 463.09,-84.17 461,-90.85"/>
</g>
<!-- src/transport&#45;http&#45;client.ts&#45;&gt;src/types&#45;bag.ts -->
<g id="edge7" class="edge">
<title>src/transport&#45;http&#45;client.ts&#45;&gt;src/types&#45;bag.ts</title>
<path fill="none" stroke="#528b8b" stroke-width="2" d="M130.63,-113.88C207.72,-68.47 421.07,40.5 566,-47 610.61,-73.93 631.6,-134.92 640.42,-170.92"/>
<polygon fill="#528b8b" stroke="#528b8b" stroke-width="2" points="637.04,-171.84 642.69,-180.8 643.86,-170.27 637.04,-171.84"/>
</g>
<!-- src/transport&#45;http&#45;client.ts&#45;&gt;src/types.ts -->
<g id="edge9" class="edge">
<title>src/transport&#45;http&#45;client.ts&#45;&gt;src/types.ts</title>
<path fill="none" stroke="#528b8b" stroke-width="2" d="M119.28,-150.1C140.09,-170.37 176.38,-203 213,-223 234.23,-234.6 294.34,-252.92 335.19,-264.7"/>
<polygon fill="#528b8b" stroke="#528b8b" stroke-width="2" points="334.29,-268.08 344.87,-267.47 336.22,-261.35 334.29,-268.08"/>
</g>
<!-- src/transport&#45;http&#45;client.ts&#45;&gt;src/util.ts -->
<g id="edge11" class="edge">
<title>src/transport&#45;http&#45;client.ts&#45;&gt;src/util.ts</title>
<path fill="none" stroke="#528b8b" stroke-width="2" d="M174.21,-124.04C227.41,-118.21 297.34,-110.56 339.22,-105.97"/>
<polygon fill="#528b8b" stroke="#528b8b" stroke-width="2" points="339.67,-109.44 349.23,-104.88 338.91,-102.49 339.67,-109.44"/>
</g>
<!-- src/transport&#45;http&#45;client.ts&#45;&gt;src/watchable.ts -->
<g id="edge10" class="edge">
<title>src/transport&#45;http&#45;client.ts&#45;&gt;src/watchable.ts</title>
<path fill="none" stroke="#528b8b" stroke-width="2" d="M174.28,-143.52C214.21,-150.21 264.5,-159.23 309,-169 356.53,-179.44 409.97,-193.58 448.87,-204.33"/>
<polygon fill="#528b8b" stroke="#528b8b" stroke-width="2" points="448.36,-207.82 458.93,-207.13 450.23,-201.08 448.36,-207.82"/>
</g>
<!-- src/transport&#45;http&#45;server.ts -->
<g id="node5" class="node">
<title>src/transport&#45;http&#45;server.ts</title>
<path fill="#79cdcd" stroke="#79cdcd" d="M165,-351C165,-351 36,-351 36,-351 30,-351 24,-345 24,-339 24,-339 24,-327 24,-327 24,-321 30,-315 36,-315 36,-315 165,-315 165,-315 171,-315 177,-321 177,-327 177,-327 177,-339 177,-339 177,-345 171,-351 165,-351"/>
<text text-anchor="middle" x="100.5" y="-329.3" font-family="Helvetica,sans-Serif" font-size="14.00">transport&#45;http&#45;server.ts</text>
</g>
<!-- src/transport&#45;http&#45;server.ts&#45;&gt;deps.ts -->
<g id="edge19" class="edge">
<title>src/transport&#45;http&#45;server.ts&#45;&gt;deps.ts</title>
<path fill="none" stroke="#528b8b" stroke-width="2" d="M125.57,-351.07C147.67,-367.26 181.66,-391.14 213,-409 215.82,-410.61 218.77,-412.2 221.77,-413.74"/>
<polygon fill="#528b8b" stroke="#528b8b" stroke-width="2" points="220.28,-416.91 230.8,-418.22 223.39,-410.64 220.28,-416.91"/>
</g>
<!-- src/transport&#45;http&#45;server.ts&#45;&gt;src/connection.ts -->
<g id="edge18" class="edge">
<title>src/transport&#45;http&#45;server.ts&#45;&gt;src/connection.ts</title>
<path fill="none" stroke="#528b8b" stroke-width="2" d="M122.55,-314.81C150.38,-290.75 199.54,-248.26 230.91,-221.14"/>
<polygon fill="#528b8b" stroke="#528b8b" stroke-width="2" points="233.59,-223.46 238.87,-214.27 229.01,-218.16 233.59,-223.46"/>
</g>
<!-- src/transport&#45;http&#45;server.ts&#45;&gt;src/types&#45;bag.ts -->
<g id="edge13" class="edge">
<title>src/transport&#45;http&#45;server.ts&#45;&gt;src/types&#45;bag.ts</title>
<path fill="none" stroke="#528b8b" stroke-width="2" d="M166.23,-351.02C262.09,-373.65 443.61,-400.62 566,-321 600.57,-298.51 623.52,-255.29 635.66,-226.79"/>
<polygon fill="#528b8b" stroke="#528b8b" stroke-width="2" points="638.96,-227.97 639.5,-217.39 632.48,-225.32 638.96,-227.97"/>
</g>
<!-- src/transport&#45;http&#45;server.ts&#45;&gt;src/types&#45;envelope.ts -->
<g id="edge15" class="edge">
<title>src/transport&#45;http&#45;server.ts&#45;&gt;src/types&#45;envelope.ts</title>
<path fill="none" stroke="#528b8b" stroke-width="2" d="M177.09,-343.79C239.71,-350.46 330.66,-354.88 408,-338 427.5,-333.74 447.77,-325.15 464.63,-316.68"/>
<polygon fill="#528b8b" stroke="#528b8b" stroke-width="2" points="466.36,-319.73 473.62,-312.02 463.13,-313.52 466.36,-319.73"/>
</g>
<!-- src/transport&#45;http&#45;server.ts&#45;&gt;src/types.ts -->
<g id="edge14" class="edge">
<title>src/transport&#45;http&#45;server.ts&#45;&gt;src/types.ts</title>
<path fill="none" stroke="#528b8b" stroke-width="2" d="M177.1,-317.27C228.06,-306.67 293.32,-293.1 334.78,-284.47"/>
<polygon fill="#528b8b" stroke="#528b8b" stroke-width="2" points="335.71,-287.85 344.79,-282.39 334.28,-281 335.71,-287.85"/>
</g>
<!-- src/transport&#45;http&#45;server.ts&#45;&gt;src/util.ts -->
<g id="edge16" class="edge">
<title>src/transport&#45;http&#45;server.ts&#45;&gt;src/util.ts</title>
<path fill="none" stroke="#528b8b" stroke-width="2" d="M124.87,-314.98C141.26,-301.34 162.71,-281.37 177,-260 201.18,-223.85 182.47,-199.98 213,-169 231.3,-150.44 297.52,-126.82 339.57,-113.16"/>
<polygon fill="#528b8b" stroke="#528b8b" stroke-width="2" points="340.73,-116.46 349.18,-110.07 338.59,-109.79 340.73,-116.46"/>
</g>
<!-- src/transport&#45;http&#45;server.ts&#45;&gt;src/watchable.ts -->
<g id="edge17" class="edge">
<title>src/transport&#45;http&#45;server.ts&#45;&gt;src/watchable.ts</title>
<path fill="none" stroke="#528b8b" stroke-width="2" d="M177.05,-339.41C241.49,-341.73 335.01,-337.5 408,-303 428.46,-293.33 427.06,-282 444,-267 452.64,-259.34 462.37,-251.44 471.43,-244.36"/>
<polygon fill="#528b8b" stroke="#528b8b" stroke-width="2" points="473.75,-246.99 479.52,-238.11 469.47,-241.45 473.75,-246.99"/>
</g>
<!-- src/transport&#45;local.ts -->
<g id="node6" class="node">
<title>src/transport&#45;local.ts</title>
<path fill="#79cdcd" stroke="#79cdcd" d="M146.5,-251C146.5,-251 54.5,-251 54.5,-251 48.5,-251 42.5,-245 42.5,-239 42.5,-239 42.5,-227 42.5,-227 42.5,-221 48.5,-215 54.5,-215 54.5,-215 146.5,-215 146.5,-215 152.5,-215 158.5,-221 158.5,-227 158.5,-227 158.5,-239 158.5,-239 158.5,-245 152.5,-251 146.5,-251"/>
<text text-anchor="middle" x="100.5" y="-229.3" font-family="Helvetica,sans-Serif" font-size="14.00">transport&#45;local.ts</text>
</g>
<!-- src/transport&#45;local.ts&#45;&gt;src/connection.ts -->
<g id="edge24" class="edge">
<title>src/transport&#45;local.ts&#45;&gt;src/connection.ts</title>
<path fill="none" stroke="#528b8b" stroke-width="2" d="M158.72,-219.64C173.13,-216.28 188.6,-212.67 202.99,-209.31"/>
<polygon fill="#528b8b" stroke="#528b8b" stroke-width="2" points="203.82,-212.71 212.77,-207.03 202.23,-205.89 203.82,-212.71"/>
</g>
<!-- src/transport&#45;local.ts&#45;&gt;src/types&#45;bag.ts -->
<g id="edge20" class="edge">
<title>src/transport&#45;local.ts&#45;&gt;src/types&#45;bag.ts</title>
<path fill="none" stroke="#528b8b" stroke-width="2" d="M120.75,-214.77C136.21,-199.99 158.33,-178.48 177,-159 193.55,-141.73 192.99,-132.1 213,-119 264.73,-85.12 283.96,-84.91 345,-75 441.95,-59.27 479.75,-28 566,-75 603.39,-95.37 625.95,-141.56 637.18,-171.46"/>
<polygon fill="#528b8b" stroke="#528b8b" stroke-width="2" points="633.9,-172.67 640.56,-180.91 640.49,-170.31 633.9,-172.67"/>
</g>
<!-- src/transport&#45;local.ts&#45;&gt;src/types&#45;envelope.ts -->
<g id="edge22" class="edge">
<title>src/transport&#45;local.ts&#45;&gt;src/types&#45;envelope.ts</title>
<path fill="none" stroke="#528b8b" stroke-width="2" d="M157.22,-251.03C174.99,-256.64 194.78,-262.73 213,-268 271.3,-284.87 284.82,-295.16 345,-303 372.77,-306.62 380.03,-304.31 408,-303 416.35,-302.61 425.1,-302.03 433.77,-301.35"/>
<polygon fill="#528b8b" stroke="#528b8b" stroke-width="2" points="434.21,-304.82 443.89,-300.5 433.63,-297.85 434.21,-304.82"/>
</g>
<!-- src/transport&#45;local.ts&#45;&gt;src/types.ts -->
<g id="edge21" class="edge">
<title>src/transport&#45;local.ts&#45;&gt;src/types.ts</title>
<path fill="none" stroke="#528b8b" stroke-width="2" d="M158.56,-247.06C175.96,-251.01 195.19,-255.03 213,-258 254.18,-264.88 301.68,-269.79 334.65,-272.73"/>
<polygon fill="#528b8b" stroke="#528b8b" stroke-width="2" points="334.55,-276.24 344.81,-273.62 335.15,-269.26 334.55,-276.24"/>
</g>
<!-- src/transport&#45;local.ts&#45;&gt;src/watchable.ts -->
<g id="edge23" class="edge">
<title>src/transport&#45;local.ts&#45;&gt;src/watchable.ts</title>
<path fill="none" stroke="#528b8b" stroke-width="2" d="M158.74,-231.15C235.85,-228.66 372.2,-224.26 448.44,-221.79"/>
<polygon fill="#528b8b" stroke="#528b8b" stroke-width="2" points="448.9,-225.28 458.78,-221.46 448.68,-218.29 448.9,-225.28"/>
</g>
<!-- src/types&#45;envelope.ts&#45;&gt;src/types&#45;bag.ts -->
<g id="edge25" class="edge">
<title>src/types&#45;envelope.ts&#45;&gt;src/types&#45;bag.ts</title>
<path fill="none" stroke="#528b8b" stroke-width="2" d="M542.45,-275.89C550.37,-271.59 558.59,-266.84 566,-262 583.73,-250.42 602.39,-235.88 617.22,-223.69"/>
<polygon fill="#528b8b" stroke="#528b8b" stroke-width="2" points="619.59,-226.27 625.04,-217.19 615.11,-220.89 619.59,-226.27"/>
</g>
<!-- src/types.ts&#45;&gt;src/types&#45;bag.ts -->
<g id="edge27" class="edge">
<title>src/types.ts&#45;&gt;src/types&#45;bag.ts</title>
<path fill="none" stroke="#528b8b" stroke-width="2" d="M408.37,-271.57C459.93,-264.12 558.66,-249.65 566,-247 582.37,-241.09 599.09,-231.68 612.99,-222.76"/>
<polygon fill="#528b8b" stroke="#528b8b" stroke-width="2" points="615.27,-225.44 621.68,-217 611.41,-219.6 615.27,-225.44"/>
</g>
<!-- src/types.ts&#45;&gt;src/types&#45;envelope.ts -->
<g id="edge26" class="edge">
<title>src/types.ts&#45;&gt;src/types&#45;envelope.ts</title>
<path fill="none" stroke="#528b8b" stroke-width="2" d="M408.12,-280.36C415.98,-281.48 424.77,-282.73 433.75,-284"/>
<polygon fill="#528b8b" stroke="#528b8b" stroke-width="2" points="433.54,-287.51 443.93,-285.45 434.53,-280.58 433.54,-287.51"/>
</g>
<!-- src/types.ts&#45;&gt;src/watchable.ts -->
<g id="edge28" class="edge">
<title>src/types.ts&#45;&gt;src/watchable.ts</title>
<path fill="none" stroke="#528b8b" stroke-width="2" d="M408.12,-262.44C421.81,-256.39 438.3,-249.09 453.72,-242.26"/>
<polygon fill="#528b8b" stroke="#528b8b" stroke-width="2" points="455.41,-245.34 463.14,-238.09 452.58,-238.93 455.41,-245.34"/>
</g>
<!-- src/util.ts&#45;&gt;src/errors.ts -->
<g id="edge29" class="edge">
<title>src/util.ts&#45;&gt;src/errors.ts</title>
<path fill="none" stroke="#528b8b" stroke-width="2" d="M403.71,-102C420.52,-102 442.72,-102 461.95,-102"/>
<polygon fill="#528b8b" stroke="#528b8b" stroke-width="2" points="461.99,-105.5 471.99,-102 461.99,-98.5 461.99,-105.5"/>
</g>
</g>
</svg>
