<?xml version="1.0" encoding="UTF-8" standalone="no"?>
<!DOCTYPE svg PUBLIC "-//W3C//DTD SVG 1.1//EN"
 "http://www.w3.org/Graphics/SVG/1.1/DTD/svg11.dtd">
<!-- Generated by graphviz version 2.44.1 (20200629.0846)
 -->
<!-- Title: G Pages: 1 -->
<svg width="582pt" height="357pt"
 viewBox="0.00 0.00 582.00 357.00" xmlns="http://www.w3.org/2000/svg" xmlns:xlink="http://www.w3.org/1999/xlink">
<g id="graph0" class="graph" transform="scale(1 1) rotate(0) translate(4 353)">
<title>G</title>
<polygon fill="white" stroke="transparent" points="-4,4 -4,-353 578,-353 578,4 -4,4"/>
<g id="clust1" class="cluster">
<title>cluster3346056155</title>
<path fill="none" stroke="#8b7d6b" stroke-width="2" d="M20,-46C20,-46 554,-46 554,-46 560,-46 566,-52 566,-58 566,-58 566,-329 566,-329 566,-335 560,-341 554,-341 554,-341 20,-341 20,-341 14,-341 8,-335 8,-329 8,-329 8,-58 8,-58 8,-52 14,-46 20,-46"/>
<text text-anchor="start" x="276.5" y="-326.8" font-family="Helvetica,sans-Serif" font-weight="bold" font-size="14.00">src</text>
</g>
<!-- src/connection.ts -->
<g id="node1" class="node">
<title>src/connection.ts</title>
<path fill="#79cdcd" stroke="#79cdcd" d="M289,-190C289,-190 217,-190 217,-190 211,-190 205,-184 205,-178 205,-178 205,-166 205,-166 205,-160 211,-154 217,-154 217,-154 289,-154 289,-154 295,-154 301,-160 301,-166 301,-166 301,-178 301,-178 301,-184 295,-190 289,-190"/>
<text text-anchor="middle" x="253" y="-168.3" font-family="Helvetica,sans-Serif" font-size="14.00">connection.ts</text>
</g>
<!-- src/types&#45;envelope.ts -->
<g id="node5" class="node">
<title>src/types&#45;envelope.ts</title>
<path fill="#79cdcd" stroke="#79cdcd" d="M546,-247C546,-247 448,-247 448,-247 442,-247 436,-241 436,-235 436,-235 436,-223 436,-223 436,-217 442,-211 448,-211 448,-211 546,-211 546,-211 552,-211 558,-217 558,-223 558,-223 558,-235 558,-235 558,-241 552,-247 546,-247"/>
<text text-anchor="middle" x="497" y="-225.3" font-family="Helvetica,sans-Serif" font-size="14.00">types&#45;envelope.ts</text>
</g>
<!-- src/connection.ts&#45;&gt;src/types&#45;envelope.ts -->
<g id="edge2" class="edge">
<title>src/connection.ts&#45;&gt;src/types&#45;envelope.ts</title>
<path fill="none" stroke="#528b8b" stroke-width="2" d="M301.2,-180.81C329.89,-186.38 367.19,-194.03 400,-202 408.43,-204.05 417.25,-206.33 425.97,-208.68"/>
<polygon fill="#528b8b" stroke="#528b8b" stroke-width="2" points="425.18,-212.09 435.74,-211.34 427.02,-205.34 425.18,-212.09"/>
</g>
<!-- src/types.ts -->
<g id="node6" class="node">
<title>src/types.ts</title>
<path fill="#79cdcd" stroke="#79cdcd" d="M388,-247C388,-247 349,-247 349,-247 343,-247 337,-241 337,-235 337,-235 337,-223 337,-223 337,-217 343,-211 349,-211 349,-211 388,-211 388,-211 394,-211 400,-217 400,-223 400,-223 400,-235 400,-235 400,-241 394,-247 388,-247"/>
<text text-anchor="middle" x="368.5" y="-225.3" font-family="Helvetica,sans-Serif" font-size="14.00">types.ts</text>
</g>
<!-- src/connection.ts&#45;&gt;src/types.ts -->
<g id="edge1" class="edge">
<title>src/connection.ts&#45;&gt;src/types.ts</title>
<path fill="none" stroke="#528b8b" stroke-width="2" d="M289.91,-190.04C301.92,-196.06 315.37,-202.82 327.66,-208.99"/>
<polygon fill="#528b8b" stroke="#528b8b" stroke-width="2" points="326.28,-212.21 336.79,-213.57 329.42,-205.96 326.28,-212.21"/>
</g>
<!-- src/util.ts -->
<g id="node7" class="node">
<title>src/util.ts</title>
<path fill="#79cdcd" stroke="#79cdcd" d="M383.5,-153C383.5,-153 353.5,-153 353.5,-153 347.5,-153 341.5,-147 341.5,-141 341.5,-141 341.5,-129 341.5,-129 341.5,-123 347.5,-117 353.5,-117 353.5,-117 383.5,-117 383.5,-117 389.5,-117 395.5,-123 395.5,-129 395.5,-129 395.5,-141 395.5,-141 395.5,-147 389.5,-153 383.5,-153"/>
<text text-anchor="middle" x="368.5" y="-131.3" font-family="Helvetica,sans-Serif" font-size="14.00">util.ts</text>
</g>
<!-- src/connection.ts&#45;&gt;src/util.ts -->
<g id="edge4" class="edge">
<title>src/connection.ts&#45;&gt;src/util.ts</title>
<path fill="none" stroke="#528b8b" stroke-width="2" d="M301.15,-156.63C311.36,-153.3 322.01,-149.83 331.7,-146.67"/>
<polygon fill="#528b8b" stroke="#528b8b" stroke-width="2" points="332.98,-149.93 341.4,-143.51 330.81,-143.28 332.98,-149.93"/>
</g>
<!-- src/watchable.ts -->
<g id="node8" class="node">
<title>src/watchable.ts</title>
<path fill="#79cdcd" stroke="#79cdcd" d="M531,-190C531,-190 463,-190 463,-190 457,-190 451,-184 451,-178 451,-178 451,-166 451,-166 451,-160 457,-154 463,-154 463,-154 531,-154 531,-154 537,-154 543,-160 543,-166 543,-166 543,-178 543,-178 543,-184 537,-190 531,-190"/>
<text text-anchor="middle" x="497" y="-168.3" font-family="Helvetica,sans-Serif" font-size="14.00">watchable.ts</text>
</g>
<!-- src/connection.ts&#45;&gt;src/watchable.ts -->
<g id="edge3" class="edge">
<title>src/connection.ts&#45;&gt;src/watchable.ts</title>
<path fill="none" stroke="#528b8b" stroke-width="2" d="M301.23,-172C341.26,-172 398.71,-172 440.84,-172"/>
<polygon fill="#528b8b" stroke="#528b8b" stroke-width="2" points="440.93,-175.5 450.93,-172 440.93,-168.5 440.93,-175.5"/>
</g>
<!-- src/transport&#45;http&#45;client.ts -->
<g id="node2" class="node">
<title>src/transport&#45;http&#45;client.ts</title>
<path fill="#79cdcd" stroke="#79cdcd" d="M154,-190C154,-190 31,-190 31,-190 25,-190 19,-184 19,-178 19,-178 19,-166 19,-166 19,-160 25,-154 31,-154 31,-154 154,-154 154,-154 160,-154 166,-160 166,-166 166,-166 166,-178 166,-178 166,-184 160,-190 154,-190"/>
<text text-anchor="middle" x="92.5" y="-168.3" font-family="Helvetica,sans-Serif" font-size="14.00">transport&#45;http&#45;client.ts</text>
</g>
<!-- src/transport&#45;http&#45;client.ts&#45;&gt;src/connection.ts -->
<g id="edge9" class="edge">
<title>src/transport&#45;http&#45;client.ts&#45;&gt;src/connection.ts</title>
<path fill="none" stroke="#528b8b" stroke-width="2" d="M166.26,-172C175.72,-172 185.3,-172 194.47,-172"/>
<polygon fill="#528b8b" stroke="#528b8b" stroke-width="2" points="194.61,-175.5 204.61,-172 194.61,-168.5 194.61,-175.5"/>
</g>
<!-- src/transport&#45;http&#45;client.ts&#45;&gt;src/types&#45;envelope.ts -->
<g id="edge6" class="edge">
<title>src/transport&#45;http&#45;client.ts&#45;&gt;src/types&#45;envelope.ts</title>
<path fill="none" stroke="#528b8b" stroke-width="2" d="M126.02,-190.09C181.36,-218.78 297.79,-270.1 400,-256 410.4,-254.57 421.25,-252.3 431.77,-249.67"/>
<polygon fill="#528b8b" stroke="#528b8b" stroke-width="2" points="432.94,-252.98 441.72,-247.05 431.16,-246.21 432.94,-252.98"/>
</g>
<!-- src/transport&#45;http&#45;client.ts&#45;&gt;src/types.ts -->
<g id="edge5" class="edge">
<title>src/transport&#45;http&#45;client.ts&#45;&gt;src/types.ts</title>
<path fill="none" stroke="#528b8b" stroke-width="2" d="M133.47,-190.04C154.36,-198.7 180.61,-208.39 205,-214 245.73,-223.37 293.49,-226.92 326.64,-228.25"/>
<polygon fill="#528b8b" stroke="#528b8b" stroke-width="2" points="326.75,-231.76 336.87,-228.61 326.99,-224.76 326.75,-231.76"/>
</g>
<!-- src/transport&#45;http&#45;client.ts&#45;&gt;src/util.ts -->
<g id="edge8" class="edge">
<title>src/transport&#45;http&#45;client.ts&#45;&gt;src/util.ts</title>
<path fill="none" stroke="#528b8b" stroke-width="2" d="M159.75,-153.93C174.54,-150.46 190.23,-147.23 205,-145 248.13,-138.5 298.3,-136.21 331.36,-135.4"/>
<polygon fill="#528b8b" stroke="#528b8b" stroke-width="2" points="331.53,-138.9 341.46,-135.19 331.39,-131.9 331.53,-138.9"/>
</g>
<!-- src/transport&#45;http&#45;client.ts&#45;&gt;src/watchable.ts -->
<g id="edge7" class="edge">
<title>src/transport&#45;http&#45;client.ts&#45;&gt;src/watchable.ts</title>
<path fill="none" stroke="#528b8b" stroke-width="2" d="M127.55,-153.91C184.65,-126.02 302.97,-78.62 400,-108 425.6,-115.75 450.62,-132.83 468.69,-147.4"/>
<polygon fill="#528b8b" stroke="#528b8b" stroke-width="2" points="466.56,-150.18 476.48,-153.87 471.03,-144.79 466.56,-150.18"/>
</g>
<!-- src/transport&#45;http&#45;server.ts -->
<g id="node3" class="node">
<title>src/transport&#45;http&#45;server.ts</title>
<path fill="#79cdcd" stroke="#79cdcd" d="M157,-103C157,-103 28,-103 28,-103 22,-103 16,-97 16,-91 16,-91 16,-79 16,-79 16,-73 22,-67 28,-67 28,-67 157,-67 157,-67 163,-67 169,-73 169,-79 169,-79 169,-91 169,-91 169,-97 163,-103 157,-103"/>
<text text-anchor="middle" x="92.5" y="-81.3" font-family="Helvetica,sans-Serif" font-size="14.00">transport&#45;http&#45;server.ts</text>
</g>
<!-- src/transport&#45;http&#45;server.ts&#45;&gt;src/connection.ts -->
<g id="edge14" class="edge">
<title>src/transport&#45;http&#45;server.ts&#45;&gt;src/connection.ts</title>
<path fill="none" stroke="#528b8b" stroke-width="2" d="M126.34,-103.03C150.67,-116.38 184.02,-134.69 210.25,-149.08"/>
<polygon fill="#528b8b" stroke="#528b8b" stroke-width="2" points="208.75,-152.25 219.2,-154 212.12,-146.12 208.75,-152.25"/>
</g>
<!-- src/transport&#45;http&#45;server.ts&#45;&gt;src/types&#45;envelope.ts -->
<g id="edge11" class="edge">
<title>src/transport&#45;http&#45;server.ts&#45;&gt;src/types&#45;envelope.ts</title>
<path fill="none" stroke="#528b8b" stroke-width="2" d="M169.07,-81.75C247.82,-79.9 364.6,-81.94 400,-108 435.03,-133.78 406.61,-166.94 436,-199 437.96,-201.13 440.1,-203.13 442.37,-205.01"/>
<polygon fill="#528b8b" stroke="#528b8b" stroke-width="2" points="440.37,-207.88 450.52,-210.91 444.47,-202.21 440.37,-207.88"/>
</g>
<!-- src/transport&#45;http&#45;server.ts&#45;&gt;src/types.ts -->
<g id="edge10" class="edge">
<title>src/transport&#45;http&#45;server.ts&#45;&gt;src/types.ts</title>
<path fill="none" stroke="#528b8b" stroke-width="2" d="M120.37,-103.17C135.62,-114.23 154.49,-129.23 169,-145 188.53,-166.23 180.7,-183.46 205,-199 241.38,-222.26 258.58,-205.91 301,-214 309.44,-215.61 318.44,-217.51 327,-219.41"/>
<polygon fill="#528b8b" stroke="#528b8b" stroke-width="2" points="326.27,-222.84 336.8,-221.62 327.82,-216.01 326.27,-222.84"/>
</g>
<!-- src/transport&#45;http&#45;server.ts&#45;&gt;src/util.ts -->
<g id="edge12" class="edge">
<title>src/transport&#45;http&#45;server.ts&#45;&gt;src/util.ts</title>
<path fill="none" stroke="#528b8b" stroke-width="2" d="M169.1,-98.8C221.99,-108.45 290.29,-120.91 331.39,-128.41"/>
<polygon fill="#528b8b" stroke="#528b8b" stroke-width="2" points="331.01,-131.9 341.48,-130.25 332.27,-125.01 331.01,-131.9"/>
</g>
<!-- src/transport&#45;http&#45;server.ts&#45;&gt;src/watchable.ts -->
<g id="edge13" class="edge">
<title>src/transport&#45;http&#45;server.ts&#45;&gt;src/watchable.ts</title>
<path fill="none" stroke="#528b8b" stroke-width="2" d="M169.22,-70.33C233.97,-61.6 327.85,-58.25 400,-94 426.94,-107.35 453.12,-129.43 471.32,-146.69"/>
<polygon fill="#528b8b" stroke="#528b8b" stroke-width="2" points="469,-149.31 478.61,-153.76 473.87,-144.28 469,-149.31"/>
</g>
<!-- deps.ts -->
<g id="node9" class="node">
<title>deps.ts</title>
<ellipse fill="none" stroke="black" cx="253" cy="-18" rx="38.99" ry="18"/>
<text text-anchor="middle" x="253" y="-14.3" font-family="Helvetica,sans-Serif" font-size="14.00">deps.ts</text>
</g>
<!-- src/transport&#45;http&#45;server.ts&#45;&gt;deps.ts -->
<g id="edge15" class="edge">
<title>src/transport&#45;http&#45;server.ts&#45;&gt;deps.ts</title>
<path fill="none" stroke="#528b8b" stroke-width="2" d="M136.39,-66.87C160.73,-56.58 190.9,-43.83 214.32,-33.93"/>
<polygon fill="#528b8b" stroke="#528b8b" stroke-width="2" points="215.73,-37.13 223.58,-30.01 213.01,-30.68 215.73,-37.13"/>
</g>
<!-- src/transport&#45;local.ts -->
<g id="node4" class="node">
<title>src/transport&#45;local.ts</title>
<path fill="#79cdcd" stroke="#79cdcd" d="M138.5,-287C138.5,-287 46.5,-287 46.5,-287 40.5,-287 34.5,-281 34.5,-275 34.5,-275 34.5,-263 34.5,-263 34.5,-257 40.5,-251 46.5,-251 46.5,-251 138.5,-251 138.5,-251 144.5,-251 150.5,-257 150.5,-263 150.5,-263 150.5,-275 150.5,-275 150.5,-281 144.5,-287 138.5,-287"/>
<text text-anchor="middle" x="92.5" y="-265.3" font-family="Helvetica,sans-Serif" font-size="14.00">transport&#45;local.ts</text>
</g>
<!-- src/transport&#45;local.ts&#45;&gt;src/connection.ts -->
<g id="edge19" class="edge">
<title>src/transport&#45;local.ts&#45;&gt;src/connection.ts</title>
<path fill="none" stroke="#528b8b" stroke-width="2" d="M122.94,-250.98C148.55,-235.31 185.83,-212.5 213.74,-195.41"/>
<polygon fill="#528b8b" stroke="#528b8b" stroke-width="2" points="215.75,-198.29 222.45,-190.09 212.09,-192.32 215.75,-198.29"/>
</g>
<!-- src/transport&#45;local.ts&#45;&gt;src/types&#45;envelope.ts -->
<g id="edge17" class="edge">
<title>src/transport&#45;local.ts&#45;&gt;src/types&#45;envelope.ts</title>
<path fill="none" stroke="#528b8b" stroke-width="2" d="M150.51,-286.09C213.11,-302.03 315.91,-319.79 400,-294 425.87,-286.07 451.03,-268.55 469.11,-253.69"/>
<polygon fill="#528b8b" stroke="#528b8b" stroke-width="2" points="471.52,-256.23 476.89,-247.1 467,-250.89 471.52,-256.23"/>
</g>
<!-- src/transport&#45;local.ts&#45;&gt;src/types.ts -->
<g id="edge16" class="edge">
<title>src/transport&#45;local.ts&#45;&gt;src/types.ts</title>
<path fill="none" stroke="#528b8b" stroke-width="2" d="M150.61,-260.66C203.24,-252.98 280.07,-241.76 326.75,-234.95"/>
<polygon fill="#528b8b" stroke="#528b8b" stroke-width="2" points="327.42,-238.39 336.81,-233.48 326.41,-231.46 327.42,-238.39"/>
</g>
<!-- src/transport&#45;local.ts&#45;&gt;src/watchable.ts -->
<g id="edge18" class="edge">
<title>src/transport&#45;local.ts&#45;&gt;src/watchable.ts</title>
<path fill="none" stroke="#528b8b" stroke-width="2" d="M150.77,-281.2C215.67,-291.86 322.49,-299.62 400,-256 425.14,-241.85 414.38,-221.09 436,-202 438.61,-199.69 441.43,-197.52 444.38,-195.47"/>
<polygon fill="#528b8b" stroke="#528b8b" stroke-width="2" points="446.36,-198.36 452.93,-190.06 442.61,-192.45 446.36,-198.36"/>
</g>
<!-- src/types.ts&#45;&gt;src/types&#45;envelope.ts -->
<g id="edge20" class="edge">
<title>src/types.ts&#45;&gt;src/types&#45;envelope.ts</title>
<path fill="none" stroke="#528b8b" stroke-width="2" d="M400.12,-229C407.98,-229 416.77,-229 425.75,-229"/>
<polygon fill="#528b8b" stroke="#528b8b" stroke-width="2" points="425.93,-232.5 435.93,-229 425.93,-225.5 425.93,-232.5"/>
</g>
<!-- src/types.ts&#45;&gt;src/watchable.ts -->
<g id="edge21" class="edge">
<title>src/types.ts&#45;&gt;src/watchable.ts</title>
<path fill="none" stroke="#528b8b" stroke-width="2" d="M400.12,-215.2C413.93,-208.98 430.59,-201.47 446.12,-194.47"/>
<polygon fill="#528b8b" stroke="#528b8b" stroke-width="2" points="447.94,-197.5 455.62,-190.2 445.06,-191.11 447.94,-197.5"/>
</g>
</g>
</svg>
