<?xml version="1.0" encoding="UTF-8" standalone="no"?>
<!DOCTYPE svg PUBLIC "-//W3C//DTD SVG 1.1//EN"
 "http://www.w3.org/Graphics/SVG/1.1/DTD/svg11.dtd">
<!-- Generated by graphviz version 2.44.1 (20200629.0846)
 -->
<!-- Title: G Pages: 1 -->
<svg width="572pt" height="283pt"
 viewBox="0.00 0.00 572.00 283.00" xmlns="http://www.w3.org/2000/svg" xmlns:xlink="http://www.w3.org/1999/xlink">
<g id="graph0" class="graph" transform="scale(1 1) rotate(0) translate(4 279)">
<title>G</title>
<polygon fill="white" stroke="transparent" points="-4,4 -4,-279 568,-279 568,4 -4,4"/>
<g id="clust1" class="cluster">
<title>cluster4560059362</title>
<path fill="none" stroke="#8b7d6b" stroke-width="2" d="M20,-44C20,-44 544,-44 544,-44 550,-44 556,-50 556,-56 556,-56 556,-255 556,-255 556,-261 550,-267 544,-267 544,-267 20,-267 20,-267 14,-267 8,-261 8,-255 8,-255 8,-56 8,-56 8,-50 14,-44 20,-44"/>
<text text-anchor="start" x="271.5" y="-252.8" font-family="Helvetica,sans-Serif" font-weight="bold" font-size="14.00">src</text>
</g>
<!-- src/connection.ts -->
<g id="node1" class="node">
<title>src/connection.ts</title>
<path fill="#79cdcd" stroke="#79cdcd" d="M279,-162C279,-162 207,-162 207,-162 201,-162 195,-156 195,-150 195,-150 195,-138 195,-138 195,-132 201,-126 207,-126 207,-126 279,-126 279,-126 285,-126 291,-132 291,-138 291,-138 291,-150 291,-150 291,-156 285,-162 279,-162"/>
<text text-anchor="middle" x="243" y="-140.3" font-family="Helvetica,sans-Serif" font-size="14.00">connection.ts</text>
</g>
<!-- src/log.ts -->
<g id="node2" class="node">
<title>src/log.ts</title>
<path fill="#79cdcd" stroke="#79cdcd" d="M373.5,-88C373.5,-88 343.5,-88 343.5,-88 337.5,-88 331.5,-82 331.5,-76 331.5,-76 331.5,-64 331.5,-64 331.5,-58 337.5,-52 343.5,-52 343.5,-52 373.5,-52 373.5,-52 379.5,-52 385.5,-58 385.5,-64 385.5,-64 385.5,-76 385.5,-76 385.5,-82 379.5,-88 373.5,-88"/>
<text text-anchor="middle" x="358.5" y="-66.3" font-family="Helvetica,sans-Serif" font-size="14.00">log.ts</text>
</g>
<!-- src/connection.ts&#45;&gt;src/log.ts -->
<g id="edge4" class="edge">
<title>src/connection.ts&#45;&gt;src/log.ts</title>
<path fill="none" stroke="#528b8b" stroke-width="2" d="M271.77,-125.9C287.05,-115.93 306.17,-103.47 322.47,-92.84"/>
<polygon fill="#528b8b" stroke="#528b8b" stroke-width="2" points="324.73,-95.55 331.19,-87.15 320.9,-89.68 324.73,-95.55"/>
</g>
<!-- src/types&#45;envelope.ts -->
<g id="node4" class="node">
<title>src/types&#45;envelope.ts</title>
<path fill="#79cdcd" stroke="#79cdcd" d="M536,-216C536,-216 438,-216 438,-216 432,-216 426,-210 426,-204 426,-204 426,-192 426,-192 426,-186 432,-180 438,-180 438,-180 536,-180 536,-180 542,-180 548,-186 548,-192 548,-192 548,-204 548,-204 548,-210 542,-216 536,-216"/>
<text text-anchor="middle" x="487" y="-194.3" font-family="Helvetica,sans-Serif" font-size="14.00">types&#45;envelope.ts</text>
</g>
<!-- src/connection.ts&#45;&gt;src/types&#45;envelope.ts -->
<g id="edge2" class="edge">
<title>src/connection.ts&#45;&gt;src/types&#45;envelope.ts</title>
<path fill="none" stroke="#528b8b" stroke-width="2" d="M282.74,-125.94C312.72,-114.53 354.89,-104.17 390,-117 420.06,-127.99 447.21,-153 464.9,-172.35"/>
<polygon fill="#528b8b" stroke="#528b8b" stroke-width="2" points="462.41,-174.81 471.66,-179.97 467.65,-170.17 462.41,-174.81"/>
</g>
<!-- src/types.ts -->
<g id="node5" class="node">
<title>src/types.ts</title>
<path fill="#79cdcd" stroke="#79cdcd" d="M378,-216C378,-216 339,-216 339,-216 333,-216 327,-210 327,-204 327,-204 327,-192 327,-192 327,-186 333,-180 339,-180 339,-180 378,-180 378,-180 384,-180 390,-186 390,-192 390,-192 390,-204 390,-204 390,-210 384,-216 378,-216"/>
<text text-anchor="middle" x="358.5" y="-194.3" font-family="Helvetica,sans-Serif" font-size="14.00">types.ts</text>
</g>
<!-- src/connection.ts&#45;&gt;src/types.ts -->
<g id="edge1" class="edge">
<title>src/connection.ts&#45;&gt;src/types.ts</title>
<path fill="none" stroke="#528b8b" stroke-width="2" d="M282.11,-162.13C293.48,-167.54 305.97,-173.49 317.46,-178.95"/>
<polygon fill="#528b8b" stroke="#528b8b" stroke-width="2" points="316.3,-182.27 326.83,-183.41 319.31,-175.95 316.3,-182.27"/>
</g>
<!-- src/util.ts -->
<g id="node6" class="node">
<title>src/util.ts</title>
<path fill="#79cdcd" stroke="#79cdcd" d="M373.5,-162C373.5,-162 343.5,-162 343.5,-162 337.5,-162 331.5,-156 331.5,-150 331.5,-150 331.5,-138 331.5,-138 331.5,-132 337.5,-126 343.5,-126 343.5,-126 373.5,-126 373.5,-126 379.5,-126 385.5,-132 385.5,-138 385.5,-138 385.5,-150 385.5,-150 385.5,-156 379.5,-162 373.5,-162"/>
<text text-anchor="middle" x="358.5" y="-140.3" font-family="Helvetica,sans-Serif" font-size="14.00">util.ts</text>
</g>
<!-- src/connection.ts&#45;&gt;src/util.ts -->
<g id="edge3" class="edge">
<title>src/connection.ts&#45;&gt;src/util.ts</title>
<path fill="none" stroke="#528b8b" stroke-width="2" d="M291.15,-144C301.26,-144 311.78,-144 321.4,-144"/>
<polygon fill="#528b8b" stroke="#528b8b" stroke-width="2" points="321.4,-147.5 331.4,-144 321.4,-140.5 321.4,-147.5"/>
</g>
<!-- deps.ts -->
<g id="node7" class="node">
<title>deps.ts</title>
<ellipse fill="none" stroke="black" cx="487" cy="-18" rx="38.99" ry="18"/>
<text text-anchor="middle" x="487" y="-14.3" font-family="Helvetica,sans-Serif" font-size="14.00">deps.ts</text>
</g>
<!-- src/log.ts&#45;&gt;deps.ts -->
<g id="edge5" class="edge">
<title>src/log.ts&#45;&gt;deps.ts</title>
<path fill="none" stroke="#528b8b" stroke-width="2" d="M385.53,-57.73C397.73,-52.12 412.52,-45.51 426,-40 432.35,-37.41 439.13,-34.78 445.76,-32.3"/>
<polygon fill="#528b8b" stroke="#528b8b" stroke-width="2" points="447.15,-35.52 455.31,-28.77 444.72,-28.95 447.15,-35.52"/>
</g>
<!-- src/transportHttpClient.ts -->
<g id="node3" class="node">
<title>src/transportHttpClient.ts</title>
<path fill="#79cdcd" stroke="#79cdcd" d="M147,-185C147,-185 28,-185 28,-185 22,-185 16,-179 16,-173 16,-173 16,-161 16,-161 16,-155 22,-149 28,-149 28,-149 147,-149 147,-149 153,-149 159,-155 159,-161 159,-161 159,-173 159,-173 159,-179 153,-185 147,-185"/>
<text text-anchor="middle" x="87.5" y="-163.3" font-family="Helvetica,sans-Serif" font-size="14.00">transportHttpClient.ts</text>
</g>
<!-- src/transportHttpClient.ts&#45;&gt;src/connection.ts -->
<g id="edge8" class="edge">
<title>src/transportHttpClient.ts&#45;&gt;src/connection.ts</title>
<path fill="none" stroke="#528b8b" stroke-width="2" d="M159.41,-156.38C167.8,-155.12 176.29,-153.85 184.47,-152.62"/>
<polygon fill="#528b8b" stroke="#528b8b" stroke-width="2" points="185.26,-156.04 194.63,-151.1 184.23,-149.12 185.26,-156.04"/>
</g>
<!-- src/transportHttpClient.ts&#45;&gt;src/log.ts -->
<g id="edge9" class="edge">
<title>src/transportHttpClient.ts&#45;&gt;src/log.ts</title>
<path fill="none" stroke="#528b8b" stroke-width="2" d="M123.4,-148.91C143.91,-138.72 170.53,-126.22 195,-117 237.71,-100.91 288.46,-87.03 321.74,-78.61"/>
<polygon fill="#528b8b" stroke="#528b8b" stroke-width="2" points="322.63,-82 331.48,-76.18 320.93,-75.21 322.63,-82"/>
</g>
<!-- src/transportHttpClient.ts&#45;&gt;src/types&#45;envelope.ts -->
<g id="edge7" class="edge">
<title>src/transportHttpClient.ts&#45;&gt;src/types&#45;envelope.ts</title>
<path fill="none" stroke="#528b8b" stroke-width="2" d="M133.46,-185.03C192.16,-206.42 298.25,-237.66 390,-225 400.4,-223.57 411.25,-221.3 421.77,-218.67"/>
<polygon fill="#528b8b" stroke="#528b8b" stroke-width="2" points="422.94,-221.98 431.72,-216.05 421.16,-215.21 422.94,-221.98"/>
</g>
<!-- src/transportHttpClient.ts&#45;&gt;src/types.ts -->
<g id="edge6" class="edge">
<title>src/transportHttpClient.ts&#45;&gt;src/types.ts</title>
<path fill="none" stroke="#528b8b" stroke-width="2" d="M159.18,-175.14C209.4,-180.93 275.09,-188.5 316.8,-193.31"/>
<polygon fill="#528b8b" stroke="#528b8b" stroke-width="2" points="316.53,-196.8 326.86,-194.47 317.33,-189.85 316.53,-196.8"/>
</g>
<!-- src/types.ts&#45;&gt;src/types&#45;envelope.ts -->
<g id="edge10" class="edge">
<title>src/types.ts&#45;&gt;src/types&#45;envelope.ts</title>
<path fill="none" stroke="#528b8b" stroke-width="2" d="M390.12,-198C397.98,-198 406.77,-198 415.75,-198"/>
<polygon fill="#528b8b" stroke="#528b8b" stroke-width="2" points="415.93,-201.5 425.93,-198 415.93,-194.5 415.93,-201.5"/>
</g>
</g>
</svg>
