<?xml version="1.0" encoding="UTF-8" standalone="no"?>
<!DOCTYPE svg PUBLIC "-//W3C//DTD SVG 1.1//EN"
 "http://www.w3.org/Graphics/SVG/1.1/DTD/svg11.dtd">
<!-- Generated by graphviz version 2.44.1 (20200629.0846)
 -->
<!-- Title: G Pages: 1 -->
<svg width="572pt" height="193pt"
 viewBox="0.00 0.00 572.00 193.00" xmlns="http://www.w3.org/2000/svg" xmlns:xlink="http://www.w3.org/1999/xlink">
<g id="graph0" class="graph" transform="scale(1 1) rotate(0) translate(4 189)">
<title>G</title>
<polygon fill="white" stroke="transparent" points="-4,4 -4,-189 568,-189 568,4 -4,4"/>
<g id="clust1" class="cluster">
<title>cluster8513787771</title>
<path fill="none" stroke="#8b7d6b" stroke-width="2" d="M20,-8C20,-8 544,-8 544,-8 550,-8 556,-14 556,-20 556,-20 556,-165 556,-165 556,-171 550,-177 544,-177 544,-177 20,-177 20,-177 14,-177 8,-171 8,-165 8,-165 8,-20 8,-20 8,-14 14,-8 20,-8"/>
<text text-anchor="start" x="271.5" y="-162.8" font-family="Helvetica,sans-Serif" font-weight="bold" font-size="14.00">src</text>
</g>
<!-- src/connection.ts -->
<g id="node1" class="node">
<title>src/connection.ts</title>
<path fill="#79cdcd" stroke="#79cdcd" d="M279,-89C279,-89 207,-89 207,-89 201,-89 195,-83 195,-77 195,-77 195,-65 195,-65 195,-59 201,-53 207,-53 207,-53 279,-53 279,-53 285,-53 291,-59 291,-65 291,-65 291,-77 291,-77 291,-83 285,-89 279,-89"/>
<text text-anchor="middle" x="243" y="-67.3" font-family="Helvetica,sans-Serif" font-size="14.00">connection.ts</text>
</g>
<!-- src/types&#45;envelope.ts -->
<g id="node3" class="node">
<title>src/types&#45;envelope.ts</title>
<path fill="#79cdcd" stroke="#79cdcd" d="M536,-126C536,-126 438,-126 438,-126 432,-126 426,-120 426,-114 426,-114 426,-102 426,-102 426,-96 432,-90 438,-90 438,-90 536,-90 536,-90 542,-90 548,-96 548,-102 548,-102 548,-114 548,-114 548,-120 542,-126 536,-126"/>
<text text-anchor="middle" x="487" y="-104.3" font-family="Helvetica,sans-Serif" font-size="14.00">types&#45;envelope.ts</text>
</g>
<!-- src/connection.ts&#45;&gt;src/types&#45;envelope.ts -->
<g id="edge2" class="edge">
<title>src/connection.ts&#45;&gt;src/types&#45;envelope.ts</title>
<path fill="none" stroke="#528b8b" stroke-width="2" d="M291.31,-71.78C320.03,-72.86 357.33,-75.35 390,-81 399.66,-82.67 409.74,-84.92 419.59,-87.42"/>
<polygon fill="#528b8b" stroke="#528b8b" stroke-width="2" points="418.77,-90.82 429.33,-89.98 420.55,-84.05 418.77,-90.82"/>
</g>
<!-- src/types.ts -->
<g id="node4" class="node">
<title>src/types.ts</title>
<path fill="#79cdcd" stroke="#79cdcd" d="M378,-126C378,-126 339,-126 339,-126 333,-126 327,-120 327,-114 327,-114 327,-102 327,-102 327,-96 333,-90 339,-90 339,-90 378,-90 378,-90 384,-90 390,-96 390,-102 390,-102 390,-114 390,-114 390,-120 384,-126 378,-126"/>
<text text-anchor="middle" x="358.5" y="-104.3" font-family="Helvetica,sans-Serif" font-size="14.00">types.ts</text>
</g>
<!-- src/connection.ts&#45;&gt;src/types.ts -->
<g id="edge1" class="edge">
<title>src/connection.ts&#45;&gt;src/types.ts</title>
<path fill="none" stroke="#528b8b" stroke-width="2" d="M291.15,-86.37C299.82,-89.2 308.79,-92.12 317.23,-94.87"/>
<polygon fill="#528b8b" stroke="#528b8b" stroke-width="2" points="316.26,-98.24 326.85,-98.01 318.43,-91.58 316.26,-98.24"/>
</g>
<!-- src/util.ts -->
<g id="node5" class="node">
<title>src/util.ts</title>
<path fill="#79cdcd" stroke="#79cdcd" d="M373.5,-52C373.5,-52 343.5,-52 343.5,-52 337.5,-52 331.5,-46 331.5,-40 331.5,-40 331.5,-28 331.5,-28 331.5,-22 337.5,-16 343.5,-16 343.5,-16 373.5,-16 373.5,-16 379.5,-16 385.5,-22 385.5,-28 385.5,-28 385.5,-40 385.5,-40 385.5,-46 379.5,-52 373.5,-52"/>
<text text-anchor="middle" x="358.5" y="-30.3" font-family="Helvetica,sans-Serif" font-size="14.00">util.ts</text>
</g>
<!-- src/connection.ts&#45;&gt;src/util.ts -->
<g id="edge3" class="edge">
<title>src/connection.ts&#45;&gt;src/util.ts</title>
<path fill="none" stroke="#528b8b" stroke-width="2" d="M291.15,-55.63C301.36,-52.3 312.01,-48.83 321.7,-45.67"/>
<polygon fill="#528b8b" stroke="#528b8b" stroke-width="2" points="322.98,-48.93 331.4,-42.51 320.81,-42.28 322.98,-48.93"/>
</g>
<!-- src/transportHttpClient.ts -->
<g id="node2" class="node">
<title>src/transportHttpClient.ts</title>
<path fill="#79cdcd" stroke="#79cdcd" d="M147,-126C147,-126 28,-126 28,-126 22,-126 16,-120 16,-114 16,-114 16,-102 16,-102 16,-96 22,-90 28,-90 28,-90 147,-90 147,-90 153,-90 159,-96 159,-102 159,-102 159,-114 159,-114 159,-120 153,-126 147,-126"/>
<text text-anchor="middle" x="87.5" y="-104.3" font-family="Helvetica,sans-Serif" font-size="14.00">transportHttpClient.ts</text>
</g>
<!-- src/transportHttpClient.ts&#45;&gt;src/connection.ts -->
<g id="edge6" class="edge">
<title>src/transportHttpClient.ts&#45;&gt;src/connection.ts</title>
<path fill="none" stroke="#528b8b" stroke-width="2" d="M159.41,-90.91C167.9,-88.86 176.48,-86.79 184.74,-84.8"/>
<polygon fill="#528b8b" stroke="#528b8b" stroke-width="2" points="185.73,-88.16 194.63,-82.42 184.09,-81.36 185.73,-88.16"/>
</g>
<!-- src/transportHttpClient.ts&#45;&gt;src/types&#45;envelope.ts -->
<g id="edge5" class="edge">
<title>src/transportHttpClient.ts&#45;&gt;src/types&#45;envelope.ts</title>
<path fill="none" stroke="#528b8b" stroke-width="2" d="M159.08,-123.32C220.32,-134.46 311.26,-145.86 390,-135 400.4,-133.57 411.25,-131.3 421.77,-128.67"/>
<polygon fill="#528b8b" stroke="#528b8b" stroke-width="2" points="422.94,-131.98 431.72,-126.05 421.16,-125.21 422.94,-131.98"/>
</g>
<!-- src/transportHttpClient.ts&#45;&gt;src/types.ts -->
<g id="edge4" class="edge">
<title>src/transportHttpClient.ts&#45;&gt;src/types.ts</title>
<path fill="none" stroke="#528b8b" stroke-width="2" d="M159.18,-108C209.4,-108 275.09,-108 316.8,-108"/>
<polygon fill="#528b8b" stroke="#528b8b" stroke-width="2" points="316.86,-111.5 326.86,-108 316.86,-104.5 316.86,-111.5"/>
</g>
<!-- src/types.ts&#45;&gt;src/types&#45;envelope.ts -->
<g id="edge7" class="edge">
<title>src/types.ts&#45;&gt;src/types&#45;envelope.ts</title>
<path fill="none" stroke="#528b8b" stroke-width="2" d="M390.12,-108C397.98,-108 406.77,-108 415.75,-108"/>
<polygon fill="#528b8b" stroke="#528b8b" stroke-width="2" points="415.93,-111.5 425.93,-108 415.93,-104.5 415.93,-111.5"/>
</g>
</g>
</svg>
