<?xml version="1.0" encoding="UTF-8" standalone="no"?>
<!DOCTYPE svg PUBLIC "-//W3C//DTD SVG 1.1//EN"
 "http://www.w3.org/Graphics/SVG/1.1/DTD/svg11.dtd">
<!-- Generated by graphviz version 2.44.1 (20200629.0846)
 -->
<!-- Title: G Pages: 1 -->
<svg width="1362pt" height="767pt"
 viewBox="0.00 0.00 1362.00 767.36" xmlns="http://www.w3.org/2000/svg" xmlns:xlink="http://www.w3.org/1999/xlink">
<g id="graph0" class="graph" transform="scale(1 1) rotate(0) translate(4 763.36)">
<title>G</title>
<polygon fill="white" stroke="transparent" points="-4,4 -4,-763.36 1358,-763.36 1358,4 -4,4"/>
<g id="clust1" class="cluster">
<title>cluster82301750</title>
<path fill="bisque" stroke="#8b7d6b" stroke-width="2" d="M115,-70.36C115,-70.36 1054,-70.36 1054,-70.36 1060,-70.36 1066,-76.36 1066,-82.36 1066,-82.36 1066,-630.36 1066,-630.36 1066,-636.36 1060,-642.36 1054,-642.36 1054,-642.36 115,-642.36 115,-642.36 109,-642.36 103,-636.36 103,-630.36 103,-630.36 103,-82.36 103,-82.36 103,-76.36 109,-70.36 115,-70.36"/>
<text text-anchor="start" x="574" y="-628.16" font-family="Helvetica,sans-Serif" font-weight="bold" font-size="14.00">src</text>
</g>
<g id="clust2" class="cluster">
<title>cluster9969856700</title>
<path fill="bisque" stroke="#8b7d6b" stroke-width="2" d="M123,-462.36C123,-462.36 547,-462.36 547,-462.36 553,-462.36 559,-468.36 559,-474.36 559,-474.36 559,-599.36 559,-599.36 559,-605.36 553,-611.36 547,-611.36 547,-611.36 123,-611.36 123,-611.36 117,-611.36 111,-605.36 111,-599.36 111,-599.36 111,-474.36 111,-474.36 111,-468.36 117,-462.36 123,-462.36"/>
<text text-anchor="start" x="322.5" y="-597.16" font-family="Helvetica,sans-Serif" font-weight="bold" font-size="14.00">test</text>
</g>
<!-- deps.ts -->
<g id="node1" class="node">
<title>deps.ts</title>
<path fill="#79cdcd" stroke="#79cdcd" d="M1015,-732.36C1015,-732.36 979,-732.36 979,-732.36 973,-732.36 967,-726.36 967,-720.36 967,-720.36 967,-708.36 967,-708.36 967,-702.36 973,-696.36 979,-696.36 979,-696.36 1015,-696.36 1015,-696.36 1021,-696.36 1027,-702.36 1027,-708.36 1027,-708.36 1027,-720.36 1027,-720.36 1027,-726.36 1021,-732.36 1015,-732.36"/>
<text text-anchor="middle" x="997" y="-710.66" font-family="Helvetica,sans-Serif" font-size="14.00">deps.ts</text>
</g>
<!-- https://deno.land/x/crayon@2.3.1/mod.ts -->
<g id="node17" class="node">
<title>https://deno.land/x/crayon@2.3.1/mod.ts</title>
<polygon fill="#cdc8b1" stroke="#8b8878" points="1354,-759.36 1098,-759.36 1094,-755.36 1094,-723.36 1350,-723.36 1354,-727.36 1354,-759.36"/>
<polyline fill="none" stroke="#8b8878" points="1350,-755.36 1094,-755.36 "/>
<polyline fill="none" stroke="#8b8878" points="1350,-755.36 1350,-723.36 "/>
<polyline fill="none" stroke="#8b8878" points="1350,-755.36 1354,-759.36 "/>
<text text-anchor="middle" x="1224" y="-737.66" font-family="Helvetica,sans-Serif" font-size="14.00">https://deno.land/x/crayon@2.3.1/mod.ts</text>
</g>
<!-- deps.ts&#45;&gt;https://deno.land/x/crayon@2.3.1/mod.ts -->
<g id="edge45" class="edge">
<title>deps.ts&#45;&gt;https://deno.land/x/crayon@2.3.1/mod.ts</title>
<path fill="none" stroke="#8b8878" stroke-width="1.5" stroke-dasharray="5,2" d="M1027.41,-717.89C1042.69,-719.72 1062.57,-722.11 1083.8,-724.66"/>
<polygon fill="#8b8878" stroke="#8b8878" stroke-width="1.5" points="1083.63,-728.16 1093.98,-725.88 1084.47,-721.21 1083.63,-728.16"/>
</g>
<!-- https://deno.land/x/opine@2.1.1/mod.ts -->
<g id="node18" class="node">
<title>https://deno.land/x/opine@2.1.1/mod.ts</title>
<polygon fill="#cdc8b1" stroke="#8b8878" points="1350.5,-705.36 1101.5,-705.36 1097.5,-701.36 1097.5,-669.36 1346.5,-669.36 1350.5,-673.36 1350.5,-705.36"/>
<polyline fill="none" stroke="#8b8878" points="1346.5,-701.36 1097.5,-701.36 "/>
<polyline fill="none" stroke="#8b8878" points="1346.5,-701.36 1346.5,-669.36 "/>
<polyline fill="none" stroke="#8b8878" points="1346.5,-701.36 1350.5,-705.36 "/>
<text text-anchor="middle" x="1224" y="-683.66" font-family="Helvetica,sans-Serif" font-size="14.00">https://deno.land/x/opine@2.1.1/mod.ts</text>
</g>
<!-- deps.ts&#45;&gt;https://deno.land/x/opine@2.1.1/mod.ts -->
<g id="edge46" class="edge">
<title>deps.ts&#45;&gt;https://deno.land/x/opine@2.1.1/mod.ts</title>
<path fill="none" stroke="#8b8878" stroke-width="1.5" stroke-dasharray="5,2" d="M1027.41,-710.83C1043.5,-708.9 1064.7,-706.35 1087.2,-703.65"/>
<polygon fill="#8b8878" stroke="#8b8878" stroke-width="1.5" points="1087.75,-707.11 1097.27,-702.45 1086.92,-700.16 1087.75,-707.11"/>
</g>
<!-- example.ts -->
<g id="node2" class="node">
<title>example.ts</title>
<path fill="#79cdcd" stroke="#79cdcd" d="M71,-62.36C71,-62.36 12,-62.36 12,-62.36 6,-62.36 0,-56.36 0,-50.36 0,-50.36 0,-38.36 0,-38.36 0,-32.36 6,-26.36 12,-26.36 12,-26.36 71,-26.36 71,-26.36 77,-26.36 83,-32.36 83,-38.36 83,-38.36 83,-50.36 83,-50.36 83,-56.36 77,-62.36 71,-62.36"/>
<text text-anchor="middle" x="41.5" y="-40.66" font-family="Helvetica,sans-Serif" font-size="14.00">example.ts</text>
</g>
<!-- example.ts&#45;&gt;deps.ts -->
<g id="edge3" class="edge">
<title>example.ts&#45;&gt;deps.ts</title>
<path fill="none" stroke="#528b8b" stroke-width="2" d="M42.22,-62.47C41.22,-149.19 40.67,-521.68 103,-615.36 173.08,-720.68 225.99,-752.36 352.5,-752.36 352.5,-752.36 352.5,-752.36 515,-752.36 679.51,-752.36 874.69,-729.99 956.67,-719.58"/>
<polygon fill="#528b8b" stroke="#528b8b" stroke-width="2" points="957.31,-723.03 966.78,-718.28 956.42,-716.08 957.31,-723.03"/>
</g>
<!-- mod.ts -->
<g id="node3" class="node">
<title>mod.ts</title>
<path fill="#79cdcd" stroke="#79cdcd" d="M197,-62.36C197,-62.36 163,-62.36 163,-62.36 157,-62.36 151,-56.36 151,-50.36 151,-50.36 151,-38.36 151,-38.36 151,-32.36 157,-26.36 163,-26.36 163,-26.36 197,-26.36 197,-26.36 203,-26.36 209,-32.36 209,-38.36 209,-38.36 209,-50.36 209,-50.36 209,-56.36 203,-62.36 197,-62.36"/>
<text text-anchor="middle" x="180" y="-40.66" font-family="Helvetica,sans-Serif" font-size="14.00">mod.ts</text>
</g>
<!-- example.ts&#45;&gt;mod.ts -->
<g id="edge1" class="edge">
<title>example.ts&#45;&gt;mod.ts</title>
<path fill="none" stroke="#528b8b" stroke-width="2" d="M83.08,-44.36C101.35,-44.36 122.79,-44.36 140.77,-44.36"/>
<polygon fill="#528b8b" stroke="#528b8b" stroke-width="2" points="140.9,-47.86 150.9,-44.36 140.9,-40.86 140.9,-47.86"/>
</g>
<!-- src/log.ts -->
<g id="node5" class="node">
<title>src/log.ts</title>
<path fill="#79cdcd" stroke="#79cdcd" d="M764,-291.36C764,-291.36 734,-291.36 734,-291.36 728,-291.36 722,-285.36 722,-279.36 722,-279.36 722,-267.36 722,-267.36 722,-261.36 728,-255.36 734,-255.36 734,-255.36 764,-255.36 764,-255.36 770,-255.36 776,-261.36 776,-267.36 776,-267.36 776,-279.36 776,-279.36 776,-285.36 770,-291.36 764,-291.36"/>
<text text-anchor="middle" x="749" y="-269.66" font-family="Helvetica,sans-Serif" font-size="14.00">log.ts</text>
</g>
<!-- example.ts&#45;&gt;src/log.ts -->
<g id="edge2" class="edge">
<title>example.ts&#45;&gt;src/log.ts</title>
<path fill="none" stroke="#528b8b" stroke-width="2" d="M76.21,-26.34C84.72,-22.63 94,-19.28 103,-17.36 245.27,12.95 287.98,0.1 430,-31.36 491.25,-44.93 518.35,-36.3 562,-81.36 596.33,-116.79 566.68,-148.24 598,-186.36 628.27,-223.2 678.49,-247.75 712.4,-261.12"/>
<polygon fill="#528b8b" stroke="#528b8b" stroke-width="2" points="711.33,-264.46 721.92,-264.76 713.83,-257.92 711.33,-264.46"/>
</g>
<!-- src/connection.ts -->
<g id="node4" class="node">
<title>src/connection.ts</title>
<path fill="#79cdcd" stroke="#79cdcd" d="M550,-254.36C550,-254.36 478,-254.36 478,-254.36 472,-254.36 466,-248.36 466,-242.36 466,-242.36 466,-230.36 466,-230.36 466,-224.36 472,-218.36 478,-218.36 478,-218.36 550,-218.36 550,-218.36 556,-218.36 562,-224.36 562,-230.36 562,-230.36 562,-242.36 562,-242.36 562,-248.36 556,-254.36 550,-254.36"/>
<text text-anchor="middle" x="514" y="-232.66" font-family="Helvetica,sans-Serif" font-size="14.00">connection.ts</text>
</g>
<!-- mod.ts&#45;&gt;src/connection.ts -->
<g id="edge6" class="edge">
<title>mod.ts&#45;&gt;src/connection.ts</title>
<path fill="none" stroke="#528b8b" stroke-width="2" d="M209.12,-49.04C257.86,-58.22 359.58,-82.25 430,-132.36 458.91,-152.93 483.01,-186.26 497.66,-209.63"/>
<polygon fill="#528b8b" stroke="#528b8b" stroke-width="2" points="494.79,-211.64 502.99,-218.36 500.77,-208 494.79,-211.64"/>
</g>
<!-- src/transport&#45;http&#45;client.ts -->
<g id="node6" class="node">
<title>src/transport&#45;http&#45;client.ts</title>
<path fill="#79cdcd" stroke="#79cdcd" d="M415,-177.36C415,-177.36 292,-177.36 292,-177.36 286,-177.36 280,-171.36 280,-165.36 280,-165.36 280,-153.36 280,-153.36 280,-147.36 286,-141.36 292,-141.36 292,-141.36 415,-141.36 415,-141.36 421,-141.36 427,-147.36 427,-153.36 427,-153.36 427,-165.36 427,-165.36 427,-171.36 421,-177.36 415,-177.36"/>
<text text-anchor="middle" x="353.5" y="-155.66" font-family="Helvetica,sans-Serif" font-size="14.00">transport&#45;http&#45;client.ts</text>
</g>
<!-- mod.ts&#45;&gt;src/transport&#45;http&#45;client.ts -->
<g id="edge7" class="edge">
<title>mod.ts&#45;&gt;src/transport&#45;http&#45;client.ts</title>
<path fill="none" stroke="#528b8b" stroke-width="2" d="M208.17,-62.58C237.53,-82.26 284.42,-113.71 316.75,-135.39"/>
<polygon fill="#528b8b" stroke="#528b8b" stroke-width="2" points="315.2,-138.56 325.45,-141.22 319.1,-132.75 315.2,-138.56"/>
</g>
<!-- src/transport&#45;http&#45;server.ts -->
<g id="node7" class="node">
<title>src/transport&#45;http&#45;server.ts</title>
<path fill="#79cdcd" stroke="#79cdcd" d="M418,-373.36C418,-373.36 289,-373.36 289,-373.36 283,-373.36 277,-367.36 277,-361.36 277,-361.36 277,-349.36 277,-349.36 277,-343.36 283,-337.36 289,-337.36 289,-337.36 418,-337.36 418,-337.36 424,-337.36 430,-343.36 430,-349.36 430,-349.36 430,-361.36 430,-361.36 430,-367.36 424,-373.36 418,-373.36"/>
<text text-anchor="middle" x="353.5" y="-351.66" font-family="Helvetica,sans-Serif" font-size="14.00">transport&#45;http&#45;server.ts</text>
</g>
<!-- mod.ts&#45;&gt;src/transport&#45;http&#45;server.ts -->
<g id="edge8" class="edge">
<title>mod.ts&#45;&gt;src/transport&#45;http&#45;server.ts</title>
<path fill="none" stroke="#528b8b" stroke-width="2" d="M187.03,-62.49C200.27,-101.07 234.13,-193.47 277,-263.36 291.71,-287.34 312.13,-311.83 328.02,-329.51"/>
<polygon fill="#528b8b" stroke="#528b8b" stroke-width="2" points="325.64,-332.1 334.97,-337.13 330.82,-327.38 325.64,-332.1"/>
</g>
<!-- src/transport&#45;local.ts -->
<g id="node8" class="node">
<title>src/transport&#45;local.ts</title>
<path fill="#79cdcd" stroke="#79cdcd" d="M399.5,-254.36C399.5,-254.36 307.5,-254.36 307.5,-254.36 301.5,-254.36 295.5,-248.36 295.5,-242.36 295.5,-242.36 295.5,-230.36 295.5,-230.36 295.5,-224.36 301.5,-218.36 307.5,-218.36 307.5,-218.36 399.5,-218.36 399.5,-218.36 405.5,-218.36 411.5,-224.36 411.5,-230.36 411.5,-230.36 411.5,-242.36 411.5,-242.36 411.5,-248.36 405.5,-254.36 399.5,-254.36"/>
<text text-anchor="middle" x="353.5" y="-232.66" font-family="Helvetica,sans-Serif" font-size="14.00">transport&#45;local.ts</text>
</g>
<!-- mod.ts&#45;&gt;src/transport&#45;local.ts -->
<g id="edge9" class="edge">
<title>mod.ts&#45;&gt;src/transport&#45;local.ts</title>
<path fill="none" stroke="#528b8b" stroke-width="2" d="M190.28,-62.59C205.52,-91.33 238.1,-147.83 277,-186.36 286.88,-196.14 298.95,-205.14 310.51,-212.72"/>
<polygon fill="#528b8b" stroke="#528b8b" stroke-width="2" points="308.89,-215.83 319.21,-218.23 312.63,-209.92 308.89,-215.83"/>
</g>
<!-- src/types&#45;envelope.ts -->
<g id="node9" class="node">
<title>src/types&#45;envelope.ts</title>
<path fill="#79cdcd" stroke="#79cdcd" d="M1046,-159.36C1046,-159.36 948,-159.36 948,-159.36 942,-159.36 936,-153.36 936,-147.36 936,-147.36 936,-135.36 936,-135.36 936,-129.36 942,-123.36 948,-123.36 948,-123.36 1046,-123.36 1046,-123.36 1052,-123.36 1058,-129.36 1058,-135.36 1058,-135.36 1058,-147.36 1058,-147.36 1058,-153.36 1052,-159.36 1046,-159.36"/>
<text text-anchor="middle" x="997" y="-137.66" font-family="Helvetica,sans-Serif" font-size="14.00">types&#45;envelope.ts</text>
</g>
<!-- mod.ts&#45;&gt;src/types&#45;envelope.ts -->
<g id="edge4" class="edge">
<title>mod.ts&#45;&gt;src/types&#45;envelope.ts</title>
<path fill="none" stroke="#528b8b" stroke-width="2" d="M209.38,-32.22C228.17,-24.85 253.59,-16.16 277,-12.36 344.12,-1.47 362,-11.84 430,-12.36 488.67,-12.8 503.86,-6.47 562,-14.36 715.82,-35.24 752.66,-53.49 900,-102.36 914.99,-107.33 930.98,-113.48 945.53,-119.41"/>
<polygon fill="#528b8b" stroke="#528b8b" stroke-width="2" points="944.28,-122.68 954.86,-123.26 946.95,-116.21 944.28,-122.68"/>
</g>
<!-- src/types.ts -->
<g id="node10" class="node">
<title>src/types.ts</title>
<path fill="#79cdcd" stroke="#79cdcd" d="M768.5,-177.36C768.5,-177.36 729.5,-177.36 729.5,-177.36 723.5,-177.36 717.5,-171.36 717.5,-165.36 717.5,-165.36 717.5,-153.36 717.5,-153.36 717.5,-147.36 723.5,-141.36 729.5,-141.36 729.5,-141.36 768.5,-141.36 768.5,-141.36 774.5,-141.36 780.5,-147.36 780.5,-153.36 780.5,-153.36 780.5,-165.36 780.5,-165.36 780.5,-171.36 774.5,-177.36 768.5,-177.36"/>
<text text-anchor="middle" x="749" y="-155.66" font-family="Helvetica,sans-Serif" font-size="14.00">types.ts</text>
</g>
<!-- mod.ts&#45;&gt;src/types.ts -->
<g id="edge5" class="edge">
<title>mod.ts&#45;&gt;src/types.ts</title>
<path fill="none" stroke="#528b8b" stroke-width="2" d="M209.05,-38.01C273.21,-24.7 434.97,1.84 562,-36.36 625.67,-55.51 687.62,-104.32 721.5,-134.37"/>
<polygon fill="#528b8b" stroke="#528b8b" stroke-width="2" points="719.33,-137.12 729.1,-141.22 724.01,-131.92 719.33,-137.12"/>
</g>
<!-- src/util.ts -->
<g id="node11" class="node">
<title>src/util.ts</title>
<path fill="#79cdcd" stroke="#79cdcd" d="M764,-345.36C764,-345.36 734,-345.36 734,-345.36 728,-345.36 722,-339.36 722,-333.36 722,-333.36 722,-321.36 722,-321.36 722,-315.36 728,-309.36 734,-309.36 734,-309.36 764,-309.36 764,-309.36 770,-309.36 776,-315.36 776,-321.36 776,-321.36 776,-333.36 776,-333.36 776,-339.36 770,-345.36 764,-345.36"/>
<text text-anchor="middle" x="749" y="-323.66" font-family="Helvetica,sans-Serif" font-size="14.00">util.ts</text>
</g>
<!-- mod.ts&#45;&gt;src/util.ts -->
<g id="edge10" class="edge">
<title>mod.ts&#45;&gt;src/util.ts</title>
<path fill="none" stroke="#528b8b" stroke-width="2" d="M209.26,-40.19C257.36,-34.46 357,-28.53 430,-64.36 508.24,-102.75 515.88,-135.41 562,-209.36 585.02,-246.26 564.35,-272.8 598,-300.36 629.87,-326.45 678.44,-330.8 711.62,-330.19"/>
<polygon fill="#528b8b" stroke="#528b8b" stroke-width="2" points="711.93,-333.68 721.81,-329.84 711.69,-326.69 711.93,-333.68"/>
</g>
<!-- src/connection.ts&#45;&gt;src/log.ts -->
<g id="edge15" class="edge">
<title>src/connection.ts&#45;&gt;src/log.ts</title>
<path fill="none" stroke="#528b8b" stroke-width="2" d="M562.15,-243.85C606.43,-250.88 671.73,-261.25 711.98,-267.64"/>
<polygon fill="#528b8b" stroke="#528b8b" stroke-width="2" points="711.46,-271.1 721.89,-269.21 712.56,-264.19 711.46,-271.1"/>
</g>
<!-- src/connection.ts&#45;&gt;src/types&#45;envelope.ts -->
<g id="edge12" class="edge">
<title>src/connection.ts&#45;&gt;src/types&#45;envelope.ts</title>
<path fill="none" stroke="#528b8b" stroke-width="2" d="M562.13,-232.07C650.44,-223.74 837.56,-204.57 900,-186.36 918.79,-180.88 938.53,-172.19 955.19,-163.9"/>
<polygon fill="#528b8b" stroke="#528b8b" stroke-width="2" points="956.78,-167.02 964.1,-159.36 953.6,-160.78 956.78,-167.02"/>
</g>
<!-- src/connection.ts&#45;&gt;src/types.ts -->
<g id="edge11" class="edge">
<title>src/connection.ts&#45;&gt;src/types.ts</title>
<path fill="none" stroke="#528b8b" stroke-width="2" d="M562.15,-220.78C604.9,-206.65 667.24,-186.05 707.71,-172.67"/>
<polygon fill="#528b8b" stroke="#528b8b" stroke-width="2" points="708.86,-175.98 717.25,-169.52 706.66,-169.33 708.86,-175.98"/>
</g>
<!-- src/connection.ts&#45;&gt;src/util.ts -->
<g id="edge14" class="edge">
<title>src/connection.ts&#45;&gt;src/util.ts</title>
<path fill="none" stroke="#528b8b" stroke-width="2" d="M533.07,-254.5C548.84,-269.22 573.05,-289.29 598,-300.36 634.73,-316.65 680.65,-323.11 711.95,-325.68"/>
<polygon fill="#528b8b" stroke="#528b8b" stroke-width="2" points="711.74,-329.17 721.97,-326.41 712.25,-322.19 711.74,-329.17"/>
</g>
<!-- src/watchable.ts -->
<g id="node12" class="node">
<title>src/watchable.ts</title>
<path fill="#79cdcd" stroke="#79cdcd" d="M1031,-254.36C1031,-254.36 963,-254.36 963,-254.36 957,-254.36 951,-248.36 951,-242.36 951,-242.36 951,-230.36 951,-230.36 951,-224.36 957,-218.36 963,-218.36 963,-218.36 1031,-218.36 1031,-218.36 1037,-218.36 1043,-224.36 1043,-230.36 1043,-230.36 1043,-242.36 1043,-242.36 1043,-248.36 1037,-254.36 1031,-254.36"/>
<text text-anchor="middle" x="997" y="-232.66" font-family="Helvetica,sans-Serif" font-size="14.00">watchable.ts</text>
</g>
<!-- src/connection.ts&#45;&gt;src/watchable.ts -->
<g id="edge13" class="edge">
<title>src/connection.ts&#45;&gt;src/watchable.ts</title>
<path fill="none" stroke="#528b8b" stroke-width="2" d="M562.44,-236.36C651.96,-236.36 845.38,-236.36 940.66,-236.36"/>
<polygon fill="#528b8b" stroke="#528b8b" stroke-width="2" points="940.68,-239.86 950.68,-236.36 940.68,-232.86 940.68,-239.86"/>
</g>
<!-- src/log.ts&#45;&gt;deps.ts -->
<g id="edge16" class="edge">
<title>src/log.ts&#45;&gt;deps.ts</title>
<path fill="none" stroke="#528b8b" stroke-width="2" d="M776.09,-269.56C809.97,-266.27 868.5,-266.42 900,-300.36 952.59,-357.02 904.95,-575.56 936,-646.36 943,-662.33 955.18,-677.2 966.73,-688.95"/>
<polygon fill="#528b8b" stroke="#528b8b" stroke-width="2" points="964.57,-691.73 974.18,-696.19 969.45,-686.71 964.57,-691.73"/>
</g>
<!-- src/transport&#45;http&#45;client.ts&#45;&gt;src/connection.ts -->
<g id="edge29" class="edge">
<title>src/transport&#45;http&#45;client.ts&#45;&gt;src/connection.ts</title>
<path fill="none" stroke="#528b8b" stroke-width="2" d="M391.66,-177.41C414.04,-188.28 442.72,-202.22 466.58,-213.81"/>
<polygon fill="#528b8b" stroke="#528b8b" stroke-width="2" points="465.27,-217.06 475.8,-218.29 468.33,-210.77 465.27,-217.06"/>
</g>
<!-- src/transport&#45;http&#45;client.ts&#45;&gt;src/log.ts -->
<g id="edge30" class="edge">
<title>src/transport&#45;http&#45;client.ts&#45;&gt;src/log.ts</title>
<path fill="none" stroke="#528b8b" stroke-width="2" d="M387.83,-177.45C401.81,-186 417.64,-197.04 430,-209.36 450.43,-229.72 440.81,-249.3 466,-263.36 486.9,-275.03 640.29,-274.71 711.66,-273.9"/>
<polygon fill="#528b8b" stroke="#528b8b" stroke-width="2" points="712.02,-277.4 721.97,-273.78 711.93,-270.4 712.02,-277.4"/>
</g>
<!-- src/transport&#45;http&#45;client.ts&#45;&gt;src/types&#45;envelope.ts -->
<g id="edge26" class="edge">
<title>src/transport&#45;http&#45;client.ts&#45;&gt;src/types&#45;envelope.ts</title>
<path fill="none" stroke="#528b8b" stroke-width="2" d="M427.07,-143.5C475.26,-133.79 540.08,-122.32 598,-117.36 731.73,-105.91 766.78,-100.96 900,-117.36 908.55,-118.41 917.43,-119.97 926.19,-121.8"/>
<polygon fill="#528b8b" stroke="#528b8b" stroke-width="2" points="925.48,-125.23 936,-123.97 926.99,-118.39 925.48,-125.23"/>
</g>
<!-- src/transport&#45;http&#45;client.ts&#45;&gt;src/types.ts -->
<g id="edge25" class="edge">
<title>src/transport&#45;http&#45;client.ts&#45;&gt;src/types.ts</title>
<path fill="none" stroke="#528b8b" stroke-width="2" d="M427.06,-155.63C440.02,-155.1 453.41,-154.64 466,-154.36 551.77,-152.44 652.23,-155.49 707.1,-157.6"/>
<polygon fill="#528b8b" stroke="#528b8b" stroke-width="2" points="706.99,-161.1 717.12,-158 707.27,-154.11 706.99,-161.1"/>
</g>
<!-- src/transport&#45;http&#45;client.ts&#45;&gt;src/util.ts -->
<g id="edge28" class="edge">
<title>src/transport&#45;http&#45;client.ts&#45;&gt;src/util.ts</title>
<path fill="none" stroke="#528b8b" stroke-width="2" d="M389.01,-177.51C402.86,-185.93 418.29,-196.85 430,-209.36 452.04,-232.9 439.95,-253.35 466,-272.36 540.35,-326.61 654.02,-331.23 711.71,-329.58"/>
<polygon fill="#528b8b" stroke="#528b8b" stroke-width="2" points="711.94,-333.07 721.8,-329.21 711.68,-326.08 711.94,-333.07"/>
</g>
<!-- src/transport&#45;http&#45;client.ts&#45;&gt;src/watchable.ts -->
<g id="edge27" class="edge">
<title>src/transport&#45;http&#45;client.ts&#45;&gt;src/watchable.ts</title>
<path fill="none" stroke="#528b8b" stroke-width="2" d="M427.15,-168.08C556.75,-183.64 825.05,-215.84 940.83,-229.74"/>
<polygon fill="#528b8b" stroke="#528b8b" stroke-width="2" points="940.54,-233.23 950.89,-230.94 941.37,-226.28 940.54,-233.23"/>
</g>
<!-- src/transport&#45;http&#45;server.ts&#45;&gt;deps.ts -->
<g id="edge37" class="edge">
<title>src/transport&#45;http&#45;server.ts&#45;&gt;deps.ts</title>
<path fill="none" stroke="#528b8b" stroke-width="2" d="M371.52,-373.61C388.79,-393.13 415.06,-425.7 430,-458.36 459.78,-523.46 424.07,-557.33 466,-615.36 506.17,-670.96 532.39,-675.33 598,-695.36 724.44,-733.96 883.89,-725.52 956.61,-718.76"/>
<polygon fill="#528b8b" stroke="#528b8b" stroke-width="2" points="957.08,-722.23 966.7,-717.78 956.41,-715.26 957.08,-722.23"/>
</g>
<!-- src/transport&#45;http&#45;server.ts&#45;&gt;src/connection.ts -->
<g id="edge35" class="edge">
<title>src/transport&#45;http&#45;server.ts&#45;&gt;src/connection.ts</title>
<path fill="none" stroke="#528b8b" stroke-width="2" d="M378.57,-337.29C405.88,-316.78 450.55,-283.25 480.83,-260.51"/>
<polygon fill="#528b8b" stroke="#528b8b" stroke-width="2" points="483.07,-263.21 488.96,-254.41 478.86,-257.61 483.07,-263.21"/>
</g>
<!-- src/transport&#45;http&#45;server.ts&#45;&gt;src/log.ts -->
<g id="edge36" class="edge">
<title>src/transport&#45;http&#45;server.ts&#45;&gt;src/log.ts</title>
<path fill="none" stroke="#528b8b" stroke-width="2" d="M430.27,-337.34C478.23,-326.16 541.62,-311.8 598,-300.36 636.74,-292.5 681.34,-284.62 711.78,-279.42"/>
<polygon fill="#528b8b" stroke="#528b8b" stroke-width="2" points="712.65,-282.82 721.92,-277.69 711.47,-275.92 712.65,-282.82"/>
</g>
<!-- src/transport&#45;http&#45;server.ts&#45;&gt;src/types&#45;envelope.ts -->
<g id="edge32" class="edge">
<title>src/transport&#45;http&#45;server.ts&#45;&gt;src/types&#45;envelope.ts</title>
<path fill="none" stroke="#528b8b" stroke-width="2" d="M430.03,-361.51C442.06,-362.28 454.36,-362.94 466,-363.36 602.76,-368.26 894.87,-358.48 900,-354.36 951.76,-312.76 905.15,-268.16 936,-209.36 944.22,-193.69 956.79,-178.67 968.3,-166.76"/>
<polygon fill="#528b8b" stroke="#528b8b" stroke-width="2" points="971.06,-168.94 975.65,-159.4 966.11,-164 971.06,-168.94"/>
</g>
<!-- src/transport&#45;http&#45;server.ts&#45;&gt;src/types.ts -->
<g id="edge31" class="edge">
<title>src/transport&#45;http&#45;server.ts&#45;&gt;src/types.ts</title>
<path fill="none" stroke="#528b8b" stroke-width="2" d="M370.38,-337.11C386.06,-318.85 410.44,-289.76 430,-263.36 447.17,-240.18 442.02,-225.38 466,-209.36 502.16,-185.19 519.43,-199.3 562,-190.36 578.04,-186.99 581.89,-185.38 598,-182.36 634.83,-175.45 677.04,-169.12 707.28,-164.86"/>
<polygon fill="#528b8b" stroke="#528b8b" stroke-width="2" points="708.03,-168.29 717.45,-163.44 707.06,-161.35 708.03,-168.29"/>
</g>
<!-- src/transport&#45;http&#45;server.ts&#45;&gt;src/util.ts -->
<g id="edge33" class="edge">
<title>src/transport&#45;http&#45;server.ts&#45;&gt;src/util.ts</title>
<path fill="none" stroke="#528b8b" stroke-width="2" d="M430.07,-357.67C442.09,-357.95 454.38,-358.2 466,-358.36 508.66,-358.93 519.48,-361.88 562,-358.36 614.64,-354 674.8,-342.83 712.1,-335.15"/>
<polygon fill="#528b8b" stroke="#528b8b" stroke-width="2" points="712.91,-338.56 721.99,-333.09 711.48,-331.71 712.91,-338.56"/>
</g>
<!-- src/transport&#45;http&#45;server.ts&#45;&gt;src/watchable.ts -->
<g id="edge34" class="edge">
<title>src/transport&#45;http&#45;server.ts&#45;&gt;src/watchable.ts</title>
<path fill="none" stroke="#528b8b" stroke-width="2" d="M371.33,-373.52C391.52,-393.85 427.52,-425.61 466,-438.36 506.5,-451.78 519.51,-442.28 562,-438.36 714.16,-424.3 771.79,-458.5 900,-375.36 941.7,-348.32 970.26,-296.16 984.8,-264"/>
<polygon fill="#528b8b" stroke="#528b8b" stroke-width="2" points="988.07,-265.27 988.87,-254.71 981.65,-262.47 988.07,-265.27"/>
</g>
<!-- src/transport&#45;local.ts&#45;&gt;src/connection.ts -->
<g id="edge41" class="edge">
<title>src/transport&#45;local.ts&#45;&gt;src/connection.ts</title>
<path fill="none" stroke="#528b8b" stroke-width="2" d="M411.72,-236.36C425.99,-236.36 441.3,-236.36 455.58,-236.36"/>
<polygon fill="#528b8b" stroke="#528b8b" stroke-width="2" points="455.77,-239.86 465.77,-236.36 455.77,-232.86 455.77,-239.86"/>
</g>
<!-- src/transport&#45;local.ts&#45;&gt;src/log.ts -->
<g id="edge42" class="edge">
<title>src/transport&#45;local.ts&#45;&gt;src/log.ts</title>
<path fill="none" stroke="#528b8b" stroke-width="2" d="M392.23,-254.46C413.38,-263.6 440.56,-273.73 466,-278.36 552.94,-294.19 657.45,-285.22 711.54,-278.54"/>
<polygon fill="#528b8b" stroke="#528b8b" stroke-width="2" points="712.2,-281.99 721.67,-277.25 711.31,-275.04 712.2,-281.99"/>
</g>
<!-- src/transport&#45;local.ts&#45;&gt;src/types&#45;envelope.ts -->
<g id="edge39" class="edge">
<title>src/transport&#45;local.ts&#45;&gt;src/types&#45;envelope.ts</title>
<path fill="none" stroke="#528b8b" stroke-width="2" d="M382,-218.22C404.02,-204.28 436.08,-185.28 466,-172.36 643.83,-95.56 706.51,-123.31 900,-132.36 908.35,-132.75 917.1,-133.33 925.77,-134.01"/>
<polygon fill="#528b8b" stroke="#528b8b" stroke-width="2" points="925.63,-137.51 935.89,-134.85 926.21,-130.54 925.63,-137.51"/>
</g>
<!-- src/transport&#45;local.ts&#45;&gt;src/types.ts -->
<g id="edge38" class="edge">
<title>src/transport&#45;local.ts&#45;&gt;src/types.ts</title>
<path fill="none" stroke="#528b8b" stroke-width="2" d="M395.33,-218.32C416.11,-209.82 442,-200.28 466,-194.36 550.15,-173.6 651.6,-164.85 706.99,-161.4"/>
<polygon fill="#528b8b" stroke="#528b8b" stroke-width="2" points="707.33,-164.89 717.1,-160.8 706.91,-157.9 707.33,-164.89"/>
</g>
<!-- src/transport&#45;local.ts&#45;&gt;src/watchable.ts -->
<g id="edge40" class="edge">
<title>src/transport&#45;local.ts&#45;&gt;src/watchable.ts</title>
<path fill="none" stroke="#528b8b" stroke-width="2" d="M380.66,-254.49C423.63,-282.98 512.89,-336.77 598,-354.36 729.44,-381.53 778.79,-412.01 900,-354.36 939.21,-335.71 967.65,-292.34 982.99,-263.7"/>
<polygon fill="#528b8b" stroke="#528b8b" stroke-width="2" points="986.2,-265.1 987.68,-254.61 979.98,-261.89 986.2,-265.1"/>
</g>
<!-- src/types.ts&#45;&gt;src/types&#45;envelope.ts -->
<g id="edge43" class="edge">
<title>src/types.ts&#45;&gt;src/types&#45;envelope.ts</title>
<path fill="none" stroke="#528b8b" stroke-width="2" d="M780.66,-157.12C816.73,-154.48 877.78,-150.01 925.68,-146.5"/>
<polygon fill="#528b8b" stroke="#528b8b" stroke-width="2" points="925.97,-149.99 935.69,-145.77 925.46,-143.01 925.97,-149.99"/>
</g>
<!-- src/types.ts&#45;&gt;src/watchable.ts -->
<g id="edge44" class="edge">
<title>src/types.ts&#45;&gt;src/watchable.ts</title>
<path fill="none" stroke="#528b8b" stroke-width="2" d="M780.71,-163.8C811.42,-168.74 859.74,-177.83 900,-191.36 917.79,-197.34 936.65,-205.7 952.89,-213.59"/>
<polygon fill="#528b8b" stroke="#528b8b" stroke-width="2" points="951.61,-216.86 962.12,-218.16 954.71,-210.59 951.61,-216.86"/>
</g>
<!-- src/test/asserts.ts -->
<g id="node13" class="node">
<title>src/test/asserts.ts</title>
<path fill="#79cdcd" stroke="#79cdcd" d="M539,-561.36C539,-561.36 489,-561.36 489,-561.36 483,-561.36 477,-555.36 477,-549.36 477,-549.36 477,-537.36 477,-537.36 477,-531.36 483,-525.36 489,-525.36 489,-525.36 539,-525.36 539,-525.36 545,-525.36 551,-531.36 551,-537.36 551,-537.36 551,-549.36 551,-549.36 551,-555.36 545,-561.36 539,-561.36"/>
<text text-anchor="middle" x="514" y="-539.66" font-family="Helvetica,sans-Serif" font-size="14.00">asserts.ts</text>
</g>
<!-- https://deno.land/std@0.121.0/testing/asserts.ts -->
<g id="node19" class="node">
<title>https://deno.land/std@0.121.0/testing/asserts.ts</title>
<polygon fill="#cdc8b1" stroke="#8b8878" points="900,-686.36 602,-686.36 598,-682.36 598,-650.36 896,-650.36 900,-654.36 900,-686.36"/>
<polyline fill="none" stroke="#8b8878" points="896,-682.36 598,-682.36 "/>
<polyline fill="none" stroke="#8b8878" points="896,-682.36 896,-650.36 "/>
<polyline fill="none" stroke="#8b8878" points="896,-682.36 900,-686.36 "/>
<text text-anchor="middle" x="749" y="-664.66" font-family="Helvetica,sans-Serif" font-size="14.00">https://deno.land/std@0.121.0/testing/asserts.ts</text>
</g>
<!-- src/test/asserts.ts&#45;&gt;https://deno.land/std@0.121.0/testing/asserts.ts -->
<g id="edge47" class="edge">
<title>src/test/asserts.ts&#45;&gt;https://deno.land/std@0.121.0/testing/asserts.ts</title>
<path fill="none" stroke="#8b8878" stroke-width="1.5" stroke-dasharray="5,2" d="M523.97,-561.37C535.93,-583.47 559.3,-620.61 596.64,-644.96"/>
<polygon fill="#8b8878" stroke="#8b8878" stroke-width="1.5" points="594.99,-648.05 605.36,-650.25 598.63,-642.07 594.99,-648.05"/>
</g>
<!-- src/test/connection.test.ts -->
<g id="node14" class="node">
<title>src/test/connection.test.ts</title>
<path fill="#79cdcd" stroke="#79cdcd" d="M229,-506.36C229,-506.36 131,-506.36 131,-506.36 125,-506.36 119,-500.36 119,-494.36 119,-494.36 119,-482.36 119,-482.36 119,-476.36 125,-470.36 131,-470.36 131,-470.36 229,-470.36 229,-470.36 235,-470.36 241,-476.36 241,-482.36 241,-482.36 241,-494.36 241,-494.36 241,-500.36 235,-506.36 229,-506.36"/>
<text text-anchor="middle" x="180" y="-484.66" font-family="Helvetica,sans-Serif" font-size="14.00">connection.test.ts</text>
</g>
<!-- src/test/connection.test.ts&#45;&gt;src/transport&#45;local.ts -->
<g id="edge19" class="edge">
<title>src/test/connection.test.ts&#45;&gt;src/transport&#45;local.ts</title>
<path fill="none" stroke="#528b8b" stroke-width="2" d="M190.82,-470.06C207.34,-439.76 242.29,-377.61 277,-328.36 293.41,-305.07 314.04,-280.18 329.59,-262.17"/>
<polygon fill="#528b8b" stroke="#528b8b" stroke-width="2" points="332.42,-264.25 336.35,-254.41 327.14,-259.65 332.42,-264.25"/>
</g>
<!-- src/test/connection.test.ts&#45;&gt;src/types.ts -->
<g id="edge18" class="edge">
<title>src/test/connection.test.ts&#45;&gt;src/types.ts</title>
<path fill="none" stroke="#528b8b" stroke-width="2" d="M183.06,-469.96C190.94,-403.11 221.61,-174.79 277,-132.36 406.57,-33.1 619.82,-104.74 707.96,-141.35"/>
<polygon fill="#528b8b" stroke="#528b8b" stroke-width="2" points="706.76,-144.64 717.34,-145.31 709.49,-138.2 706.76,-144.64"/>
</g>
<!-- src/test/connection.test.ts&#45;&gt;src/util.ts -->
<g id="edge20" class="edge">
<title>src/test/connection.test.ts&#45;&gt;src/util.ts</title>
<path fill="none" stroke="#528b8b" stroke-width="2" d="M241.14,-471.28C359.11,-437.78 617.6,-364.38 712.31,-337.49"/>
<polygon fill="#528b8b" stroke="#528b8b" stroke-width="2" points="713.33,-340.84 722,-334.74 711.42,-334.11 713.33,-340.84"/>
</g>
<!-- src/test/connection.test.ts&#45;&gt;src/test/asserts.ts -->
<g id="edge17" class="edge">
<title>src/test/connection.test.ts&#45;&gt;src/test/asserts.ts</title>
<path fill="none" stroke="#528b8b" stroke-width="2" d="M239.54,-506.39C251.83,-509.73 264.77,-512.93 277,-515.36 312.22,-522.36 408.64,-532.78 466.76,-538.74"/>
<polygon fill="#528b8b" stroke="#528b8b" stroke-width="2" points="466.49,-542.23 476.79,-539.76 467.2,-535.27 466.49,-542.23"/>
</g>
<!-- src/test/event&#45;log.ts -->
<g id="node15" class="node">
<title>src/test/event&#45;log.ts</title>
<path fill="#79cdcd" stroke="#79cdcd" d="M384.5,-580.36C384.5,-580.36 322.5,-580.36 322.5,-580.36 316.5,-580.36 310.5,-574.36 310.5,-568.36 310.5,-568.36 310.5,-556.36 310.5,-556.36 310.5,-550.36 316.5,-544.36 322.5,-544.36 322.5,-544.36 384.5,-544.36 384.5,-544.36 390.5,-544.36 396.5,-550.36 396.5,-556.36 396.5,-556.36 396.5,-568.36 396.5,-568.36 396.5,-574.36 390.5,-580.36 384.5,-580.36"/>
<text text-anchor="middle" x="353.5" y="-558.66" font-family="Helvetica,sans-Serif" font-size="14.00">event&#45;log.ts</text>
</g>
<!-- src/test/connection.test.ts&#45;&gt;src/test/event&#45;log.ts -->
<g id="edge21" class="edge">
<title>src/test/connection.test.ts&#45;&gt;src/test/event&#45;log.ts</title>
<path fill="none" stroke="#528b8b" stroke-width="2" d="M222.06,-506.45C239.05,-513.9 258.95,-522.59 277,-530.36 284.71,-533.68 292.87,-537.16 300.86,-540.57"/>
<polygon fill="#528b8b" stroke="#528b8b" stroke-width="2" points="299.56,-543.82 310.14,-544.5 302.3,-537.37 299.56,-543.82"/>
</g>
<!-- src/test/event&#45;log.ts&#45;&gt;src/test/asserts.ts -->
<g id="edge22" class="edge">
<title>src/test/event&#45;log.ts&#45;&gt;src/test/asserts.ts</title>
<path fill="none" stroke="#528b8b" stroke-width="2" d="M396.56,-557.32C418.17,-554.73 444.56,-551.56 466.75,-548.9"/>
<polygon fill="#528b8b" stroke="#528b8b" stroke-width="2" points="467.42,-552.35 476.94,-547.68 466.59,-545.4 467.42,-552.35"/>
</g>
<!-- src/test/util.test.ts -->
<g id="node16" class="node">
<title>src/test/util.test.ts</title>
<path fill="#79cdcd" stroke="#79cdcd" d="M378.5,-506.36C378.5,-506.36 328.5,-506.36 328.5,-506.36 322.5,-506.36 316.5,-500.36 316.5,-494.36 316.5,-494.36 316.5,-482.36 316.5,-482.36 316.5,-476.36 322.5,-470.36 328.5,-470.36 328.5,-470.36 378.5,-470.36 378.5,-470.36 384.5,-470.36 390.5,-476.36 390.5,-482.36 390.5,-482.36 390.5,-494.36 390.5,-494.36 390.5,-500.36 384.5,-506.36 378.5,-506.36"/>
<text text-anchor="middle" x="353.5" y="-484.66" font-family="Helvetica,sans-Serif" font-size="14.00">util.test.ts</text>
</g>
<!-- src/test/util.test.ts&#45;&gt;src/util.ts -->
<g id="edge24" class="edge">
<title>src/test/util.test.ts&#45;&gt;src/util.ts</title>
<path fill="none" stroke="#528b8b" stroke-width="2" d="M390.52,-478.88C403.12,-475.3 417.29,-470.97 430,-466.36 534.9,-428.33 654.44,-372.58 712.55,-344.65"/>
<polygon fill="#528b8b" stroke="#528b8b" stroke-width="2" points="714.18,-347.75 721.67,-340.25 711.14,-341.44 714.18,-347.75"/>
</g>
<!-- src/test/util.test.ts&#45;&gt;src/test/asserts.ts -->
<g id="edge23" class="edge">
<title>src/test/util.test.ts&#45;&gt;src/test/asserts.ts</title>
<path fill="none" stroke="#528b8b" stroke-width="2" d="M390.86,-500.98C413.52,-508.84 442.86,-519.02 467.11,-527.43"/>
<polygon fill="#528b8b" stroke="#528b8b" stroke-width="2" points="466.21,-530.83 476.81,-530.8 468.51,-524.21 466.21,-530.83"/>
</g>
</g>
</svg>
