<?xml version="1.0" encoding="UTF-8" standalone="no"?>
<!DOCTYPE svg PUBLIC "-//W3C//DTD SVG 1.1//EN"
 "http://www.w3.org/Graphics/SVG/1.1/DTD/svg11.dtd">
<!-- Generated by graphviz version 2.44.1 (20200629.0846)
 -->
<!-- Title: G Pages: 1 -->
<svg width="364pt" height="173pt"
 viewBox="0.00 0.00 364.00 173.00" xmlns="http://www.w3.org/2000/svg" xmlns:xlink="http://www.w3.org/1999/xlink">
<g id="graph0" class="graph" transform="scale(1 1) rotate(0) translate(4 169)">
<title>G</title>
<polygon fill="white" stroke="transparent" points="-4,4 -4,-169 360,-169 360,4 -4,4"/>
<g id="clust1" class="cluster">
<title>cluster2126540648</title>
<path fill="none" stroke="#8b7d6b" stroke-width="2" d="M20,-8C20,-8 336,-8 336,-8 342,-8 348,-14 348,-20 348,-20 348,-145 348,-145 348,-151 342,-157 336,-157 336,-157 20,-157 20,-157 14,-157 8,-151 8,-145 8,-145 8,-20 8,-20 8,-14 14,-8 20,-8"/>
<text text-anchor="start" x="167.5" y="-142.8" font-family="Helvetica,sans-Serif" font-weight="bold" font-size="14.00">src</text>
</g>
<!-- src/scribe.ts -->
<g id="node1" class="node">
<title>src/scribe.ts</title>
<path fill="#79cdcd" stroke="#79cdcd" d="M71,-72C71,-72 28,-72 28,-72 22,-72 16,-66 16,-60 16,-60 16,-48 16,-48 16,-42 22,-36 28,-36 28,-36 71,-36 71,-36 77,-36 83,-42 83,-48 83,-48 83,-60 83,-60 83,-66 77,-72 71,-72"/>
<text text-anchor="middle" x="49.5" y="-50.3" font-family="Helvetica,sans-Serif" font-size="14.00">scribe.ts</text>
</g>
<!-- src/types&#45;envelope.ts -->
<g id="node2" class="node">
<title>src/types&#45;envelope.ts</title>
<path fill="#79cdcd" stroke="#79cdcd" d="M328,-62C328,-62 230,-62 230,-62 224,-62 218,-56 218,-50 218,-50 218,-38 218,-38 218,-32 224,-26 230,-26 230,-26 328,-26 328,-26 334,-26 340,-32 340,-38 340,-38 340,-50 340,-50 340,-56 334,-62 328,-62"/>
<text text-anchor="middle" x="279" y="-40.3" font-family="Helvetica,sans-Serif" font-size="14.00">types&#45;envelope.ts</text>
</g>
<!-- src/scribe.ts&#45;&gt;src/types&#45;envelope.ts -->
<g id="edge2" class="edge">
<title>src/scribe.ts&#45;&gt;src/types&#45;envelope.ts</title>
<path fill="none" stroke="#528b8b" stroke-width="2" d="M83.2,-38.23C94.3,-33.66 106.94,-29.29 119,-27 147.78,-21.53 179.86,-23.46 207.62,-27.62"/>
<polygon fill="#528b8b" stroke="#528b8b" stroke-width="2" points="207.21,-31.1 217.64,-29.24 208.33,-24.19 207.21,-31.1"/>
</g>
<!-- src/types.ts -->
<g id="node3" class="node">
<title>src/types.ts</title>
<path fill="#79cdcd" stroke="#79cdcd" d="M170,-72C170,-72 131,-72 131,-72 125,-72 119,-66 119,-60 119,-60 119,-48 119,-48 119,-42 125,-36 131,-36 131,-36 170,-36 170,-36 176,-36 182,-42 182,-48 182,-48 182,-60 182,-60 182,-66 176,-72 170,-72"/>
<text text-anchor="middle" x="150.5" y="-50.3" font-family="Helvetica,sans-Serif" font-size="14.00">types.ts</text>
</g>
<!-- src/scribe.ts&#45;&gt;src/types.ts -->
<g id="edge1" class="edge">
<title>src/scribe.ts&#45;&gt;src/types.ts</title>
<path fill="none" stroke="#528b8b" stroke-width="2" d="M83.19,-54C91.36,-54 100.22,-54 108.73,-54"/>
<polygon fill="#528b8b" stroke="#528b8b" stroke-width="2" points="108.86,-57.5 118.86,-54 108.86,-50.5 108.86,-57.5"/>
</g>
<!-- src/util.ts -->
<g id="node4" class="node">
<title>src/util.ts</title>
<path fill="#79cdcd" stroke="#79cdcd" d="M165.5,-126C165.5,-126 135.5,-126 135.5,-126 129.5,-126 123.5,-120 123.5,-114 123.5,-114 123.5,-102 123.5,-102 123.5,-96 129.5,-90 135.5,-90 135.5,-90 165.5,-90 165.5,-90 171.5,-90 177.5,-96 177.5,-102 177.5,-102 177.5,-114 177.5,-114 177.5,-120 171.5,-126 165.5,-126"/>
<text text-anchor="middle" x="150.5" y="-104.3" font-family="Helvetica,sans-Serif" font-size="14.00">util.ts</text>
</g>
<!-- src/scribe.ts&#45;&gt;src/util.ts -->
<g id="edge3" class="edge">
<title>src/scribe.ts&#45;&gt;src/util.ts</title>
<path fill="none" stroke="#528b8b" stroke-width="2" d="M83.19,-71.83C93.19,-77.29 104.24,-83.31 114.4,-88.85"/>
<polygon fill="#528b8b" stroke="#528b8b" stroke-width="2" points="112.97,-92.06 123.42,-93.77 116.32,-85.91 112.97,-92.06"/>
</g>
<!-- src/types.ts&#45;&gt;src/types&#45;envelope.ts -->
<g id="edge4" class="edge">
<title>src/types.ts&#45;&gt;src/types&#45;envelope.ts</title>
<path fill="none" stroke="#528b8b" stroke-width="2" d="M182.12,-51.58C189.98,-50.96 198.77,-50.26 207.75,-49.55"/>
<polygon fill="#528b8b" stroke="#528b8b" stroke-width="2" points="208.24,-53.03 217.93,-48.75 207.69,-46.05 208.24,-53.03"/>
</g>
</g>
</svg>
