<?xml version="1.0" encoding="UTF-8" standalone="no"?>
<!DOCTYPE svg PUBLIC "-//W3C//DTD SVG 1.1//EN"
 "http://www.w3.org/Graphics/SVG/1.1/DTD/svg11.dtd">
<!-- Generated by graphviz version 2.44.1 (20200629.0846)
 -->
<!-- Title: G Pages: 1 -->
<svg width="906pt" height="372pt"
 viewBox="0.00 0.00 906.00 372.00" xmlns="http://www.w3.org/2000/svg" xmlns:xlink="http://www.w3.org/1999/xlink">
<g id="graph0" class="graph" transform="scale(1 1) rotate(0) translate(4 368)">
<title>G</title>
<polygon fill="white" stroke="transparent" points="-4,4 -4,-368 902,-368 902,4 -4,4"/>
<g id="clust1" class="cluster">
<title>cluster1870986062</title>
<path fill="bisque" stroke="#8b7d6b" stroke-width="2" d="M232,-86C232,-86 804,-86 804,-86 810,-86 816,-92 816,-98 816,-98 816,-308 816,-308 816,-314 810,-320 804,-320 804,-320 232,-320 232,-320 226,-320 220,-314 220,-308 220,-308 220,-98 220,-98 220,-92 226,-86 232,-86"/>
<text text-anchor="start" x="507.5" y="-305.8" font-family="Helvetica,sans-Serif" font-weight="bold" font-size="14.00">src</text>
</g>
<g id="clust2" class="cluster">
<title>cluster9198452401</title>
<path fill="bisque" stroke="#8b7d6b" stroke-width="2" d="M240,-214C240,-214 556,-214 556,-214 562,-214 568,-220 568,-226 568,-226 568,-277 568,-277 568,-283 562,-289 556,-289 556,-289 240,-289 240,-289 234,-289 228,-283 228,-277 228,-277 228,-226 228,-226 228,-220 234,-214 240,-214"/>
<text text-anchor="start" x="385.5" y="-274.8" font-family="Helvetica,sans-Serif" font-weight="bold" font-size="14.00">test</text>
</g>
<!-- deps.ts -->
<g id="node1" class="node">
<title>deps.ts</title>
<path fill="#79cdcd" stroke="#79cdcd" d="M48,-36C48,-36 12,-36 12,-36 6,-36 0,-30 0,-24 0,-24 0,-12 0,-12 0,-6 6,0 12,0 12,0 48,0 48,0 54,0 60,-6 60,-12 60,-12 60,-24 60,-24 60,-30 54,-36 48,-36"/>
<text text-anchor="middle" x="30" y="-14.3" font-family="Helvetica,sans-Serif" font-size="14.00">deps.ts</text>
</g>
<!-- https://deno.land/x/crayon_chalk_aliases@1.1.0/index.ts -->
<g id="node9" class="node">
<title>https://deno.land/x/crayon_chalk_aliases@1.1.0/index.ts</title>
<polygon fill="#cdc8b1" stroke="#8b8878" points="450,-36 100,-36 96,-32 96,0 446,0 450,-4 450,-36"/>
<polyline fill="none" stroke="#8b8878" points="446,-32 96,-32 "/>
<polyline fill="none" stroke="#8b8878" points="446,-32 446,0 "/>
<polyline fill="none" stroke="#8b8878" points="446,-32 450,-36 "/>
<text text-anchor="middle" x="273" y="-14.3" font-family="Helvetica,sans-Serif" font-size="14.00">https://deno.land/x/crayon_chalk_aliases@1.1.0/index.ts</text>
</g>
<!-- deps.ts&#45;&gt;https://deno.land/x/crayon_chalk_aliases@1.1.0/index.ts -->
<g id="edge11" class="edge">
<title>deps.ts&#45;&gt;https://deno.land/x/crayon_chalk_aliases@1.1.0/index.ts</title>
<path fill="none" stroke="#8b8878" stroke-width="1.5" stroke-dasharray="5,2" d="M60.07,-18C67.6,-18 76.28,-18 85.74,-18"/>
<polygon fill="#8b8878" stroke="#8b8878" stroke-width="1.5" points="85.86,-21.5 95.86,-18 85.86,-14.5 85.86,-21.5"/>
</g>
<!-- mod.ts -->
<g id="node2" class="node">
<title>mod.ts</title>
<path fill="#79cdcd" stroke="#79cdcd" d="M47,-139C47,-139 13,-139 13,-139 7,-139 1,-133 1,-127 1,-127 1,-115 1,-115 1,-109 7,-103 13,-103 13,-103 47,-103 47,-103 53,-103 59,-109 59,-115 59,-115 59,-127 59,-127 59,-133 53,-139 47,-139"/>
<text text-anchor="middle" x="30" y="-117.3" font-family="Helvetica,sans-Serif" font-size="14.00">mod.ts</text>
</g>
<!-- src/scribe.ts -->
<g id="node3" class="node">
<title>src/scribe.ts</title>
<path fill="#79cdcd" stroke="#79cdcd" d="M294.5,-204C294.5,-204 251.5,-204 251.5,-204 245.5,-204 239.5,-198 239.5,-192 239.5,-192 239.5,-180 239.5,-180 239.5,-174 245.5,-168 251.5,-168 251.5,-168 294.5,-168 294.5,-168 300.5,-168 306.5,-174 306.5,-180 306.5,-180 306.5,-192 306.5,-192 306.5,-198 300.5,-204 294.5,-204"/>
<text text-anchor="middle" x="273" y="-182.3" font-family="Helvetica,sans-Serif" font-size="14.00">scribe.ts</text>
</g>
<!-- mod.ts&#45;&gt;src/scribe.ts -->
<g id="edge1" class="edge">
<title>mod.ts&#45;&gt;src/scribe.ts</title>
<path fill="none" stroke="#528b8b" stroke-width="2" d="M59.02,-137.47C70.21,-143.45 83.41,-149.76 96,-154 140.07,-168.84 192.79,-177.27 228.97,-181.71"/>
<polygon fill="#528b8b" stroke="#528b8b" stroke-width="2" points="228.84,-185.21 239.18,-182.91 229.65,-178.26 228.84,-185.21"/>
</g>
<!-- src/types&#45;envelope.ts -->
<g id="node4" class="node">
<title>src/types&#45;envelope.ts</title>
<path fill="#79cdcd" stroke="#79cdcd" d="M796,-130C796,-130 698,-130 698,-130 692,-130 686,-124 686,-118 686,-118 686,-106 686,-106 686,-100 692,-94 698,-94 698,-94 796,-94 796,-94 802,-94 808,-100 808,-106 808,-106 808,-118 808,-118 808,-124 802,-130 796,-130"/>
<text text-anchor="middle" x="747" y="-108.3" font-family="Helvetica,sans-Serif" font-size="14.00">types&#45;envelope.ts</text>
</g>
<!-- mod.ts&#45;&gt;src/types&#45;envelope.ts -->
<g id="edge2" class="edge">
<title>mod.ts&#45;&gt;src/types&#45;envelope.ts</title>
<path fill="none" stroke="#528b8b" stroke-width="2" d="M59.04,-115.06C70.46,-112.84 83.81,-110.49 96,-109 304.49,-83.44 358.55,-69.2 568,-85 603.73,-87.69 643.16,-93.39 675.8,-98.86"/>
<polygon fill="#528b8b" stroke="#528b8b" stroke-width="2" points="675.26,-102.32 685.7,-100.55 676.43,-95.42 675.26,-102.32"/>
</g>
<!-- src/types.ts -->
<g id="node5" class="node">
<title>src/types.ts</title>
<path fill="#79cdcd" stroke="#79cdcd" d="M542.5,-130C542.5,-130 503.5,-130 503.5,-130 497.5,-130 491.5,-124 491.5,-118 491.5,-118 491.5,-106 491.5,-106 491.5,-100 497.5,-94 503.5,-94 503.5,-94 542.5,-94 542.5,-94 548.5,-94 554.5,-100 554.5,-106 554.5,-106 554.5,-118 554.5,-118 554.5,-124 548.5,-130 542.5,-130"/>
<text text-anchor="middle" x="523" y="-108.3" font-family="Helvetica,sans-Serif" font-size="14.00">types.ts</text>
</g>
<!-- mod.ts&#45;&gt;src/types.ts -->
<g id="edge3" class="edge">
<title>mod.ts&#45;&gt;src/types.ts</title>
<path fill="none" stroke="#528b8b" stroke-width="2" d="M59.16,-120.48C141.85,-118.97 384.2,-114.53 481.19,-112.75"/>
<polygon fill="#528b8b" stroke="#528b8b" stroke-width="2" points="481.53,-116.24 491.46,-112.56 481.4,-109.24 481.53,-116.24"/>
</g>
<!-- src/util.ts -->
<g id="node6" class="node">
<title>src/util.ts</title>
<path fill="#79cdcd" stroke="#79cdcd" d="M538,-184C538,-184 508,-184 508,-184 502,-184 496,-178 496,-172 496,-172 496,-160 496,-160 496,-154 502,-148 508,-148 508,-148 538,-148 538,-148 544,-148 550,-154 550,-160 550,-160 550,-172 550,-172 550,-178 544,-184 538,-184"/>
<text text-anchor="middle" x="523" y="-162.3" font-family="Helvetica,sans-Serif" font-size="14.00">util.ts</text>
</g>
<!-- mod.ts&#45;&gt;src/util.ts -->
<g id="edge4" class="edge">
<title>mod.ts&#45;&gt;src/util.ts</title>
<path fill="none" stroke="#528b8b" stroke-width="2" d="M59.46,-123.52C127.15,-129.52 303.1,-145.2 450,-159 461.58,-160.09 474.21,-161.31 485.61,-162.42"/>
<polygon fill="#528b8b" stroke="#528b8b" stroke-width="2" points="485.38,-165.91 495.67,-163.4 486.06,-158.94 485.38,-165.91"/>
</g>
<!-- src/scribe.ts&#45;&gt;src/types&#45;envelope.ts -->
<g id="edge6" class="edge">
<title>src/scribe.ts&#45;&gt;src/types&#45;envelope.ts</title>
<path fill="none" stroke="#528b8b" stroke-width="2" d="M306.67,-191.73C361.44,-200.24 474.94,-213.18 568,-193 619.02,-181.94 672.96,-154.94 707.92,-135.15"/>
<polygon fill="#528b8b" stroke="#528b8b" stroke-width="2" points="709.89,-138.05 716.82,-130.03 706.4,-131.98 709.89,-138.05"/>
</g>
<!-- src/scribe.ts&#45;&gt;src/types.ts -->
<g id="edge5" class="edge">
<title>src/scribe.ts&#45;&gt;src/types.ts</title>
<path fill="none" stroke="#528b8b" stroke-width="2" d="M306.68,-176.25C351.71,-162.81 432.82,-138.61 481.6,-124.05"/>
<polygon fill="#528b8b" stroke="#528b8b" stroke-width="2" points="482.62,-127.4 491.2,-121.19 480.62,-120.7 482.62,-127.4"/>
</g>
<!-- src/scribe.ts&#45;&gt;src/util.ts -->
<g id="edge7" class="edge">
<title>src/scribe.ts&#45;&gt;src/util.ts</title>
<path fill="none" stroke="#528b8b" stroke-width="2" d="M306.68,-183.36C353,-179.63 437.46,-172.82 485.69,-168.93"/>
<polygon fill="#528b8b" stroke="#528b8b" stroke-width="2" points="486,-172.41 495.69,-168.12 485.44,-165.44 486,-172.41"/>
</g>
<!-- src/types.ts&#45;&gt;src/types&#45;envelope.ts -->
<g id="edge10" class="edge">
<title>src/types.ts&#45;&gt;src/types&#45;envelope.ts</title>
<path fill="none" stroke="#528b8b" stroke-width="2" d="M554.87,-112C585.95,-112 634.98,-112 675.6,-112"/>
<polygon fill="#528b8b" stroke="#528b8b" stroke-width="2" points="675.73,-115.5 685.73,-112 675.73,-108.5 675.73,-115.5"/>
</g>
<!-- src/test/asserts.ts -->
<g id="node7" class="node">
<title>src/test/asserts.ts</title>
<path fill="#79cdcd" stroke="#79cdcd" d="M548,-258C548,-258 498,-258 498,-258 492,-258 486,-252 486,-246 486,-246 486,-234 486,-234 486,-228 492,-222 498,-222 498,-222 548,-222 548,-222 554,-222 560,-228 560,-234 560,-234 560,-246 560,-246 560,-252 554,-258 548,-258"/>
<text text-anchor="middle" x="523" y="-236.3" font-family="Helvetica,sans-Serif" font-size="14.00">asserts.ts</text>
</g>
<!-- https://deno.land/std@0.121.0/testing/asserts.ts -->
<g id="node10" class="node">
<title>https://deno.land/std@0.121.0/testing/asserts.ts</title>
<polygon fill="#cdc8b1" stroke="#8b8878" points="898,-364 600,-364 596,-360 596,-328 894,-328 898,-332 898,-364"/>
<polyline fill="none" stroke="#8b8878" points="894,-360 596,-360 "/>
<polyline fill="none" stroke="#8b8878" points="894,-360 894,-328 "/>
<polyline fill="none" stroke="#8b8878" points="894,-360 898,-364 "/>
<text text-anchor="middle" x="747" y="-342.3" font-family="Helvetica,sans-Serif" font-size="14.00">https://deno.land/std@0.121.0/testing/asserts.ts</text>
</g>
<!-- src/test/asserts.ts&#45;&gt;https://deno.land/std@0.121.0/testing/asserts.ts -->
<g id="edge12" class="edge">
<title>src/test/asserts.ts&#45;&gt;https://deno.land/std@0.121.0/testing/asserts.ts</title>
<path fill="none" stroke="#8b8878" stroke-width="1.5" stroke-dasharray="5,2" d="M534.09,-258.14C545.06,-276.16 564.37,-303.4 594.87,-322.73"/>
<polygon fill="#8b8878" stroke="#8b8878" stroke-width="1.5" points="593.38,-325.91 603.77,-327.96 596.92,-319.88 593.38,-325.91"/>
</g>
<!-- src/test/util.test.ts -->
<g id="node8" class="node">
<title>src/test/util.test.ts</title>
<path fill="#79cdcd" stroke="#79cdcd" d="M298,-258C298,-258 248,-258 248,-258 242,-258 236,-252 236,-246 236,-246 236,-234 236,-234 236,-228 242,-222 248,-222 248,-222 298,-222 298,-222 304,-222 310,-228 310,-234 310,-234 310,-246 310,-246 310,-252 304,-258 298,-258"/>
<text text-anchor="middle" x="273" y="-236.3" font-family="Helvetica,sans-Serif" font-size="14.00">util.test.ts</text>
</g>
<!-- src/test/util.test.ts&#45;&gt;src/util.ts -->
<g id="edge9" class="edge">
<title>src/test/util.test.ts&#45;&gt;src/util.ts</title>
<path fill="none" stroke="#528b8b" stroke-width="2" d="M310,-240.66C346.51,-240.15 404.01,-236.1 450,-218 466.12,-211.65 481.97,-200.86 494.67,-190.74"/>
<polygon fill="#528b8b" stroke="#528b8b" stroke-width="2" points="497.05,-193.31 502.53,-184.25 492.59,-187.92 497.05,-193.31"/>
</g>
<!-- src/test/util.test.ts&#45;&gt;src/test/asserts.ts -->
<g id="edge8" class="edge">
<title>src/test/util.test.ts&#45;&gt;src/test/asserts.ts</title>
<path fill="none" stroke="#528b8b" stroke-width="2" d="M310.06,-240C353.87,-240 427.84,-240 475.78,-240"/>
<polygon fill="#528b8b" stroke="#528b8b" stroke-width="2" points="475.9,-243.5 485.9,-240 475.9,-236.5 475.9,-243.5"/>
</g>
</g>
</svg>
