<?xml version="1.0" encoding="UTF-8" standalone="no"?>
<!DOCTYPE svg PUBLIC "-//W3C//DTD SVG 1.1//EN"
 "http://www.w3.org/Graphics/SVG/1.1/DTD/svg11.dtd">
<!-- Generated by graphviz version 2.44.1 (20200629.0846)
 -->
<!-- Title: G Pages: 1 -->
<svg width="1038pt" height="418pt"
 viewBox="0.00 0.00 1038.00 418.00" xmlns="http://www.w3.org/2000/svg" xmlns:xlink="http://www.w3.org/1999/xlink">
<g id="graph0" class="graph" transform="scale(1 1) rotate(0) translate(4 414)">
<title>G</title>
<polygon fill="white" stroke="transparent" points="-4,4 -4,-414 1034,-414 1034,4 -4,4"/>
<g id="clust1" class="cluster">
<title>cluster476466255</title>
<path fill="bisque" stroke="#8b7d6b" stroke-width="2" d="M205.5,-122C205.5,-122 936,-122 936,-122 942,-122 948,-128 948,-134 948,-134 948,-354 948,-354 948,-360 942,-366 936,-366 936,-366 205.5,-366 205.5,-366 199.5,-366 193.5,-360 193.5,-354 193.5,-354 193.5,-134 193.5,-134 193.5,-128 199.5,-122 205.5,-122"/>
<text text-anchor="start" x="560.25" y="-351.8" font-family="Helvetica,sans-Serif" font-weight="bold" font-size="14.00">src</text>
</g>
<g id="clust2" class="cluster">
<title>cluster4646860805</title>
<path fill="bisque" stroke="#8b7d6b" stroke-width="2" d="M501,-216C501,-216 688,-216 688,-216 694,-216 700,-222 700,-228 700,-228 700,-279 700,-279 700,-285 694,-291 688,-291 688,-291 501,-291 501,-291 495,-291 489,-285 489,-279 489,-279 489,-228 489,-228 489,-222 495,-216 501,-216"/>
<text text-anchor="start" x="582" y="-276.8" font-family="Helvetica,sans-Serif" font-weight="bold" font-size="14.00">test</text>
</g>
<!-- deps.ts -->
<g id="node1" class="node">
<title>deps.ts</title>
<path fill="#79cdcd" stroke="#79cdcd" d="M48,-36C48,-36 12,-36 12,-36 6,-36 0,-30 0,-24 0,-24 0,-12 0,-12 0,-6 6,0 12,0 12,0 48,0 48,0 54,0 60,-6 60,-12 60,-12 60,-24 60,-24 60,-30 54,-36 48,-36"/>
<text text-anchor="middle" x="30" y="-14.3" font-family="Helvetica,sans-Serif" font-size="14.00">deps.ts</text>
</g>
<!-- https://deno.land/x/crayon_chalk_aliases@1.1.0/index.ts -->
<g id="node11" class="node">
<title>https://deno.land/x/crayon_chalk_aliases@1.1.0/index.ts</title>
<polygon fill="#cdc8b1" stroke="#8b8878" points="450,-36 100,-36 96,-32 96,0 446,0 450,-4 450,-36"/>
<polyline fill="none" stroke="#8b8878" points="446,-32 96,-32 "/>
<polyline fill="none" stroke="#8b8878" points="446,-32 446,0 "/>
<polyline fill="none" stroke="#8b8878" points="446,-32 450,-36 "/>
<text text-anchor="middle" x="273" y="-14.3" font-family="Helvetica,sans-Serif" font-size="14.00">https://deno.land/x/crayon_chalk_aliases@1.1.0/index.ts</text>
</g>
<!-- deps.ts&#45;&gt;https://deno.land/x/crayon_chalk_aliases@1.1.0/index.ts -->
<g id="edge15" class="edge">
<title>deps.ts&#45;&gt;https://deno.land/x/crayon_chalk_aliases@1.1.0/index.ts</title>
<path fill="none" stroke="#8b8878" stroke-width="1.5" stroke-dasharray="5,2" d="M60.07,-18C67.6,-18 76.28,-18 85.74,-18"/>
<polygon fill="#8b8878" stroke="#8b8878" stroke-width="1.5" points="85.86,-21.5 95.86,-18 85.86,-14.5 85.86,-21.5"/>
</g>
<!-- mod.ts -->
<g id="node2" class="node">
<title>mod.ts</title>
<path fill="#79cdcd" stroke="#79cdcd" d="M47,-166C47,-166 13,-166 13,-166 7,-166 1,-160 1,-154 1,-154 1,-142 1,-142 1,-136 7,-130 13,-130 13,-130 47,-130 47,-130 53,-130 59,-136 59,-142 59,-142 59,-154 59,-154 59,-160 53,-166 47,-166"/>
<text text-anchor="middle" x="30" y="-144.3" font-family="Helvetica,sans-Serif" font-size="14.00">mod.ts</text>
</g>
<!-- src/connection.ts -->
<g id="node3" class="node">
<title>src/connection.ts</title>
<path fill="#79cdcd" stroke="#79cdcd" d="M570,-206C570,-206 498,-206 498,-206 492,-206 486,-200 486,-194 486,-194 486,-182 486,-182 486,-176 492,-170 498,-170 498,-170 570,-170 570,-170 576,-170 582,-176 582,-182 582,-182 582,-194 582,-194 582,-200 576,-206 570,-206"/>
<text text-anchor="middle" x="534" y="-184.3" font-family="Helvetica,sans-Serif" font-size="14.00">connection.ts</text>
</g>
<!-- mod.ts&#45;&gt;src/connection.ts -->
<g id="edge5" class="edge">
<title>mod.ts&#45;&gt;src/connection.ts</title>
<path fill="none" stroke="#528b8b" stroke-width="2" d="M39.45,-166.19C49.69,-185.84 69.01,-216.05 96,-229 237.86,-297.05 296.79,-264.78 450,-229 452.29,-228.47 469.79,-219.87 488.13,-210.69"/>
<polygon fill="#528b8b" stroke="#528b8b" stroke-width="2" points="489.77,-213.78 497.14,-206.17 486.63,-207.53 489.77,-213.78"/>
</g>
<!-- src/transportHttpClient.ts -->
<g id="node5" class="node">
<title>src/transportHttpClient.ts</title>
<path fill="#79cdcd" stroke="#79cdcd" d="M332.5,-166C332.5,-166 213.5,-166 213.5,-166 207.5,-166 201.5,-160 201.5,-154 201.5,-154 201.5,-142 201.5,-142 201.5,-136 207.5,-130 213.5,-130 213.5,-130 332.5,-130 332.5,-130 338.5,-130 344.5,-136 344.5,-142 344.5,-142 344.5,-154 344.5,-154 344.5,-160 338.5,-166 332.5,-166"/>
<text text-anchor="middle" x="273" y="-144.3" font-family="Helvetica,sans-Serif" font-size="14.00">transportHttpClient.ts</text>
</g>
<!-- mod.ts&#45;&gt;src/transportHttpClient.ts -->
<g id="edge4" class="edge">
<title>mod.ts&#45;&gt;src/transportHttpClient.ts</title>
<path fill="none" stroke="#528b8b" stroke-width="2" d="M59.12,-148C91.32,-148 145.53,-148 191.19,-148"/>
<polygon fill="#528b8b" stroke="#528b8b" stroke-width="2" points="191.39,-151.5 201.39,-148 191.39,-144.5 191.39,-151.5"/>
</g>
<!-- src/types&#45;envelope.ts -->
<g id="node6" class="node">
<title>src/types&#45;envelope.ts</title>
<path fill="#79cdcd" stroke="#79cdcd" d="M928,-184C928,-184 830,-184 830,-184 824,-184 818,-178 818,-172 818,-172 818,-160 818,-160 818,-154 824,-148 830,-148 830,-148 928,-148 928,-148 934,-148 940,-154 940,-160 940,-160 940,-172 940,-172 940,-178 934,-184 928,-184"/>
<text text-anchor="middle" x="879" y="-162.3" font-family="Helvetica,sans-Serif" font-size="14.00">types&#45;envelope.ts</text>
</g>
<!-- mod.ts&#45;&gt;src/types&#45;envelope.ts -->
<g id="edge1" class="edge">
<title>mod.ts&#45;&gt;src/types&#45;envelope.ts</title>
<path fill="none" stroke="#528b8b" stroke-width="2" d="M48.78,-129.94C60.92,-118.95 78.01,-105.92 96,-100 351.14,-16.01 435.07,-76.69 700,-121 736.04,-127.03 775.5,-136.68 808.08,-145.5"/>
<polygon fill="#528b8b" stroke="#528b8b" stroke-width="2" points="807.4,-148.94 817.97,-148.21 809.25,-142.19 807.4,-148.94"/>
</g>
<!-- src/types.ts -->
<g id="node7" class="node">
<title>src/types.ts</title>
<path fill="#79cdcd" stroke="#79cdcd" d="M674.5,-166C674.5,-166 635.5,-166 635.5,-166 629.5,-166 623.5,-160 623.5,-154 623.5,-154 623.5,-142 623.5,-142 623.5,-136 629.5,-130 635.5,-130 635.5,-130 674.5,-130 674.5,-130 680.5,-130 686.5,-136 686.5,-142 686.5,-142 686.5,-154 686.5,-154 686.5,-160 680.5,-166 674.5,-166"/>
<text text-anchor="middle" x="655" y="-144.3" font-family="Helvetica,sans-Serif" font-size="14.00">types.ts</text>
</g>
<!-- mod.ts&#45;&gt;src/types.ts -->
<g id="edge2" class="edge">
<title>mod.ts&#45;&gt;src/types.ts</title>
<path fill="none" stroke="#528b8b" stroke-width="2" d="M59.03,-133.52C70.22,-128.5 83.42,-123.51 96,-121 250.29,-90.23 293.01,-110.66 450,-121 507.02,-124.76 572.42,-134.36 613.47,-141.04"/>
<polygon fill="#528b8b" stroke="#528b8b" stroke-width="2" points="612.93,-144.49 623.37,-142.66 614.07,-137.59 612.93,-144.49"/>
</g>
<!-- src/util.ts -->
<g id="node8" class="node">
<title>src/util.ts</title>
<path fill="#79cdcd" stroke="#79cdcd" d="M670,-335C670,-335 640,-335 640,-335 634,-335 628,-329 628,-323 628,-323 628,-311 628,-311 628,-305 634,-299 640,-299 640,-299 670,-299 670,-299 676,-299 682,-305 682,-311 682,-311 682,-323 682,-323 682,-329 676,-335 670,-335"/>
<text text-anchor="middle" x="655" y="-313.3" font-family="Helvetica,sans-Serif" font-size="14.00">util.ts</text>
</g>
<!-- mod.ts&#45;&gt;src/util.ts -->
<g id="edge3" class="edge">
<title>mod.ts&#45;&gt;src/util.ts</title>
<path fill="none" stroke="#528b8b" stroke-width="2" d="M35.69,-166.28C43.44,-192.39 61.59,-239.68 96,-262 264.46,-371.27 523.71,-340.16 618.08,-323.95"/>
<polygon fill="#528b8b" stroke="#528b8b" stroke-width="2" points="618.75,-327.39 627.98,-322.2 617.53,-320.49 618.75,-327.39"/>
</g>
<!-- src/connection.ts&#45;&gt;src/types&#45;envelope.ts -->
<g id="edge7" class="edge">
<title>src/connection.ts&#45;&gt;src/types&#45;envelope.ts</title>
<path fill="none" stroke="#528b8b" stroke-width="2" d="M582.4,-189.34C594.04,-189.61 606.47,-189.86 618,-190 654.44,-190.44 663.64,-192.44 700,-190 735.67,-187.61 775.09,-182.54 807.74,-177.68"/>
<polygon fill="#528b8b" stroke="#528b8b" stroke-width="2" points="808.29,-181.14 817.65,-176.18 807.24,-174.22 808.29,-181.14"/>
</g>
<!-- src/connection.ts&#45;&gt;src/types.ts -->
<g id="edge6" class="edge">
<title>src/connection.ts&#45;&gt;src/types.ts</title>
<path fill="none" stroke="#528b8b" stroke-width="2" d="M582.03,-172.19C592.57,-168.65 603.65,-164.92 613.87,-161.49"/>
<polygon fill="#528b8b" stroke="#528b8b" stroke-width="2" points="615.01,-164.8 623.37,-158.3 612.78,-158.16 615.01,-164.8"/>
</g>
<!-- src/connection.ts&#45;&gt;src/util.ts -->
<g id="edge8" class="edge">
<title>src/connection.ts&#45;&gt;src/util.ts</title>
<path fill="none" stroke="#528b8b" stroke-width="2" d="M575.37,-206.06C577.75,-207.88 579.99,-209.86 582,-212 609.52,-241.31 591.62,-264.66 618,-295 618.61,-295.7 619.25,-296.39 619.91,-297.06"/>
<polygon fill="#528b8b" stroke="#528b8b" stroke-width="2" points="617.81,-299.86 627.71,-303.63 622.32,-294.51 617.81,-299.86"/>
</g>
<!-- src/example.ts -->
<g id="node4" class="node">
<title>src/example.ts</title>
<path fill="#79cdcd" stroke="#79cdcd" d="M302.5,-220C302.5,-220 243.5,-220 243.5,-220 237.5,-220 231.5,-214 231.5,-208 231.5,-208 231.5,-196 231.5,-196 231.5,-190 237.5,-184 243.5,-184 243.5,-184 302.5,-184 302.5,-184 308.5,-184 314.5,-190 314.5,-196 314.5,-196 314.5,-208 314.5,-208 314.5,-214 308.5,-220 302.5,-220"/>
<text text-anchor="middle" x="273" y="-198.3" font-family="Helvetica,sans-Serif" font-size="14.00">example.ts</text>
</g>
<!-- src/transportHttpClient.ts&#45;&gt;src/connection.ts -->
<g id="edge13" class="edge">
<title>src/transportHttpClient.ts&#45;&gt;src/connection.ts</title>
<path fill="none" stroke="#528b8b" stroke-width="2" d="M344.66,-158.79C376.8,-163.71 415.33,-169.63 450,-175 458.29,-176.28 467.04,-177.65 475.63,-178.99"/>
<polygon fill="#528b8b" stroke="#528b8b" stroke-width="2" points="475.18,-182.46 485.6,-180.55 476.26,-175.55 475.18,-182.46"/>
</g>
<!-- src/transportHttpClient.ts&#45;&gt;src/types&#45;envelope.ts -->
<g id="edge12" class="edge">
<title>src/transportHttpClient.ts&#45;&gt;src/types&#45;envelope.ts</title>
<path fill="none" stroke="#528b8b" stroke-width="2" d="M344.53,-144.46C407.49,-142.84 501.85,-144.21 582,-161 598.8,-164.52 601.13,-171.83 618,-175 653.82,-181.72 663.57,-175.92 700,-175 735.45,-174.1 774.83,-172.21 807.52,-170.38"/>
<polygon fill="#528b8b" stroke="#528b8b" stroke-width="2" points="808.1,-173.86 817.88,-169.8 807.7,-166.87 808.1,-173.86"/>
</g>
<!-- src/transportHttpClient.ts&#45;&gt;src/types.ts -->
<g id="edge11" class="edge">
<title>src/transportHttpClient.ts&#45;&gt;src/types.ts</title>
<path fill="none" stroke="#528b8b" stroke-width="2" d="M344.65,-146.72C407.08,-145.79 500.59,-144.87 582,-146 592.02,-146.14 602.83,-146.39 612.94,-146.66"/>
<polygon fill="#528b8b" stroke="#528b8b" stroke-width="2" points="613.08,-150.17 623.17,-146.96 613.28,-143.17 613.08,-150.17"/>
</g>
<!-- src/types.ts&#45;&gt;src/types&#45;envelope.ts -->
<g id="edge14" class="edge">
<title>src/types.ts&#45;&gt;src/types&#45;envelope.ts</title>
<path fill="none" stroke="#528b8b" stroke-width="2" d="M686.87,-150.5C717.95,-153.02 766.98,-157 807.6,-160.29"/>
<polygon fill="#528b8b" stroke="#528b8b" stroke-width="2" points="807.48,-163.79 817.73,-161.11 808.05,-156.82 807.48,-163.79"/>
</g>
<!-- src/test/asserts.ts -->
<g id="node9" class="node">
<title>src/test/asserts.ts</title>
<path fill="#79cdcd" stroke="#79cdcd" d="M680,-260C680,-260 630,-260 630,-260 624,-260 618,-254 618,-248 618,-248 618,-236 618,-236 618,-230 624,-224 630,-224 630,-224 680,-224 680,-224 686,-224 692,-230 692,-236 692,-236 692,-248 692,-248 692,-254 686,-260 680,-260"/>
<text text-anchor="middle" x="655" y="-238.3" font-family="Helvetica,sans-Serif" font-size="14.00">asserts.ts</text>
</g>
<!-- https://deno.land/std@0.121.0/testing/asserts.ts -->
<g id="node12" class="node">
<title>https://deno.land/std@0.121.0/testing/asserts.ts</title>
<polygon fill="#cdc8b1" stroke="#8b8878" points="1030,-410 732,-410 728,-406 728,-374 1026,-374 1030,-378 1030,-410"/>
<polyline fill="none" stroke="#8b8878" points="1026,-406 728,-406 "/>
<polyline fill="none" stroke="#8b8878" points="1026,-406 1026,-374 "/>
<polyline fill="none" stroke="#8b8878" points="1026,-406 1030,-410 "/>
<text text-anchor="middle" x="879" y="-388.3" font-family="Helvetica,sans-Serif" font-size="14.00">https://deno.land/std@0.121.0/testing/asserts.ts</text>
</g>
<!-- src/test/asserts.ts&#45;&gt;https://deno.land/std@0.121.0/testing/asserts.ts -->
<g id="edge16" class="edge">
<title>src/test/asserts.ts&#45;&gt;https://deno.land/std@0.121.0/testing/asserts.ts</title>
<path fill="none" stroke="#8b8878" stroke-width="1.5" stroke-dasharray="5,2" d="M692.09,-256.58C695.03,-258.75 697.74,-261.22 700,-264 728.7,-299.3 696.54,-332.78 725.41,-366.56"/>
<polygon fill="#8b8878" stroke="#8b8878" stroke-width="1.5" points="723.02,-369.12 732.54,-373.77 728,-364.2 723.02,-369.12"/>
</g>
<!-- src/test/util.test.ts -->
<g id="node10" class="node">
<title>src/test/util.test.ts</title>
<path fill="#79cdcd" stroke="#79cdcd" d="M559,-260C559,-260 509,-260 509,-260 503,-260 497,-254 497,-248 497,-248 497,-236 497,-236 497,-230 503,-224 509,-224 509,-224 559,-224 559,-224 565,-224 571,-230 571,-236 571,-236 571,-248 571,-248 571,-254 565,-260 559,-260"/>
<text text-anchor="middle" x="534" y="-238.3" font-family="Helvetica,sans-Serif" font-size="14.00">util.test.ts</text>
</g>
<!-- src/test/util.test.ts&#45;&gt;src/util.ts -->
<g id="edge10" class="edge">
<title>src/test/util.test.ts&#45;&gt;src/util.ts</title>
<path fill="none" stroke="#528b8b" stroke-width="2" d="M571.46,-257.84C575.1,-259.78 578.67,-261.85 582,-264 599.73,-275.47 600.94,-282.57 618,-295 618.38,-295.28 618.77,-295.56 619.16,-295.84"/>
<polygon fill="#528b8b" stroke="#528b8b" stroke-width="2" points="617.47,-298.92 627.72,-301.63 621.4,-293.12 617.47,-298.92"/>
</g>
<!-- src/test/util.test.ts&#45;&gt;src/test/asserts.ts -->
<g id="edge9" class="edge">
<title>src/test/util.test.ts&#45;&gt;src/test/asserts.ts</title>
<path fill="none" stroke="#528b8b" stroke-width="2" d="M571.03,-242C582.46,-242 595.26,-242 607.33,-242"/>
<polygon fill="#528b8b" stroke="#528b8b" stroke-width="2" points="607.68,-245.5 617.68,-242 607.68,-238.5 607.68,-245.5"/>
</g>
</g>
</svg>
