<?xml version="1.0" encoding="UTF-8" standalone="no"?>
<!DOCTYPE svg PUBLIC "-//W3C//DTD SVG 1.1//EN"
 "http://www.w3.org/Graphics/SVG/1.1/DTD/svg11.dtd">
<!-- Generated by graphviz version 2.44.1 (20200629.0846)
 -->
<!-- Title: G Pages: 1 -->
<svg width="1240pt" height="342pt"
 viewBox="0.00 0.00 1240.00 342.00" xmlns="http://www.w3.org/2000/svg" xmlns:xlink="http://www.w3.org/1999/xlink">
<g id="graph0" class="graph" transform="scale(1 1) rotate(0) translate(4 338)">
<title>G</title>
<polygon fill="white" stroke="transparent" points="-4,4 -4,-338 1236,-338 1236,4 -4,4"/>
<g id="clust1" class="cluster">
<title>cluster9990352566</title>
<path fill="bisque" stroke="#8b7d6b" stroke-width="2" d="M513,-46C513,-46 1138,-46 1138,-46 1144,-46 1150,-52 1150,-58 1150,-58 1150,-278 1150,-278 1150,-284 1144,-290 1138,-290 1138,-290 513,-290 513,-290 507,-290 501,-284 501,-278 501,-278 501,-58 501,-58 501,-52 507,-46 513,-46"/>
<text text-anchor="start" x="815" y="-275.8" font-family="Helvetica,sans-Serif" font-weight="bold" font-size="14.00">src</text>
</g>
<g id="clust2" class="cluster">
<title>cluster1270671271</title>
<path fill="bisque" stroke="#8b7d6b" stroke-width="2" d="M703,-140C703,-140 890,-140 890,-140 896,-140 902,-146 902,-152 902,-152 902,-203 902,-203 902,-209 896,-215 890,-215 890,-215 703,-215 703,-215 697,-215 691,-209 691,-203 691,-203 691,-152 691,-152 691,-146 697,-140 703,-140"/>
<text text-anchor="start" x="784" y="-200.8" font-family="Helvetica,sans-Serif" font-weight="bold" font-size="14.00">test</text>
</g>
<!-- deps.ts -->
<g id="node1" class="node">
<title>deps.ts</title>
<path fill="#79cdcd" stroke="#79cdcd" d="M59.5,-36C59.5,-36 23.5,-36 23.5,-36 17.5,-36 11.5,-30 11.5,-24 11.5,-24 11.5,-12 11.5,-12 11.5,-6 17.5,0 23.5,0 23.5,0 59.5,0 59.5,0 65.5,0 71.5,-6 71.5,-12 71.5,-12 71.5,-24 71.5,-24 71.5,-30 65.5,-36 59.5,-36"/>
<text text-anchor="middle" x="41.5" y="-14.3" font-family="Helvetica,sans-Serif" font-size="14.00">deps.ts</text>
</g>
<!-- https://deno.land/x/crayon_chalk_aliases@1.1.0/index.ts -->
<g id="node11" class="node">
<title>https://deno.land/x/crayon_chalk_aliases@1.1.0/index.ts</title>
<polygon fill="#cdc8b1" stroke="#8b8878" points="473,-36 123,-36 119,-32 119,0 469,0 473,-4 473,-36"/>
<polyline fill="none" stroke="#8b8878" points="469,-32 119,-32 "/>
<polyline fill="none" stroke="#8b8878" points="469,-32 469,0 "/>
<polyline fill="none" stroke="#8b8878" points="469,-32 473,-36 "/>
<text text-anchor="middle" x="296" y="-14.3" font-family="Helvetica,sans-Serif" font-size="14.00">https://deno.land/x/crayon_chalk_aliases@1.1.0/index.ts</text>
</g>
<!-- deps.ts&#45;&gt;https://deno.land/x/crayon_chalk_aliases@1.1.0/index.ts -->
<g id="edge16" class="edge">
<title>deps.ts&#45;&gt;https://deno.land/x/crayon_chalk_aliases@1.1.0/index.ts</title>
<path fill="none" stroke="#8b8878" stroke-width="1.5" stroke-dasharray="5,2" d="M71.96,-18C82.32,-18 94.86,-18 108.65,-18"/>
<polygon fill="#8b8878" stroke="#8b8878" stroke-width="1.5" points="108.89,-21.5 118.89,-18 108.89,-14.5 108.89,-21.5"/>
</g>
<!-- example.ts -->
<g id="node2" class="node">
<title>example.ts</title>
<path fill="#79cdcd" stroke="#79cdcd" d="M71,-90C71,-90 12,-90 12,-90 6,-90 0,-84 0,-78 0,-78 0,-66 0,-66 0,-60 6,-54 12,-54 12,-54 71,-54 71,-54 77,-54 83,-60 83,-66 83,-66 83,-78 83,-78 83,-84 77,-90 71,-90"/>
<text text-anchor="middle" x="41.5" y="-68.3" font-family="Helvetica,sans-Serif" font-size="14.00">example.ts</text>
</g>
<!-- mod.ts -->
<g id="node3" class="node">
<title>mod.ts</title>
<path fill="#79cdcd" stroke="#79cdcd" d="M313,-90C313,-90 279,-90 279,-90 273,-90 267,-84 267,-78 267,-78 267,-66 267,-66 267,-60 273,-54 279,-54 279,-54 313,-54 313,-54 319,-54 325,-60 325,-66 325,-66 325,-78 325,-78 325,-84 319,-90 313,-90"/>
<text text-anchor="middle" x="296" y="-68.3" font-family="Helvetica,sans-Serif" font-size="14.00">mod.ts</text>
</g>
<!-- example.ts&#45;&gt;mod.ts -->
<g id="edge1" class="edge">
<title>example.ts&#45;&gt;mod.ts</title>
<path fill="none" stroke="#528b8b" stroke-width="2" d="M83.07,-72C130.89,-72 209.77,-72 256.62,-72"/>
<polygon fill="#528b8b" stroke="#528b8b" stroke-width="2" points="256.68,-75.5 266.68,-72 256.68,-68.5 256.68,-75.5"/>
</g>
<!-- src/connection.ts -->
<g id="node4" class="node">
<title>src/connection.ts</title>
<path fill="#79cdcd" stroke="#79cdcd" d="M772,-130C772,-130 700,-130 700,-130 694,-130 688,-124 688,-118 688,-118 688,-106 688,-106 688,-100 694,-94 700,-94 700,-94 772,-94 772,-94 778,-94 784,-100 784,-106 784,-106 784,-118 784,-118 784,-124 778,-130 772,-130"/>
<text text-anchor="middle" x="736" y="-108.3" font-family="Helvetica,sans-Serif" font-size="14.00">connection.ts</text>
</g>
<!-- mod.ts&#45;&gt;src/connection.ts -->
<g id="edge6" class="edge">
<title>mod.ts&#45;&gt;src/connection.ts</title>
<path fill="none" stroke="#528b8b" stroke-width="2" d="M325.3,-76.44C364.62,-82.45 438.04,-93.09 501,-99 561.2,-104.65 630.35,-108.12 677.78,-110.04"/>
<polygon fill="#528b8b" stroke="#528b8b" stroke-width="2" points="677.73,-113.54 687.86,-110.44 678.01,-106.54 677.73,-113.54"/>
</g>
<!-- src/transportHttpClient.ts -->
<g id="node5" class="node">
<title>src/transportHttpClient.ts</title>
<path fill="#79cdcd" stroke="#79cdcd" d="M640,-90C640,-90 521,-90 521,-90 515,-90 509,-84 509,-78 509,-78 509,-66 509,-66 509,-60 515,-54 521,-54 521,-54 640,-54 640,-54 646,-54 652,-60 652,-66 652,-66 652,-78 652,-78 652,-84 646,-90 640,-90"/>
<text text-anchor="middle" x="580.5" y="-68.3" font-family="Helvetica,sans-Serif" font-size="14.00">transportHttpClient.ts</text>
</g>
<!-- mod.ts&#45;&gt;src/transportHttpClient.ts -->
<g id="edge5" class="edge">
<title>mod.ts&#45;&gt;src/transportHttpClient.ts</title>
<path fill="none" stroke="#528b8b" stroke-width="2" d="M325.12,-72C365.21,-72 440.39,-72 498.66,-72"/>
<polygon fill="#528b8b" stroke="#528b8b" stroke-width="2" points="498.96,-75.5 508.96,-72 498.96,-68.5 498.96,-75.5"/>
</g>
<!-- src/types&#45;envelope.ts -->
<g id="node6" class="node">
<title>src/types&#45;envelope.ts</title>
<path fill="#79cdcd" stroke="#79cdcd" d="M1130,-108C1130,-108 1032,-108 1032,-108 1026,-108 1020,-102 1020,-96 1020,-96 1020,-84 1020,-84 1020,-78 1026,-72 1032,-72 1032,-72 1130,-72 1130,-72 1136,-72 1142,-78 1142,-84 1142,-84 1142,-96 1142,-96 1142,-102 1136,-108 1130,-108"/>
<text text-anchor="middle" x="1081" y="-86.3" font-family="Helvetica,sans-Serif" font-size="14.00">types&#45;envelope.ts</text>
</g>
<!-- mod.ts&#45;&gt;src/types&#45;envelope.ts -->
<g id="edge2" class="edge">
<title>mod.ts&#45;&gt;src/types&#45;envelope.ts</title>
<path fill="none" stroke="#528b8b" stroke-width="2" d="M325.24,-68.78C360.18,-64.55 421.36,-56.29 473,-45 485.64,-42.24 488.18,-38.8 501,-37 564.02,-28.17 889.15,-43.19 902,-45 938.9,-50.19 979.22,-60.03 1012.14,-69.18"/>
<polygon fill="#528b8b" stroke="#528b8b" stroke-width="2" points="1011.53,-72.65 1022.11,-71.99 1013.43,-65.91 1011.53,-72.65"/>
</g>
<!-- src/types.ts -->
<g id="node7" class="node">
<title>src/types.ts</title>
<path fill="#79cdcd" stroke="#79cdcd" d="M876.5,-90C876.5,-90 837.5,-90 837.5,-90 831.5,-90 825.5,-84 825.5,-78 825.5,-78 825.5,-66 825.5,-66 825.5,-60 831.5,-54 837.5,-54 837.5,-54 876.5,-54 876.5,-54 882.5,-54 888.5,-60 888.5,-66 888.5,-66 888.5,-78 888.5,-78 888.5,-84 882.5,-90 876.5,-90"/>
<text text-anchor="middle" x="857" y="-68.3" font-family="Helvetica,sans-Serif" font-size="14.00">types.ts</text>
</g>
<!-- mod.ts&#45;&gt;src/types.ts -->
<g id="edge3" class="edge">
<title>mod.ts&#45;&gt;src/types.ts</title>
<path fill="none" stroke="#528b8b" stroke-width="2" d="M325.26,-67.06C364.54,-60.47 437.9,-49.16 501,-45 567.97,-40.59 585.03,-40.59 652,-45 709.02,-48.76 774.42,-58.36 815.47,-65.04"/>
<polygon fill="#528b8b" stroke="#528b8b" stroke-width="2" points="814.93,-68.49 825.37,-66.66 816.07,-61.59 814.93,-68.49"/>
</g>
<!-- src/util.ts -->
<g id="node8" class="node">
<title>src/util.ts</title>
<path fill="#79cdcd" stroke="#79cdcd" d="M872,-259C872,-259 842,-259 842,-259 836,-259 830,-253 830,-247 830,-247 830,-235 830,-235 830,-229 836,-223 842,-223 842,-223 872,-223 872,-223 878,-223 884,-229 884,-235 884,-235 884,-247 884,-247 884,-253 878,-259 872,-259"/>
<text text-anchor="middle" x="857" y="-237.3" font-family="Helvetica,sans-Serif" font-size="14.00">util.ts</text>
</g>
<!-- mod.ts&#45;&gt;src/util.ts -->
<g id="edge4" class="edge">
<title>mod.ts&#45;&gt;src/util.ts</title>
<path fill="none" stroke="#528b8b" stroke-width="2" d="M325.22,-85.19C388.59,-114.24 547.64,-183.92 688,-219 732.61,-230.15 785.39,-235.89 819.72,-238.66"/>
<polygon fill="#528b8b" stroke="#528b8b" stroke-width="2" points="819.51,-242.16 829.75,-239.43 820.05,-235.18 819.51,-242.16"/>
</g>
<!-- src/connection.ts&#45;&gt;src/types&#45;envelope.ts -->
<g id="edge8" class="edge">
<title>src/connection.ts&#45;&gt;src/types&#45;envelope.ts</title>
<path fill="none" stroke="#528b8b" stroke-width="2" d="M784.4,-113.34C796.04,-113.61 808.47,-113.86 820,-114 856.44,-114.44 865.64,-116.44 902,-114 937.67,-111.61 977.09,-106.54 1009.74,-101.68"/>
<polygon fill="#528b8b" stroke="#528b8b" stroke-width="2" points="1010.29,-105.14 1019.65,-100.18 1009.24,-98.22 1010.29,-105.14"/>
</g>
<!-- src/connection.ts&#45;&gt;src/types.ts -->
<g id="edge7" class="edge">
<title>src/connection.ts&#45;&gt;src/types.ts</title>
<path fill="none" stroke="#528b8b" stroke-width="2" d="M784.03,-96.19C794.57,-92.65 805.65,-88.92 815.87,-85.49"/>
<polygon fill="#528b8b" stroke="#528b8b" stroke-width="2" points="817.01,-88.8 825.37,-82.3 814.78,-82.16 817.01,-88.8"/>
</g>
<!-- src/connection.ts&#45;&gt;src/util.ts -->
<g id="edge9" class="edge">
<title>src/connection.ts&#45;&gt;src/util.ts</title>
<path fill="none" stroke="#528b8b" stroke-width="2" d="M777.37,-130.06C779.75,-131.88 781.99,-133.86 784,-136 811.52,-165.31 793.62,-188.66 820,-219 820.61,-219.7 821.25,-220.39 821.91,-221.06"/>
<polygon fill="#528b8b" stroke="#528b8b" stroke-width="2" points="819.81,-223.86 829.71,-227.63 824.32,-218.51 819.81,-223.86"/>
</g>
<!-- src/transportHttpClient.ts&#45;&gt;src/connection.ts -->
<g id="edge14" class="edge">
<title>src/transportHttpClient.ts&#45;&gt;src/connection.ts</title>
<path fill="none" stroke="#528b8b" stroke-width="2" d="M650.62,-90.01C659.75,-92.39 669.03,-94.81 677.93,-97.13"/>
<polygon fill="#528b8b" stroke="#528b8b" stroke-width="2" points="677.24,-100.56 687.8,-99.7 679,-93.79 677.24,-100.56"/>
</g>
<!-- src/transportHttpClient.ts&#45;&gt;src/types&#45;envelope.ts -->
<g id="edge13" class="edge">
<title>src/transportHttpClient.ts&#45;&gt;src/types&#45;envelope.ts</title>
<path fill="none" stroke="#528b8b" stroke-width="2" d="M652.06,-71.25C691.32,-72.15 740.83,-75.46 784,-85 800.76,-88.7 803.13,-95.83 820,-99 855.82,-105.72 865.57,-99.92 902,-99 937.45,-98.1 976.83,-96.21 1009.52,-94.38"/>
<polygon fill="#528b8b" stroke="#528b8b" stroke-width="2" points="1010.1,-97.86 1019.88,-93.8 1009.7,-90.87 1010.1,-97.86"/>
</g>
<!-- src/transportHttpClient.ts&#45;&gt;src/types.ts -->
<g id="edge12" class="edge">
<title>src/transportHttpClient.ts&#45;&gt;src/types.ts</title>
<path fill="none" stroke="#528b8b" stroke-width="2" d="M652.26,-70.48C691.14,-69.85 740.23,-69.39 784,-70 794.02,-70.14 804.83,-70.39 814.94,-70.66"/>
<polygon fill="#528b8b" stroke="#528b8b" stroke-width="2" points="815.08,-74.17 825.17,-70.96 815.28,-67.17 815.08,-74.17"/>
</g>
<!-- src/types.ts&#45;&gt;src/types&#45;envelope.ts -->
<g id="edge15" class="edge">
<title>src/types.ts&#45;&gt;src/types&#45;envelope.ts</title>
<path fill="none" stroke="#528b8b" stroke-width="2" d="M888.87,-74.5C919.95,-77.02 968.98,-81 1009.6,-84.29"/>
<polygon fill="#528b8b" stroke="#528b8b" stroke-width="2" points="1009.48,-87.79 1019.73,-85.11 1010.05,-80.82 1009.48,-87.79"/>
</g>
<!-- src/test/asserts.ts -->
<g id="node9" class="node">
<title>src/test/asserts.ts</title>
<path fill="#79cdcd" stroke="#79cdcd" d="M882,-184C882,-184 832,-184 832,-184 826,-184 820,-178 820,-172 820,-172 820,-160 820,-160 820,-154 826,-148 832,-148 832,-148 882,-148 882,-148 888,-148 894,-154 894,-160 894,-160 894,-172 894,-172 894,-178 888,-184 882,-184"/>
<text text-anchor="middle" x="857" y="-162.3" font-family="Helvetica,sans-Serif" font-size="14.00">asserts.ts</text>
</g>
<!-- https://deno.land/std@0.121.0/testing/asserts.ts -->
<g id="node12" class="node">
<title>https://deno.land/std@0.121.0/testing/asserts.ts</title>
<polygon fill="#cdc8b1" stroke="#8b8878" points="1232,-334 934,-334 930,-330 930,-298 1228,-298 1232,-302 1232,-334"/>
<polyline fill="none" stroke="#8b8878" points="1228,-330 930,-330 "/>
<polyline fill="none" stroke="#8b8878" points="1228,-330 1228,-298 "/>
<polyline fill="none" stroke="#8b8878" points="1228,-330 1232,-334 "/>
<text text-anchor="middle" x="1081" y="-312.3" font-family="Helvetica,sans-Serif" font-size="14.00">https://deno.land/std@0.121.0/testing/asserts.ts</text>
</g>
<!-- src/test/asserts.ts&#45;&gt;https://deno.land/std@0.121.0/testing/asserts.ts -->
<g id="edge17" class="edge">
<title>src/test/asserts.ts&#45;&gt;https://deno.land/std@0.121.0/testing/asserts.ts</title>
<path fill="none" stroke="#8b8878" stroke-width="1.5" stroke-dasharray="5,2" d="M894.09,-180.58C897.03,-182.75 899.74,-185.22 902,-188 930.7,-223.3 898.54,-256.78 927.41,-290.56"/>
<polygon fill="#8b8878" stroke="#8b8878" stroke-width="1.5" points="925.02,-293.12 934.54,-297.77 930,-288.2 925.02,-293.12"/>
</g>
<!-- src/test/util.test.ts -->
<g id="node10" class="node">
<title>src/test/util.test.ts</title>
<path fill="#79cdcd" stroke="#79cdcd" d="M761,-184C761,-184 711,-184 711,-184 705,-184 699,-178 699,-172 699,-172 699,-160 699,-160 699,-154 705,-148 711,-148 711,-148 761,-148 761,-148 767,-148 773,-154 773,-160 773,-160 773,-172 773,-172 773,-178 767,-184 761,-184"/>
<text text-anchor="middle" x="736" y="-162.3" font-family="Helvetica,sans-Serif" font-size="14.00">util.test.ts</text>
</g>
<!-- src/test/util.test.ts&#45;&gt;src/util.ts -->
<g id="edge11" class="edge">
<title>src/test/util.test.ts&#45;&gt;src/util.ts</title>
<path fill="none" stroke="#528b8b" stroke-width="2" d="M773.46,-181.84C777.1,-183.78 780.67,-185.85 784,-188 801.73,-199.47 802.94,-206.57 820,-219 820.38,-219.28 820.77,-219.56 821.16,-219.84"/>
<polygon fill="#528b8b" stroke="#528b8b" stroke-width="2" points="819.47,-222.92 829.72,-225.63 823.4,-217.12 819.47,-222.92"/>
</g>
<!-- src/test/util.test.ts&#45;&gt;src/test/asserts.ts -->
<g id="edge10" class="edge">
<title>src/test/util.test.ts&#45;&gt;src/test/asserts.ts</title>
<path fill="none" stroke="#528b8b" stroke-width="2" d="M773.03,-166C784.46,-166 797.26,-166 809.33,-166"/>
<polygon fill="#528b8b" stroke="#528b8b" stroke-width="2" points="809.68,-169.5 819.68,-166 809.68,-162.5 809.68,-169.5"/>
</g>
</g>
</svg>
