<?xml version="1.0" encoding="UTF-8" standalone="no"?>
<!DOCTYPE svg PUBLIC "-//W3C//DTD SVG 1.1//EN"
 "http://www.w3.org/Graphics/SVG/1.1/DTD/svg11.dtd">
<!-- Generated by graphviz version 2.44.1 (20200629.0846)
 -->
<!-- Title: G Pages: 1 -->
<svg width="1447pt" height="1013pt"
 viewBox="0.00 0.00 1447.00 1013.18" xmlns="http://www.w3.org/2000/svg" xmlns:xlink="http://www.w3.org/1999/xlink">
<g id="graph0" class="graph" transform="scale(1 1) rotate(0) translate(4 1009.18)">
<title>G</title>
<polygon fill="white" stroke="transparent" points="-4,4 -4,-1009.18 1443,-1009.18 1443,4 -4,4"/>
<g id="clust1" class="cluster">
<title>cluster7963401700</title>
<path fill="bisque" stroke="#8b7d6b" stroke-width="2" d="M20,-101.38C20,-101.38 164,-101.38 164,-101.38 170,-101.38 176,-107.38 176,-113.38 176,-113.38 176,-272.38 176,-272.38 176,-278.38 170,-284.38 164,-284.38 164,-284.38 20,-284.38 20,-284.38 14,-284.38 8,-278.38 8,-272.38 8,-272.38 8,-113.38 8,-113.38 8,-107.38 14,-101.38 20,-101.38"/>
<text text-anchor="start" x="60.5" y="-270.18" font-family="Helvetica,sans-Serif" font-weight="bold" font-size="14.00">examples</text>
</g>
<g id="clust2" class="cluster">
<title>cluster7084021668</title>
<path fill="bisque" stroke="#8b7d6b" stroke-width="2" d="M200,-150.38C200,-150.38 1350,-150.38 1350,-150.38 1356,-150.38 1362,-156.38 1362,-162.38 1362,-162.38 1362,-770.38 1362,-770.38 1362,-776.38 1356,-782.38 1350,-782.38 1350,-782.38 200,-782.38 200,-782.38 194,-782.38 188,-776.38 188,-770.38 188,-770.38 188,-162.38 188,-162.38 188,-156.38 194,-150.38 200,-150.38"/>
<text text-anchor="start" x="764.5" y="-768.18" font-family="Helvetica,sans-Serif" font-weight="bold" font-size="14.00">src</text>
</g>
<g id="clust3" class="cluster">
<title>cluster1013305668</title>
<path fill="bisque" stroke="#8b7d6b" stroke-width="2" d="M208,-158.38C208,-158.38 632,-158.38 632,-158.38 638,-158.38 644,-164.38 644,-170.38 644,-170.38 644,-295.38 644,-295.38 644,-301.38 638,-307.38 632,-307.38 632,-307.38 208,-307.38 208,-307.38 202,-307.38 196,-301.38 196,-295.38 196,-295.38 196,-170.38 196,-170.38 196,-164.38 202,-158.38 208,-158.38"/>
<text text-anchor="start" x="407.5" y="-293.18" font-family="Helvetica,sans-Serif" font-weight="bold" font-size="14.00">test</text>
</g>
<!-- deps.ts -->
<g id="node1" class="node">
<title>deps.ts</title>
<path fill="#79cdcd" stroke="#79cdcd" d="M1100,-77.38C1100,-77.38 1064,-77.38 1064,-77.38 1058,-77.38 1052,-71.38 1052,-65.38 1052,-65.38 1052,-53.38 1052,-53.38 1052,-47.38 1058,-41.38 1064,-41.38 1064,-41.38 1100,-41.38 1100,-41.38 1106,-41.38 1112,-47.38 1112,-53.38 1112,-53.38 1112,-65.38 1112,-65.38 1112,-71.38 1106,-77.38 1100,-77.38"/>
<text text-anchor="middle" x="1082" y="-55.68" font-family="Helvetica,sans-Serif" font-size="14.00">deps.ts</text>
</g>
<!-- https://deno.land/x/crayon@2.3.1/mod.ts -->
<g id="node21" class="node">
<title>https://deno.land/x/crayon@2.3.1/mod.ts</title>
<polygon fill="#cdc8b1" stroke="#8b8878" points="1439,-104.38 1183,-104.38 1179,-100.38 1179,-68.38 1435,-68.38 1439,-72.38 1439,-104.38"/>
<polyline fill="none" stroke="#8b8878" points="1435,-100.38 1179,-100.38 "/>
<polyline fill="none" stroke="#8b8878" points="1435,-100.38 1435,-68.38 "/>
<polyline fill="none" stroke="#8b8878" points="1435,-100.38 1439,-104.38 "/>
<text text-anchor="middle" x="1309" y="-82.68" font-family="Helvetica,sans-Serif" font-size="14.00">https://deno.land/x/crayon@2.3.1/mod.ts</text>
</g>
<!-- deps.ts&#45;&gt;https://deno.land/x/crayon@2.3.1/mod.ts -->
<g id="edge59" class="edge">
<title>deps.ts&#45;&gt;https://deno.land/x/crayon@2.3.1/mod.ts</title>
<path fill="none" stroke="#8b8878" stroke-width="1.5" stroke-dasharray="5,2" d="M1112.41,-62.91C1127.69,-64.74 1147.57,-67.12 1168.8,-69.67"/>
<polygon fill="#8b8878" stroke="#8b8878" stroke-width="1.5" points="1168.63,-73.18 1178.98,-70.89 1169.47,-66.23 1168.63,-73.18"/>
</g>
<!-- https://deno.land/x/opine@2.1.1/mod.ts -->
<g id="node22" class="node">
<title>https://deno.land/x/opine@2.1.1/mod.ts</title>
<polygon fill="#cdc8b1" stroke="#8b8878" points="1435.5,-50.38 1186.5,-50.38 1182.5,-46.38 1182.5,-14.38 1431.5,-14.38 1435.5,-18.38 1435.5,-50.38"/>
<polyline fill="none" stroke="#8b8878" points="1431.5,-46.38 1182.5,-46.38 "/>
<polyline fill="none" stroke="#8b8878" points="1431.5,-46.38 1431.5,-14.38 "/>
<polyline fill="none" stroke="#8b8878" points="1431.5,-46.38 1435.5,-50.38 "/>
<text text-anchor="middle" x="1309" y="-28.68" font-family="Helvetica,sans-Serif" font-size="14.00">https://deno.land/x/opine@2.1.1/mod.ts</text>
</g>
<!-- deps.ts&#45;&gt;https://deno.land/x/opine@2.1.1/mod.ts -->
<g id="edge60" class="edge">
<title>deps.ts&#45;&gt;https://deno.land/x/opine@2.1.1/mod.ts</title>
<path fill="none" stroke="#8b8878" stroke-width="1.5" stroke-dasharray="5,2" d="M1112.41,-55.85C1128.5,-53.92 1149.7,-51.37 1172.2,-48.67"/>
<polygon fill="#8b8878" stroke="#8b8878" stroke-width="1.5" points="1172.75,-52.13 1182.27,-47.46 1171.92,-45.18 1172.75,-52.13"/>
</g>
<!-- mod.ts -->
<g id="node2" class="node">
<title>mod.ts</title>
<path fill="#79cdcd" stroke="#79cdcd" d="M282,-826.38C282,-826.38 248,-826.38 248,-826.38 242,-826.38 236,-820.38 236,-814.38 236,-814.38 236,-802.38 236,-802.38 236,-796.38 242,-790.38 248,-790.38 248,-790.38 282,-790.38 282,-790.38 288,-790.38 294,-796.38 294,-802.38 294,-802.38 294,-814.38 294,-814.38 294,-820.38 288,-826.38 282,-826.38"/>
<text text-anchor="middle" x="265" y="-804.68" font-family="Helvetica,sans-Serif" font-size="14.00">mod.ts</text>
</g>
<!-- src/connection.ts -->
<g id="node6" class="node">
<title>src/connection.ts</title>
<path fill="#79cdcd" stroke="#79cdcd" d="M635,-611.38C635,-611.38 563,-611.38 563,-611.38 557,-611.38 551,-605.38 551,-599.38 551,-599.38 551,-587.38 551,-587.38 551,-581.38 557,-575.38 563,-575.38 563,-575.38 635,-575.38 635,-575.38 641,-575.38 647,-581.38 647,-587.38 647,-587.38 647,-599.38 647,-599.38 647,-605.38 641,-611.38 635,-611.38"/>
<text text-anchor="middle" x="599" y="-589.68" font-family="Helvetica,sans-Serif" font-size="14.00">connection.ts</text>
</g>
<!-- mod.ts&#45;&gt;src/connection.ts -->
<g id="edge7" class="edge">
<title>mod.ts&#45;&gt;src/connection.ts</title>
<path fill="none" stroke="#528b8b" stroke-width="2" d="M294.11,-794.46C313.01,-785.44 338.65,-773.83 362,-765.38 428.41,-741.32 458.2,-764.36 515,-722.38 550.21,-696.35 574.43,-650.54 587.25,-621.1"/>
<polygon fill="#528b8b" stroke="#528b8b" stroke-width="2" points="590.51,-622.37 591.16,-611.8 584.06,-619.66 590.51,-622.37"/>
</g>
<!-- src/errors.ts -->
<g id="node7" class="node">
<title>src/errors.ts</title>
<path fill="#79cdcd" stroke="#79cdcd" d="M1103,-710.38C1103,-710.38 1061,-710.38 1061,-710.38 1055,-710.38 1049,-704.38 1049,-698.38 1049,-698.38 1049,-686.38 1049,-686.38 1049,-680.38 1055,-674.38 1061,-674.38 1061,-674.38 1103,-674.38 1103,-674.38 1109,-674.38 1115,-680.38 1115,-686.38 1115,-686.38 1115,-698.38 1115,-698.38 1115,-704.38 1109,-710.38 1103,-710.38"/>
<text text-anchor="middle" x="1082" y="-688.68" font-family="Helvetica,sans-Serif" font-size="14.00">errors.ts</text>
</g>
<!-- mod.ts&#45;&gt;src/errors.ts -->
<g id="edge8" class="edge">
<title>mod.ts&#45;&gt;src/errors.ts</title>
<path fill="none" stroke="#528b8b" stroke-width="2" d="M276.9,-826.53C292.37,-850.32 323.2,-890.95 362,-907.38 616.99,-1015.3 752.7,-1058.06 985,-907.38 1049.72,-865.39 1071.19,-768.46 1078,-720.42"/>
<polygon fill="#528b8b" stroke="#528b8b" stroke-width="2" points="1081.49,-720.77 1079.31,-710.4 1074.55,-719.86 1081.49,-720.77"/>
</g>
<!-- src/transport&#45;http&#45;client.ts -->
<g id="node9" class="node">
<title>src/transport&#45;http&#45;client.ts</title>
<path fill="#79cdcd" stroke="#79cdcd" d="M500,-713.38C500,-713.38 377,-713.38 377,-713.38 371,-713.38 365,-707.38 365,-701.38 365,-701.38 365,-689.38 365,-689.38 365,-683.38 371,-677.38 377,-677.38 377,-677.38 500,-677.38 500,-677.38 506,-677.38 512,-683.38 512,-689.38 512,-689.38 512,-701.38 512,-701.38 512,-707.38 506,-713.38 500,-713.38"/>
<text text-anchor="middle" x="438.5" y="-691.68" font-family="Helvetica,sans-Serif" font-size="14.00">transport&#45;http&#45;client.ts</text>
</g>
<!-- mod.ts&#45;&gt;src/transport&#45;http&#45;client.ts -->
<g id="edge9" class="edge">
<title>mod.ts&#45;&gt;src/transport&#45;http&#45;client.ts</title>
<path fill="none" stroke="#528b8b" stroke-width="2" d="M284.18,-790.12C302.58,-772.38 332.46,-745.52 362,-727.38 367.49,-724 373.4,-720.82 379.42,-717.87"/>
<polygon fill="#528b8b" stroke="#528b8b" stroke-width="2" points="381.33,-720.84 388.9,-713.42 378.36,-714.5 381.33,-720.84"/>
</g>
<!-- src/transport&#45;http&#45;server.ts -->
<g id="node10" class="node">
<title>src/transport&#45;http&#45;server.ts</title>
<path fill="#79cdcd" stroke="#79cdcd" d="M503,-474.38C503,-474.38 374,-474.38 374,-474.38 368,-474.38 362,-468.38 362,-462.38 362,-462.38 362,-450.38 362,-450.38 362,-444.38 368,-438.38 374,-438.38 374,-438.38 503,-438.38 503,-438.38 509,-438.38 515,-444.38 515,-450.38 515,-450.38 515,-462.38 515,-462.38 515,-468.38 509,-474.38 503,-474.38"/>
<text text-anchor="middle" x="438.5" y="-452.68" font-family="Helvetica,sans-Serif" font-size="14.00">transport&#45;http&#45;server.ts</text>
</g>
<!-- mod.ts&#45;&gt;src/transport&#45;http&#45;server.ts -->
<g id="edge10" class="edge">
<title>mod.ts&#45;&gt;src/transport&#45;http&#45;server.ts</title>
<path fill="none" stroke="#528b8b" stroke-width="2" d="M274.98,-789.95C303.23,-731.97 390.39,-553.07 424.05,-483.99"/>
<polygon fill="#528b8b" stroke="#528b8b" stroke-width="2" points="427.38,-485.15 428.61,-474.62 421.08,-482.08 427.38,-485.15"/>
</g>
<!-- src/transport&#45;local.ts -->
<g id="node11" class="node">
<title>src/transport&#45;local.ts</title>
<path fill="#79cdcd" stroke="#79cdcd" d="M484.5,-384.38C484.5,-384.38 392.5,-384.38 392.5,-384.38 386.5,-384.38 380.5,-378.38 380.5,-372.38 380.5,-372.38 380.5,-360.38 380.5,-360.38 380.5,-354.38 386.5,-348.38 392.5,-348.38 392.5,-348.38 484.5,-348.38 484.5,-348.38 490.5,-348.38 496.5,-354.38 496.5,-360.38 496.5,-360.38 496.5,-372.38 496.5,-372.38 496.5,-378.38 490.5,-384.38 484.5,-384.38"/>
<text text-anchor="middle" x="438.5" y="-362.68" font-family="Helvetica,sans-Serif" font-size="14.00">transport&#45;local.ts</text>
</g>
<!-- mod.ts&#45;&gt;src/transport&#45;local.ts -->
<g id="edge11" class="edge">
<title>mod.ts&#45;&gt;src/transport&#45;local.ts</title>
<path fill="none" stroke="#528b8b" stroke-width="2" d="M266.7,-790.25C269.67,-732.85 284.99,-551.74 362,-429.38 371.49,-414.3 385.78,-401.05 399.39,-390.64"/>
<polygon fill="#528b8b" stroke="#528b8b" stroke-width="2" points="401.73,-393.26 407.73,-384.53 397.59,-387.62 401.73,-393.26"/>
</g>
<!-- src/types&#45;envelope.ts -->
<g id="node13" class="node">
<title>src/types&#45;envelope.ts</title>
<path fill="#79cdcd" stroke="#79cdcd" d="M1131,-520.38C1131,-520.38 1033,-520.38 1033,-520.38 1027,-520.38 1021,-514.38 1021,-508.38 1021,-508.38 1021,-496.38 1021,-496.38 1021,-490.38 1027,-484.38 1033,-484.38 1033,-484.38 1131,-484.38 1131,-484.38 1137,-484.38 1143,-490.38 1143,-496.38 1143,-496.38 1143,-508.38 1143,-508.38 1143,-514.38 1137,-520.38 1131,-520.38"/>
<text text-anchor="middle" x="1082" y="-498.68" font-family="Helvetica,sans-Serif" font-size="14.00">types&#45;envelope.ts</text>
</g>
<!-- mod.ts&#45;&gt;src/types&#45;envelope.ts -->
<g id="edge12" class="edge">
<title>mod.ts&#45;&gt;src/types&#45;envelope.ts</title>
<path fill="none" stroke="#528b8b" stroke-width="2" d="M294.19,-817.74C313.13,-823.53 338.77,-830.4 362,-833.38 487.84,-849.49 523.5,-846.41 647,-817.38 802.18,-780.9 879.84,-817.18 985,-697.38 1035.37,-639.98 973.01,-588.78 1021,-529.38 1021.6,-528.64 1022.22,-527.92 1022.86,-527.22"/>
<polygon fill="#528b8b" stroke="#528b8b" stroke-width="2" points="1025.36,-529.68 1030.51,-520.42 1020.71,-524.45 1025.36,-529.68"/>
</g>
<!-- src/types.ts -->
<g id="node14" class="node">
<title>src/types.ts</title>
<path fill="#79cdcd" stroke="#79cdcd" d="M853.5,-534.38C853.5,-534.38 814.5,-534.38 814.5,-534.38 808.5,-534.38 802.5,-528.38 802.5,-522.38 802.5,-522.38 802.5,-510.38 802.5,-510.38 802.5,-504.38 808.5,-498.38 814.5,-498.38 814.5,-498.38 853.5,-498.38 853.5,-498.38 859.5,-498.38 865.5,-504.38 865.5,-510.38 865.5,-510.38 865.5,-522.38 865.5,-522.38 865.5,-528.38 859.5,-534.38 853.5,-534.38"/>
<text text-anchor="middle" x="834" y="-512.68" font-family="Helvetica,sans-Serif" font-size="14.00">types.ts</text>
</g>
<!-- mod.ts&#45;&gt;src/types.ts -->
<g id="edge13" class="edge">
<title>mod.ts&#45;&gt;src/types.ts</title>
<path fill="none" stroke="#528b8b" stroke-width="2" d="M294.13,-806.68C341.62,-802.94 439.83,-791.42 515,-757.38 578.39,-728.67 738.14,-596.59 803.96,-541.07"/>
<polygon fill="#528b8b" stroke="#528b8b" stroke-width="2" points="806.5,-543.51 811.88,-534.38 801.98,-538.16 806.5,-543.51"/>
</g>
<!-- src/util.ts -->
<g id="node15" class="node">
<title>src/util.ts</title>
<path fill="#79cdcd" stroke="#79cdcd" d="M849,-688.38C849,-688.38 819,-688.38 819,-688.38 813,-688.38 807,-682.38 807,-676.38 807,-676.38 807,-664.38 807,-664.38 807,-658.38 813,-652.38 819,-652.38 819,-652.38 849,-652.38 849,-652.38 855,-652.38 861,-658.38 861,-664.38 861,-664.38 861,-676.38 861,-676.38 861,-682.38 855,-688.38 849,-688.38"/>
<text text-anchor="middle" x="834" y="-666.68" font-family="Helvetica,sans-Serif" font-size="14.00">util.ts</text>
</g>
<!-- mod.ts&#45;&gt;src/util.ts -->
<g id="edge14" class="edge">
<title>mod.ts&#45;&gt;src/util.ts</title>
<path fill="none" stroke="#528b8b" stroke-width="2" d="M294.15,-812.31C358.52,-820.23 520.67,-834.09 647,-793.38 710.11,-773.03 772.03,-724.86 806.1,-695.19"/>
<polygon fill="#528b8b" stroke="#528b8b" stroke-width="2" points="808.57,-697.68 813.74,-688.44 803.93,-692.44 808.57,-697.68"/>
</g>
<!-- src/watchable.ts -->
<g id="node16" class="node">
<title>src/watchable.ts</title>
<path fill="#79cdcd" stroke="#79cdcd" d="M1116,-574.38C1116,-574.38 1048,-574.38 1048,-574.38 1042,-574.38 1036,-568.38 1036,-562.38 1036,-562.38 1036,-550.38 1036,-550.38 1036,-544.38 1042,-538.38 1048,-538.38 1048,-538.38 1116,-538.38 1116,-538.38 1122,-538.38 1128,-544.38 1128,-550.38 1128,-550.38 1128,-562.38 1128,-562.38 1128,-568.38 1122,-574.38 1116,-574.38"/>
<text text-anchor="middle" x="1082" y="-552.68" font-family="Helvetica,sans-Serif" font-size="14.00">watchable.ts</text>
</g>
<!-- mod.ts&#45;&gt;src/watchable.ts -->
<g id="edge15" class="edge">
<title>mod.ts&#45;&gt;src/watchable.ts</title>
<path fill="none" stroke="#528b8b" stroke-width="2" d="M286.75,-826.54C305.11,-841.32 333.37,-861.05 362,-869.38 428.47,-888.71 931.97,-913.87 985,-869.38 1055.53,-810.2 990.39,-752.21 1021,-665.38 1031.49,-635.61 1049.56,-604.31 1063.13,-582.93"/>
<polygon fill="#528b8b" stroke="#528b8b" stroke-width="2" points="1066.15,-584.7 1068.64,-574.4 1060.27,-580.9 1066.15,-584.7"/>
</g>
<!-- examples/example&#45;http&#45;client.ts -->
<g id="node3" class="node">
<title>examples/example&#45;http&#45;client.ts</title>
<path fill="#79cdcd" stroke="#79cdcd" d="M153,-253.38C153,-253.38 31,-253.38 31,-253.38 25,-253.38 19,-247.38 19,-241.38 19,-241.38 19,-229.38 19,-229.38 19,-223.38 25,-217.38 31,-217.38 31,-217.38 153,-217.38 153,-217.38 159,-217.38 165,-223.38 165,-229.38 165,-229.38 165,-241.38 165,-241.38 165,-247.38 159,-253.38 153,-253.38"/>
<text text-anchor="middle" x="92" y="-231.68" font-family="Helvetica,sans-Serif" font-size="14.00">example&#45;http&#45;client.ts</text>
</g>
<!-- examples/example&#45;http&#45;client.ts&#45;&gt;mod.ts -->
<g id="edge1" class="edge">
<title>examples/example&#45;http&#45;client.ts&#45;&gt;mod.ts</title>
<path fill="none" stroke="#528b8b" stroke-width="2" d="M98.4,-253.47C123.13,-336.33 225.64,-679.83 255.69,-780.52"/>
<polygon fill="#528b8b" stroke="#528b8b" stroke-width="2" points="252.39,-781.69 258.6,-790.28 259.09,-779.69 252.39,-781.69"/>
</g>
<!-- examples/example&#45;http&#45;server.ts -->
<g id="node4" class="node">
<title>examples/example&#45;http&#45;server.ts</title>
<path fill="#79cdcd" stroke="#79cdcd" d="M156,-199.38C156,-199.38 28,-199.38 28,-199.38 22,-199.38 16,-193.38 16,-187.38 16,-187.38 16,-175.38 16,-175.38 16,-169.38 22,-163.38 28,-163.38 28,-163.38 156,-163.38 156,-163.38 162,-163.38 168,-169.38 168,-175.38 168,-175.38 168,-187.38 168,-187.38 168,-193.38 162,-199.38 156,-199.38"/>
<text text-anchor="middle" x="92" y="-177.68" font-family="Helvetica,sans-Serif" font-size="14.00">example&#45;http&#45;server.ts</text>
</g>
<!-- examples/example&#45;http&#45;server.ts&#45;&gt;deps.ts -->
<g id="edge3" class="edge">
<title>examples/example&#45;http&#45;server.ts&#45;&gt;deps.ts</title>
<path fill="none" stroke="#528b8b" stroke-width="2" d="M153.62,-163.33C165,-160.18 176.83,-157.05 188,-154.38 406.01,-102.13 459.86,-79.03 683,-57.38 816.59,-44.41 850.79,-55.98 985,-57.38 1003.5,-57.57 1024,-57.97 1041.29,-58.36"/>
<polygon fill="#528b8b" stroke="#528b8b" stroke-width="2" points="1041.51,-61.87 1051.59,-58.6 1041.68,-54.87 1041.51,-61.87"/>
</g>
<!-- examples/example&#45;http&#45;server.ts&#45;&gt;mod.ts -->
<g id="edge2" class="edge">
<title>examples/example&#45;http&#45;server.ts&#45;&gt;mod.ts</title>
<path fill="none" stroke="#528b8b" stroke-width="2" d="M166.48,-199.39C170,-202 173.22,-204.98 176,-208.38 190.6,-226.2 184.92,-288.54 188,-311.38 212.09,-490.3 246.86,-704.52 259.33,-780.21"/>
<polygon fill="#528b8b" stroke="#528b8b" stroke-width="2" points="255.92,-781.06 261.01,-790.36 262.83,-779.92 255.92,-781.06"/>
</g>
<!-- examples/example.ts -->
<g id="node5" class="node">
<title>examples/example.ts</title>
<path fill="#79cdcd" stroke="#79cdcd" d="M121.5,-145.38C121.5,-145.38 62.5,-145.38 62.5,-145.38 56.5,-145.38 50.5,-139.38 50.5,-133.38 50.5,-133.38 50.5,-121.38 50.5,-121.38 50.5,-115.38 56.5,-109.38 62.5,-109.38 62.5,-109.38 121.5,-109.38 121.5,-109.38 127.5,-109.38 133.5,-115.38 133.5,-121.38 133.5,-121.38 133.5,-133.38 133.5,-133.38 133.5,-139.38 127.5,-145.38 121.5,-145.38"/>
<text text-anchor="middle" x="92" y="-123.68" font-family="Helvetica,sans-Serif" font-size="14.00">example.ts</text>
</g>
<!-- examples/example.ts&#45;&gt;deps.ts -->
<g id="edge6" class="edge">
<title>examples/example.ts&#45;&gt;deps.ts</title>
<path fill="none" stroke="#528b8b" stroke-width="2" d="M121.67,-109.2C179.18,-74.53 313.75,-2.38 437.5,-2.38 437.5,-2.38 437.5,-2.38 600,-2.38 771.44,-2.38 816.86,7.13 985,-26.38 1004.22,-30.2 1024.85,-36.93 1042.04,-43.32"/>
<polygon fill="#528b8b" stroke="#528b8b" stroke-width="2" points="1041.14,-46.72 1051.73,-47.01 1043.64,-40.18 1041.14,-46.72"/>
</g>
<!-- examples/example.ts&#45;&gt;mod.ts -->
<g id="edge4" class="edge">
<title>examples/example.ts&#45;&gt;mod.ts</title>
<path fill="none" stroke="#528b8b" stroke-width="2" d="M133.57,-131.02C149.23,-134.57 165.79,-141.39 176,-154.38 186.81,-168.13 186.01,-293.99 188,-311.38 208.49,-490.33 245.33,-703.7 258.85,-779.74"/>
<polygon fill="#528b8b" stroke="#528b8b" stroke-width="2" points="255.46,-780.71 260.67,-789.94 262.35,-779.48 255.46,-780.71"/>
</g>
<!-- src/log.ts -->
<g id="node8" class="node">
<title>src/log.ts</title>
<path fill="#79cdcd" stroke="#79cdcd" d="M849,-411.38C849,-411.38 819,-411.38 819,-411.38 813,-411.38 807,-405.38 807,-399.38 807,-399.38 807,-387.38 807,-387.38 807,-381.38 813,-375.38 819,-375.38 819,-375.38 849,-375.38 849,-375.38 855,-375.38 861,-381.38 861,-387.38 861,-387.38 861,-399.38 861,-399.38 861,-405.38 855,-411.38 849,-411.38"/>
<text text-anchor="middle" x="834" y="-389.68" font-family="Helvetica,sans-Serif" font-size="14.00">log.ts</text>
</g>
<!-- examples/example.ts&#45;&gt;src/log.ts -->
<g id="edge5" class="edge">
<title>examples/example.ts&#45;&gt;src/log.ts</title>
<path fill="none" stroke="#528b8b" stroke-width="2" d="M133.51,-118.5C229.25,-99.74 474.38,-64.71 647,-154.38 737.3,-201.28 797.37,-313.85 821.31,-366"/>
<polygon fill="#528b8b" stroke="#528b8b" stroke-width="2" points="818.19,-367.61 825.49,-375.3 824.58,-364.74 818.19,-367.61"/>
</g>
<!-- src/connection.ts&#45;&gt;src/errors.ts -->
<g id="edge16" class="edge">
<title>src/connection.ts&#45;&gt;src/errors.ts</title>
<path fill="none" stroke="#528b8b" stroke-width="2" d="M647.19,-597.47C735.6,-605.48 922.87,-624.12 985,-643.38 1004.91,-649.55 1025.66,-659.62 1042.76,-669.04"/>
<polygon fill="#528b8b" stroke="#528b8b" stroke-width="2" points="1041.43,-672.3 1051.86,-674.17 1044.87,-666.21 1041.43,-672.3"/>
</g>
<!-- src/connection.ts&#45;&gt;src/log.ts -->
<g id="edge22" class="edge">
<title>src/connection.ts&#45;&gt;src/log.ts</title>
<path fill="none" stroke="#528b8b" stroke-width="2" d="M617.57,-575.11C626.67,-565.37 637.78,-553.01 647,-541.38 664.46,-519.35 662.77,-508.89 683,-489.38 717.64,-455.97 765.6,-427.7 797.88,-410.67"/>
<polygon fill="#528b8b" stroke="#528b8b" stroke-width="2" points="799.69,-413.67 806.96,-405.96 796.47,-407.46 799.69,-413.67"/>
</g>
<!-- src/types&#45;bag.ts -->
<g id="node12" class="node">
<title>src/types&#45;bag.ts</title>
<path fill="#79cdcd" stroke="#79cdcd" d="M1342,-483.38C1342,-483.38 1276,-483.38 1276,-483.38 1270,-483.38 1264,-477.38 1264,-471.38 1264,-471.38 1264,-459.38 1264,-459.38 1264,-453.38 1270,-447.38 1276,-447.38 1276,-447.38 1342,-447.38 1342,-447.38 1348,-447.38 1354,-453.38 1354,-459.38 1354,-459.38 1354,-471.38 1354,-471.38 1354,-477.38 1348,-483.38 1342,-483.38"/>
<text text-anchor="middle" x="1309" y="-461.68" font-family="Helvetica,sans-Serif" font-size="14.00">types&#45;bag.ts</text>
</g>
<!-- src/connection.ts&#45;&gt;src/types&#45;bag.ts -->
<g id="edge18" class="edge">
<title>src/connection.ts&#45;&gt;src/types&#45;bag.ts</title>
<path fill="none" stroke="#528b8b" stroke-width="2" d="M647.42,-594.11C771.03,-595.79 1096.73,-598.69 1143,-583.38 1199.16,-564.79 1252.67,-519.78 1282.82,-491.04"/>
<polygon fill="#528b8b" stroke="#528b8b" stroke-width="2" points="1285.59,-493.22 1290.33,-483.75 1280.71,-488.2 1285.59,-493.22"/>
</g>
<!-- src/connection.ts&#45;&gt;src/types&#45;envelope.ts -->
<g id="edge19" class="edge">
<title>src/connection.ts&#45;&gt;src/types&#45;envelope.ts</title>
<path fill="none" stroke="#528b8b" stroke-width="2" d="M636.73,-575.22C650.86,-569.08 667.35,-562.89 683,-559.38 814.15,-529.93 854.08,-573.79 985,-543.38 990.17,-542.17 1010.72,-533.48 1031.48,-524.41"/>
<polygon fill="#528b8b" stroke="#528b8b" stroke-width="2" points="1032.91,-527.61 1040.66,-520.38 1030.1,-521.2 1032.91,-527.61"/>
</g>
<!-- src/connection.ts&#45;&gt;src/types.ts -->
<g id="edge17" class="edge">
<title>src/connection.ts&#45;&gt;src/types.ts</title>
<path fill="none" stroke="#528b8b" stroke-width="2" d="M628.61,-575.21C644.19,-566.02 664.09,-555.35 683,-548.38 718.91,-535.12 761.79,-526.67 792.49,-521.79"/>
<polygon fill="#528b8b" stroke="#528b8b" stroke-width="2" points="793.05,-525.25 802.4,-520.28 791.99,-518.33 793.05,-525.25"/>
</g>
<!-- src/connection.ts&#45;&gt;src/util.ts -->
<g id="edge21" class="edge">
<title>src/connection.ts&#45;&gt;src/util.ts</title>
<path fill="none" stroke="#528b8b" stroke-width="2" d="M640.13,-611.5C653.61,-617.27 668.83,-623.43 683,-628.38 721.42,-641.8 766.5,-653.95 797.14,-661.69"/>
<polygon fill="#528b8b" stroke="#528b8b" stroke-width="2" points="796.4,-665.11 806.95,-664.14 798.09,-658.32 796.4,-665.11"/>
</g>
<!-- src/connection.ts&#45;&gt;src/watchable.ts -->
<g id="edge20" class="edge">
<title>src/connection.ts&#45;&gt;src/watchable.ts</title>
<path fill="none" stroke="#528b8b" stroke-width="2" d="M647.44,-589.73C736.96,-582.84 930.38,-567.96 1025.66,-560.63"/>
<polygon fill="#528b8b" stroke="#528b8b" stroke-width="2" points="1025.98,-564.12 1035.68,-559.86 1025.44,-557.14 1025.98,-564.12"/>
</g>
<!-- src/log.ts&#45;&gt;deps.ts -->
<g id="edge23" class="edge">
<title>src/log.ts&#45;&gt;deps.ts</title>
<path fill="none" stroke="#528b8b" stroke-width="2" d="M848.58,-374.94C889.74,-319.06 1013.26,-151.35 1061.44,-85.93"/>
<polygon fill="#528b8b" stroke="#528b8b" stroke-width="2" points="1064.35,-87.88 1067.47,-77.75 1058.72,-83.73 1064.35,-87.88"/>
</g>
<!-- src/transport&#45;http&#45;client.ts&#45;&gt;src/connection.ts -->
<g id="edge38" class="edge">
<title>src/transport&#45;http&#45;client.ts&#45;&gt;src/connection.ts</title>
<path fill="none" stroke="#528b8b" stroke-width="2" d="M467.47,-677.37C493.57,-660.58 532.66,-635.42 561.26,-617.02"/>
<polygon fill="#528b8b" stroke="#528b8b" stroke-width="2" points="563.26,-619.89 569.77,-611.54 559.47,-614.01 563.26,-619.89"/>
</g>
<!-- src/transport&#45;http&#45;client.ts&#45;&gt;src/errors.ts -->
<g id="edge34" class="edge">
<title>src/transport&#45;http&#45;client.ts&#45;&gt;src/errors.ts</title>
<path fill="none" stroke="#528b8b" stroke-width="2" d="M512.12,-710.32C525.02,-712.42 538.36,-714.25 551,-715.38 743.13,-732.47 793.44,-738 985,-715.38 1002.9,-713.26 1022.3,-709 1038.94,-704.72"/>
<polygon fill="#528b8b" stroke="#528b8b" stroke-width="2" points="1040.14,-708.02 1048.9,-702.07 1038.34,-701.25 1040.14,-708.02"/>
</g>
<!-- src/transport&#45;http&#45;client.ts&#45;&gt;src/log.ts -->
<g id="edge39" class="edge">
<title>src/transport&#45;http&#45;client.ts&#45;&gt;src/log.ts</title>
<path fill="none" stroke="#528b8b" stroke-width="2" d="M448.99,-677.15C465.95,-646.01 504.09,-582 551,-541.38 628.08,-474.62 740.46,-427.24 797.27,-405.96"/>
<polygon fill="#528b8b" stroke="#528b8b" stroke-width="2" points="798.72,-409.16 806.89,-402.41 796.29,-402.59 798.72,-409.16"/>
</g>
<!-- src/transport&#45;http&#45;client.ts&#45;&gt;src/types&#45;bag.ts -->
<g id="edge33" class="edge">
<title>src/transport&#45;http&#45;client.ts&#45;&gt;src/types&#45;bag.ts</title>
<path fill="none" stroke="#528b8b" stroke-width="2" d="M488.49,-713.5C609.29,-754.91 927.24,-843.67 1143,-719.38 1231.82,-668.21 1281.05,-547.69 1299.48,-493.1"/>
<polygon fill="#528b8b" stroke="#528b8b" stroke-width="2" points="1302.87,-494 1302.66,-483.41 1296.21,-491.82 1302.87,-494"/>
</g>
<!-- src/transport&#45;http&#45;client.ts&#45;&gt;src/types.ts -->
<g id="edge35" class="edge">
<title>src/transport&#45;http&#45;client.ts&#45;&gt;src/types.ts</title>
<path fill="none" stroke="#528b8b" stroke-width="2" d="M449.85,-677.04C466.96,-648.5 504,-593.91 551,-566.38 571.52,-554.35 718.9,-532.37 792.04,-522.03"/>
<polygon fill="#528b8b" stroke="#528b8b" stroke-width="2" points="792.86,-525.45 802.27,-520.59 791.88,-518.52 792.86,-525.45"/>
</g>
<!-- src/transport&#45;http&#45;client.ts&#45;&gt;src/util.ts -->
<g id="edge37" class="edge">
<title>src/transport&#45;http&#45;client.ts&#45;&gt;src/util.ts</title>
<path fill="none" stroke="#528b8b" stroke-width="2" d="M512.13,-690.76C596.49,-685.4 732.29,-676.77 796.77,-672.68"/>
<polygon fill="#528b8b" stroke="#528b8b" stroke-width="2" points="797.09,-676.16 806.85,-672.04 796.65,-669.18 797.09,-676.16"/>
</g>
<!-- src/transport&#45;http&#45;client.ts&#45;&gt;src/watchable.ts -->
<g id="edge36" class="edge">
<title>src/transport&#45;http&#45;client.ts&#45;&gt;src/watchable.ts</title>
<path fill="none" stroke="#528b8b" stroke-width="2" d="M512.04,-699.41C650.93,-706.58 944.32,-718.89 985,-697.38 1008.47,-684.96 1046.16,-620.77 1066.63,-583.42"/>
<polygon fill="#528b8b" stroke="#528b8b" stroke-width="2" points="1069.75,-585 1071.45,-574.55 1063.6,-581.66 1069.75,-585"/>
</g>
<!-- src/transport&#45;http&#45;server.ts&#45;&gt;deps.ts -->
<g id="edge47" class="edge">
<title>src/transport&#45;http&#45;server.ts&#45;&gt;deps.ts</title>
<path fill="none" stroke="#528b8b" stroke-width="2" d="M470.74,-438.11C486.58,-427.18 504.62,-411.82 515,-393.38 567.67,-299.75 485.45,-239.48 551,-154.38 610.89,-76.62 929.1,-62.51 1041.58,-59.94"/>
<polygon fill="#528b8b" stroke="#528b8b" stroke-width="2" points="1041.88,-63.44 1051.8,-59.73 1041.73,-56.44 1041.88,-63.44"/>
</g>
<!-- src/transport&#45;http&#45;server.ts&#45;&gt;src/connection.ts -->
<g id="edge45" class="edge">
<title>src/transport&#45;http&#45;server.ts&#45;&gt;src/connection.ts</title>
<path fill="none" stroke="#528b8b" stroke-width="2" d="M460.55,-474.57C488.38,-498.62 537.54,-541.12 568.91,-568.23"/>
<polygon fill="#528b8b" stroke="#528b8b" stroke-width="2" points="567.01,-571.22 576.87,-575.11 571.59,-565.92 567.01,-571.22"/>
</g>
<!-- src/transport&#45;http&#45;server.ts&#45;&gt;src/log.ts -->
<g id="edge46" class="edge">
<title>src/transport&#45;http&#45;server.ts&#45;&gt;src/log.ts</title>
<path fill="none" stroke="#528b8b" stroke-width="2" d="M475.71,-438.32C497.07,-428.55 524.95,-417.3 551,-411.38 637.55,-391.69 742.63,-390.84 796.81,-392.03"/>
<polygon fill="#528b8b" stroke="#528b8b" stroke-width="2" points="796.86,-395.53 806.94,-392.29 797.04,-388.54 796.86,-395.53"/>
</g>
<!-- src/transport&#45;http&#45;server.ts&#45;&gt;src/types&#45;bag.ts -->
<g id="edge40" class="edge">
<title>src/transport&#45;http&#45;server.ts&#45;&gt;src/types&#45;bag.ts</title>
<path fill="none" stroke="#528b8b" stroke-width="2" d="M515.16,-441.8C527.11,-439.98 539.36,-438.4 551,-437.38 609.44,-432.21 624.33,-436.6 683,-436.38 817.22,-435.87 850.91,-430.37 985,-436.38 1079.7,-440.62 1189.56,-451.83 1253.67,-459"/>
<polygon fill="#528b8b" stroke="#528b8b" stroke-width="2" points="1253.61,-462.52 1263.94,-460.16 1254.39,-455.56 1253.61,-462.52"/>
</g>
<!-- src/transport&#45;http&#45;server.ts&#45;&gt;src/types&#45;envelope.ts -->
<g id="edge42" class="edge">
<title>src/transport&#45;http&#45;server.ts&#45;&gt;src/types&#45;envelope.ts</title>
<path fill="none" stroke="#528b8b" stroke-width="2" d="M515.04,-448.79C621.24,-440.12 820.15,-431.16 985,-465.38 1001.07,-468.71 1017.97,-474.42 1033.03,-480.36"/>
<polygon fill="#528b8b" stroke="#528b8b" stroke-width="2" points="1032.06,-483.75 1042.64,-484.28 1034.7,-477.27 1032.06,-483.75"/>
</g>
<!-- src/transport&#45;http&#45;server.ts&#45;&gt;src/types.ts -->
<g id="edge41" class="edge">
<title>src/transport&#45;http&#45;server.ts&#45;&gt;src/types.ts</title>
<path fill="none" stroke="#528b8b" stroke-width="2" d="M515.17,-474.38C527.12,-476.92 539.37,-479.35 551,-481.38 636.39,-496.21 737.38,-507.17 792.36,-512.58"/>
<polygon fill="#528b8b" stroke="#528b8b" stroke-width="2" points="792.1,-516.07 802.39,-513.56 792.78,-509.11 792.1,-516.07"/>
</g>
<!-- src/transport&#45;http&#45;server.ts&#45;&gt;src/util.ts -->
<g id="edge43" class="edge">
<title>src/transport&#45;http&#45;server.ts&#45;&gt;src/util.ts</title>
<path fill="none" stroke="#528b8b" stroke-width="2" d="M444.95,-474.61C457.13,-511.91 490.38,-596.64 551,-635.38 590.95,-660.91 729.89,-667.83 796.65,-669.69"/>
<polygon fill="#528b8b" stroke="#528b8b" stroke-width="2" points="796.63,-673.2 806.71,-669.95 796.81,-666.2 796.63,-673.2"/>
</g>
<!-- src/transport&#45;http&#45;server.ts&#45;&gt;src/watchable.ts -->
<g id="edge44" class="edge">
<title>src/transport&#45;http&#45;server.ts&#45;&gt;src/watchable.ts</title>
<path fill="none" stroke="#528b8b" stroke-width="2" d="M515.13,-457.78C655.03,-460.85 943.79,-469.51 985,-489.38 1006.54,-499.76 1001.68,-515.28 1021,-529.38 1022.87,-530.74 1024.83,-532.06 1026.84,-533.34"/>
<polygon fill="#528b8b" stroke="#528b8b" stroke-width="2" points="1025.53,-536.62 1035.93,-538.6 1029.03,-530.56 1025.53,-536.62"/>
</g>
<!-- src/transport&#45;local.ts&#45;&gt;src/connection.ts -->
<g id="edge52" class="edge">
<title>src/transport&#45;local.ts&#45;&gt;src/connection.ts</title>
<path fill="none" stroke="#528b8b" stroke-width="2" d="M466.32,-384.51C481.93,-396.03 501.18,-412.01 515,-429.38 549.17,-472.33 574.9,-531.61 588.1,-565.88"/>
<polygon fill="#528b8b" stroke="#528b8b" stroke-width="2" points="584.83,-567.13 591.64,-575.25 591.38,-564.66 584.83,-567.13"/>
</g>
<!-- src/transport&#45;local.ts&#45;&gt;src/log.ts -->
<g id="edge53" class="edge">
<title>src/transport&#45;local.ts&#45;&gt;src/log.ts</title>
<path fill="none" stroke="#528b8b" stroke-width="2" d="M496.72,-370.3C578.87,-375.94 727.87,-386.16 796.55,-390.87"/>
<polygon fill="#528b8b" stroke="#528b8b" stroke-width="2" points="796.64,-394.39 806.86,-391.58 797.12,-387.41 796.64,-394.39"/>
</g>
<!-- src/transport&#45;local.ts&#45;&gt;src/types&#45;bag.ts -->
<g id="edge48" class="edge">
<title>src/transport&#45;local.ts&#45;&gt;src/types&#45;bag.ts</title>
<path fill="none" stroke="#528b8b" stroke-width="2" d="M496.32,-348.36C513.71,-343.45 533,-338.6 551,-335.38 740.93,-301.37 796.12,-284.95 985,-324.38 1093.59,-347.04 1210.37,-408.32 1269.28,-442.16"/>
<polygon fill="#528b8b" stroke="#528b8b" stroke-width="2" points="1267.82,-445.36 1278.23,-447.34 1271.33,-439.3 1267.82,-445.36"/>
</g>
<!-- src/transport&#45;local.ts&#45;&gt;src/types&#45;envelope.ts -->
<g id="edge50" class="edge">
<title>src/transport&#45;local.ts&#45;&gt;src/types&#45;envelope.ts</title>
<path fill="none" stroke="#528b8b" stroke-width="2" d="M496.76,-357.66C619.29,-340.15 902.48,-306.05 985,-351.38 1032.58,-377.51 1059.94,-438.32 1072.51,-474.3"/>
<polygon fill="#528b8b" stroke="#528b8b" stroke-width="2" points="1069.31,-475.79 1075.8,-484.17 1075.95,-473.57 1069.31,-475.79"/>
</g>
<!-- src/transport&#45;local.ts&#45;&gt;src/types.ts -->
<g id="edge49" class="edge">
<title>src/transport&#45;local.ts&#45;&gt;src/types.ts</title>
<path fill="none" stroke="#528b8b" stroke-width="2" d="M486.97,-384.47C565.06,-414.24 719.27,-473.02 792.52,-500.95"/>
<polygon fill="#528b8b" stroke="#528b8b" stroke-width="2" points="791.72,-504.38 802.31,-504.68 794.21,-497.84 791.72,-504.38"/>
</g>
<!-- src/transport&#45;local.ts&#45;&gt;src/watchable.ts -->
<g id="edge51" class="edge">
<title>src/transport&#45;local.ts&#45;&gt;src/watchable.ts</title>
<path fill="none" stroke="#528b8b" stroke-width="2" d="M496.61,-362.41C628.84,-353.78 947.67,-336.39 985,-366.38 1042.84,-412.84 974.2,-471.81 1021,-529.38 1022.89,-531.7 1025.03,-533.84 1027.33,-535.79"/>
<polygon fill="#528b8b" stroke="#528b8b" stroke-width="2" points="1025.57,-538.83 1035.75,-541.77 1029.63,-533.13 1025.57,-538.83"/>
</g>
<!-- src/types&#45;envelope.ts&#45;&gt;src/types&#45;bag.ts -->
<g id="edge54" class="edge">
<title>src/types&#45;envelope.ts&#45;&gt;src/types&#45;bag.ts</title>
<path fill="none" stroke="#528b8b" stroke-width="2" d="M1143,-492.51C1177.45,-486.84 1220.37,-479.79 1253.79,-474.29"/>
<polygon fill="#528b8b" stroke="#528b8b" stroke-width="2" points="1254.54,-477.71 1263.84,-472.64 1253.41,-470.81 1254.54,-477.71"/>
</g>
<!-- src/types.ts&#45;&gt;src/types&#45;bag.ts -->
<g id="edge56" class="edge">
<title>src/types.ts&#45;&gt;src/types&#45;bag.ts</title>
<path fill="none" stroke="#528b8b" stroke-width="2" d="M865.64,-507.82C902.26,-498.01 965.56,-482.39 1021,-475.38 1101.49,-465.19 1195.62,-463.91 1253.52,-464.33"/>
<polygon fill="#528b8b" stroke="#528b8b" stroke-width="2" points="1253.52,-467.83 1263.55,-464.43 1253.58,-460.83 1253.52,-467.83"/>
</g>
<!-- src/types.ts&#45;&gt;src/types&#45;envelope.ts -->
<g id="edge55" class="edge">
<title>src/types.ts&#45;&gt;src/types&#45;envelope.ts</title>
<path fill="none" stroke="#528b8b" stroke-width="2" d="M865.66,-514.63C901.73,-512.58 962.78,-509.1 1010.68,-506.38"/>
<polygon fill="#528b8b" stroke="#528b8b" stroke-width="2" points="1010.9,-509.87 1020.69,-505.81 1010.51,-502.88 1010.9,-509.87"/>
</g>
<!-- src/types.ts&#45;&gt;src/watchable.ts -->
<g id="edge57" class="edge">
<title>src/types.ts&#45;&gt;src/watchable.ts</title>
<path fill="none" stroke="#528b8b" stroke-width="2" d="M865.66,-521.36C905.66,-527.87 976.38,-539.36 1025.82,-547.4"/>
<polygon fill="#528b8b" stroke="#528b8b" stroke-width="2" points="1025.29,-550.86 1035.72,-549.01 1026.41,-543.95 1025.29,-550.86"/>
</g>
<!-- src/util.ts&#45;&gt;src/errors.ts -->
<g id="edge58" class="edge">
<title>src/util.ts&#45;&gt;src/errors.ts</title>
<path fill="none" stroke="#528b8b" stroke-width="2" d="M861.33,-672.73C903.77,-676.53 987.69,-684.03 1038.63,-688.59"/>
<polygon fill="#528b8b" stroke="#528b8b" stroke-width="2" points="1038.39,-692.08 1048.67,-689.48 1039.02,-685.11 1038.39,-692.08"/>
</g>
<!-- src/test/asserts.ts -->
<g id="node17" class="node">
<title>src/test/asserts.ts</title>
<path fill="#79cdcd" stroke="#79cdcd" d="M624,-221.38C624,-221.38 574,-221.38 574,-221.38 568,-221.38 562,-215.38 562,-209.38 562,-209.38 562,-197.38 562,-197.38 562,-191.38 568,-185.38 574,-185.38 574,-185.38 624,-185.38 624,-185.38 630,-185.38 636,-191.38 636,-197.38 636,-197.38 636,-209.38 636,-209.38 636,-215.38 630,-221.38 624,-221.38"/>
<text text-anchor="middle" x="599" y="-199.68" font-family="Helvetica,sans-Serif" font-size="14.00">asserts.ts</text>
</g>
<!-- https://deno.land/std@0.121.0/testing/asserts.ts -->
<g id="node23" class="node">
<title>https://deno.land/std@0.121.0/testing/asserts.ts</title>
<polygon fill="#cdc8b1" stroke="#8b8878" points="985,-142.38 687,-142.38 683,-138.38 683,-106.38 981,-106.38 985,-110.38 985,-142.38"/>
<polyline fill="none" stroke="#8b8878" points="981,-138.38 683,-138.38 "/>
<polyline fill="none" stroke="#8b8878" points="981,-138.38 981,-106.38 "/>
<polyline fill="none" stroke="#8b8878" points="981,-138.38 985,-142.38 "/>
<text text-anchor="middle" x="834" y="-120.68" font-family="Helvetica,sans-Serif" font-size="14.00">https://deno.land/std@0.121.0/testing/asserts.ts</text>
</g>
<!-- src/test/asserts.ts&#45;&gt;https://deno.land/std@0.121.0/testing/asserts.ts -->
<g id="edge61" class="edge">
<title>src/test/asserts.ts&#45;&gt;https://deno.land/std@0.121.0/testing/asserts.ts</title>
<path fill="none" stroke="#8b8878" stroke-width="1.5" stroke-dasharray="5,2" d="M620.64,-185.2C636.56,-172.22 659.73,-155.5 683,-146.38 683.44,-146.2 683.89,-146.03 684.34,-145.86"/>
<polygon fill="#8b8878" stroke="#8b8878" stroke-width="1.5" points="685.63,-149.11 693.87,-142.45 683.28,-142.52 685.63,-149.11"/>
</g>
<!-- src/test/connection.test.ts -->
<g id="node18" class="node">
<title>src/test/connection.test.ts</title>
<path fill="#79cdcd" stroke="#79cdcd" d="M314,-276.38C314,-276.38 216,-276.38 216,-276.38 210,-276.38 204,-270.38 204,-264.38 204,-264.38 204,-252.38 204,-252.38 204,-246.38 210,-240.38 216,-240.38 216,-240.38 314,-240.38 314,-240.38 320,-240.38 326,-246.38 326,-252.38 326,-252.38 326,-264.38 326,-264.38 326,-270.38 320,-276.38 314,-276.38"/>
<text text-anchor="middle" x="265" y="-254.68" font-family="Helvetica,sans-Serif" font-size="14.00">connection.test.ts</text>
</g>
<!-- src/test/connection.test.ts&#45;&gt;src/transport&#45;local.ts -->
<g id="edge27" class="edge">
<title>src/test/connection.test.ts&#45;&gt;src/transport&#45;local.ts</title>
<path fill="none" stroke="#528b8b" stroke-width="2" d="M294.71,-276.45C323.64,-294.68 368.44,-322.89 400.13,-342.84"/>
<polygon fill="#528b8b" stroke="#528b8b" stroke-width="2" points="398.37,-345.87 408.7,-348.24 402.1,-339.95 398.37,-345.87"/>
</g>
<!-- src/test/connection.test.ts&#45;&gt;src/types&#45;bag.ts -->
<g id="edge26" class="edge">
<title>src/test/connection.test.ts&#45;&gt;src/types&#45;bag.ts</title>
<path fill="none" stroke="#528b8b" stroke-width="2" d="M321.87,-276.39C334.91,-279.96 348.84,-283.25 362,-285.38 465.66,-302.14 493,-296.38 598,-296.38 598,-296.38 598,-296.38 835,-296.38 972.72,-296.38 1018.03,-272.51 1143,-330.38 1200.59,-357.04 1255.06,-408.55 1284.75,-439.66"/>
<polygon fill="#528b8b" stroke="#528b8b" stroke-width="2" points="1282.35,-442.22 1291.75,-447.1 1287.45,-437.42 1282.35,-442.22"/>
</g>
<!-- src/test/connection.test.ts&#45;&gt;src/types.ts -->
<g id="edge25" class="edge">
<title>src/test/connection.test.ts&#45;&gt;src/types.ts</title>
<path fill="none" stroke="#528b8b" stroke-width="2" d="M267.57,-276.56C272.46,-320.64 291.6,-433.25 362,-483.38 430.36,-532.05 690.67,-523.97 792.15,-518.79"/>
<polygon fill="#528b8b" stroke="#528b8b" stroke-width="2" points="792.51,-522.28 802.31,-518.25 792.14,-515.28 792.51,-522.28"/>
</g>
<!-- src/test/connection.test.ts&#45;&gt;src/util.ts -->
<g id="edge28" class="edge">
<title>src/test/connection.test.ts&#45;&gt;src/util.ts</title>
<path fill="none" stroke="#528b8b" stroke-width="2" d="M269.52,-276.45C278.62,-319.64 306.22,-430.75 362,-505.38 425.55,-590.39 451.75,-613.73 551,-651.38 634.4,-683.01 741.55,-679.3 796.67,-674.49"/>
<polygon fill="#528b8b" stroke="#528b8b" stroke-width="2" points="797.03,-677.97 806.66,-673.55 796.37,-671 797.03,-677.97"/>
</g>
<!-- src/test/connection.test.ts&#45;&gt;src/test/asserts.ts -->
<g id="edge24" class="edge">
<title>src/test/connection.test.ts&#45;&gt;src/test/asserts.ts</title>
<path fill="none" stroke="#528b8b" stroke-width="2" d="M324.54,-240.35C336.83,-237 349.77,-233.8 362,-231.38 397.22,-224.38 493.64,-213.95 551.76,-208"/>
<polygon fill="#528b8b" stroke="#528b8b" stroke-width="2" points="552.2,-211.47 561.79,-206.97 551.49,-204.5 552.2,-211.47"/>
</g>
<!-- src/test/event&#45;log.ts -->
<g id="node19" class="node">
<title>src/test/event&#45;log.ts</title>
<path fill="#79cdcd" stroke="#79cdcd" d="M469.5,-202.38C469.5,-202.38 407.5,-202.38 407.5,-202.38 401.5,-202.38 395.5,-196.38 395.5,-190.38 395.5,-190.38 395.5,-178.38 395.5,-178.38 395.5,-172.38 401.5,-166.38 407.5,-166.38 407.5,-166.38 469.5,-166.38 469.5,-166.38 475.5,-166.38 481.5,-172.38 481.5,-178.38 481.5,-178.38 481.5,-190.38 481.5,-190.38 481.5,-196.38 475.5,-202.38 469.5,-202.38"/>
<text text-anchor="middle" x="438.5" y="-180.68" font-family="Helvetica,sans-Serif" font-size="14.00">event&#45;log.ts</text>
</g>
<!-- src/test/connection.test.ts&#45;&gt;src/test/event&#45;log.ts -->
<g id="edge29" class="edge">
<title>src/test/connection.test.ts&#45;&gt;src/test/event&#45;log.ts</title>
<path fill="none" stroke="#528b8b" stroke-width="2" d="M307.06,-240.29C324.05,-232.84 343.95,-224.15 362,-216.38 369.71,-213.06 377.87,-209.57 385.86,-206.17"/>
<polygon fill="#528b8b" stroke="#528b8b" stroke-width="2" points="387.3,-209.36 395.14,-202.23 384.56,-202.92 387.3,-209.36"/>
</g>
<!-- src/test/event&#45;log.ts&#45;&gt;src/test/asserts.ts -->
<g id="edge30" class="edge">
<title>src/test/event&#45;log.ts&#45;&gt;src/test/asserts.ts</title>
<path fill="none" stroke="#528b8b" stroke-width="2" d="M481.56,-189.42C503.17,-192.01 529.56,-195.17 551.75,-197.83"/>
<polygon fill="#528b8b" stroke="#528b8b" stroke-width="2" points="551.59,-201.34 561.94,-199.05 552.42,-194.39 551.59,-201.34"/>
</g>
<!-- src/test/util.test.ts -->
<g id="node20" class="node">
<title>src/test/util.test.ts</title>
<path fill="#79cdcd" stroke="#79cdcd" d="M463.5,-276.38C463.5,-276.38 413.5,-276.38 413.5,-276.38 407.5,-276.38 401.5,-270.38 401.5,-264.38 401.5,-264.38 401.5,-252.38 401.5,-252.38 401.5,-246.38 407.5,-240.38 413.5,-240.38 413.5,-240.38 463.5,-240.38 463.5,-240.38 469.5,-240.38 475.5,-246.38 475.5,-252.38 475.5,-252.38 475.5,-264.38 475.5,-264.38 475.5,-270.38 469.5,-276.38 463.5,-276.38"/>
<text text-anchor="middle" x="438.5" y="-254.68" font-family="Helvetica,sans-Serif" font-size="14.00">util.test.ts</text>
</g>
<!-- src/test/util.test.ts&#45;&gt;src/util.ts -->
<g id="edge32" class="edge">
<title>src/test/util.test.ts&#45;&gt;src/util.ts</title>
<path fill="none" stroke="#528b8b" stroke-width="2" d="M475.76,-260.44C490.07,-263.17 505.37,-268.85 515,-280.38 563.74,-338.66 498.62,-565.34 551,-620.38 565.89,-636.02 625.72,-631.71 647,-635.38 699.24,-644.37 759.51,-655.93 796.94,-663.25"/>
<polygon fill="#528b8b" stroke="#528b8b" stroke-width="2" points="796.38,-666.7 806.86,-665.19 797.72,-659.83 796.38,-666.7"/>
</g>
<!-- src/test/util.test.ts&#45;&gt;src/test/asserts.ts -->
<g id="edge31" class="edge">
<title>src/test/util.test.ts&#45;&gt;src/test/asserts.ts</title>
<path fill="none" stroke="#528b8b" stroke-width="2" d="M475.86,-245.76C498.52,-237.9 527.86,-227.71 552.11,-219.3"/>
<polygon fill="#528b8b" stroke="#528b8b" stroke-width="2" points="553.51,-222.52 561.81,-215.93 551.21,-215.91 553.51,-222.52"/>
</g>
</g>
</svg>
