<?xml version="1.0" encoding="UTF-8" standalone="no"?>
<!DOCTYPE svg PUBLIC "-//W3C//DTD SVG 1.1//EN"
 "http://www.w3.org/Graphics/SVG/1.1/DTD/svg11.dtd">
<!-- Generated by graphviz version 2.44.1 (20200629.0846)
 -->
<!-- Title: G Pages: 1 -->
<svg width="598pt" height="436pt"
 viewBox="0.00 0.00 598.00 436.00" xmlns="http://www.w3.org/2000/svg" xmlns:xlink="http://www.w3.org/1999/xlink">
<g id="graph0" class="graph" transform="scale(1 1) rotate(0) translate(4 432)">
<title>G</title>
<polygon fill="white" stroke="transparent" points="-4,4 -4,-432 594,-432 594,4 -4,4"/>
<g id="clust1" class="cluster">
<title>cluster6120518647</title>
<path fill="none" stroke="#8b7d6b" stroke-width="2" d="M20,-8C20,-8 570,-8 570,-8 576,-8 582,-14 582,-20 582,-20 582,-408 582,-408 582,-414 576,-420 570,-420 570,-420 20,-420 20,-420 14,-420 8,-414 8,-408 8,-408 8,-20 8,-20 8,-14 14,-8 20,-8"/>
<text text-anchor="start" x="281.5" y="-405.8" font-family="Helvetica,sans-Serif" font-weight="bold" font-size="14.00">root</text>
</g>
<g id="clust2" class="cluster">
<title>cluster9450472687</title>
<path fill="bisque" stroke="#8b7d6b" stroke-width="2" d="M28,-16C28,-16 562,-16 562,-16 568,-16 574,-22 574,-28 574,-28 574,-333 574,-333 574,-339 568,-345 562,-345 562,-345 28,-345 28,-345 22,-345 16,-339 16,-333 16,-333 16,-28 16,-28 16,-22 22,-16 28,-16"/>
<text text-anchor="start" x="284.5" y="-330.8" font-family="Helvetica,sans-Serif" font-weight="bold" font-size="14.00">src</text>
</g>
<!-- deps.ts -->
<g id="node1" class="node">
<title>deps.ts</title>
<path fill="#79cdcd" stroke="#79cdcd" d="M279,-389C279,-389 243,-389 243,-389 237,-389 231,-383 231,-377 231,-377 231,-365 231,-365 231,-359 237,-353 243,-353 243,-353 279,-353 279,-353 285,-353 291,-359 291,-365 291,-365 291,-377 291,-377 291,-383 285,-389 279,-389"/>
<text text-anchor="middle" x="261" y="-367.3" font-family="Helvetica,sans-Serif" font-size="14.00">deps.ts</text>
</g>
<!-- src/connection.ts -->
<g id="node2" class="node">
<title>src/connection.ts</title>
<path fill="#79cdcd" stroke="#79cdcd" d="M297,-234C297,-234 225,-234 225,-234 219,-234 213,-228 213,-222 213,-222 213,-210 213,-210 213,-204 219,-198 225,-198 225,-198 297,-198 297,-198 303,-198 309,-204 309,-210 309,-210 309,-222 309,-222 309,-228 303,-234 297,-234"/>
<text text-anchor="middle" x="261" y="-212.3" font-family="Helvetica,sans-Serif" font-size="14.00">connection.ts</text>
</g>
<!-- src/errors.ts -->
<g id="node3" class="node">
<title>src/errors.ts</title>
<path fill="#79cdcd" stroke="#79cdcd" d="M526,-274C526,-274 484,-274 484,-274 478,-274 472,-268 472,-262 472,-262 472,-250 472,-250 472,-244 478,-238 484,-238 484,-238 526,-238 526,-238 532,-238 538,-244 538,-250 538,-250 538,-262 538,-262 538,-268 532,-274 526,-274"/>
<text text-anchor="middle" x="505" y="-252.3" font-family="Helvetica,sans-Serif" font-size="14.00">errors.ts</text>
</g>
<!-- src/connection.ts&#45;&gt;src/errors.ts -->
<g id="edge1" class="edge">
<title>src/connection.ts&#45;&gt;src/errors.ts</title>
<path fill="none" stroke="#528b8b" stroke-width="2" d="M309.31,-217.99C338.03,-219.74 375.34,-223.01 408,-229 425.91,-232.29 445.31,-237.43 461.95,-242.35"/>
<polygon fill="#528b8b" stroke="#528b8b" stroke-width="2" points="461.33,-245.82 471.91,-245.36 463.35,-239.12 461.33,-245.82"/>
</g>
<!-- src/types&#45;envelope.ts -->
<g id="node7" class="node">
<title>src/types&#45;envelope.ts</title>
<path fill="#79cdcd" stroke="#79cdcd" d="M554,-197C554,-197 456,-197 456,-197 450,-197 444,-191 444,-185 444,-185 444,-173 444,-173 444,-167 450,-161 456,-161 456,-161 554,-161 554,-161 560,-161 566,-167 566,-173 566,-173 566,-185 566,-185 566,-191 560,-197 554,-197"/>
<text text-anchor="middle" x="505" y="-175.3" font-family="Helvetica,sans-Serif" font-size="14.00">types&#45;envelope.ts</text>
</g>
<!-- src/connection.ts&#45;&gt;src/types&#45;envelope.ts -->
<g id="edge3" class="edge">
<title>src/connection.ts&#45;&gt;src/types&#45;envelope.ts</title>
<path fill="none" stroke="#528b8b" stroke-width="2" d="M309.23,-208.78C344.74,-203.35 393.95,-195.83 434.02,-189.7"/>
<polygon fill="#528b8b" stroke="#528b8b" stroke-width="2" points="434.64,-193.15 444,-188.17 433.58,-186.23 434.64,-193.15"/>
</g>
<!-- src/types.ts -->
<g id="node8" class="node">
<title>src/types.ts</title>
<path fill="#79cdcd" stroke="#79cdcd" d="M396,-140C396,-140 357,-140 357,-140 351,-140 345,-134 345,-128 345,-128 345,-116 345,-116 345,-110 351,-104 357,-104 357,-104 396,-104 396,-104 402,-104 408,-110 408,-116 408,-116 408,-128 408,-128 408,-134 402,-140 396,-140"/>
<text text-anchor="middle" x="376.5" y="-118.3" font-family="Helvetica,sans-Serif" font-size="14.00">types.ts</text>
</g>
<!-- src/connection.ts&#45;&gt;src/types.ts -->
<g id="edge2" class="edge">
<title>src/connection.ts&#45;&gt;src/types.ts</title>
<path fill="none" stroke="#528b8b" stroke-width="2" d="M290.34,-197.73C296.62,-193.41 303.14,-188.68 309,-184 323.16,-172.69 338,-159.04 350.06,-147.44"/>
<polygon fill="#528b8b" stroke="#528b8b" stroke-width="2" points="352.82,-149.64 357.55,-140.16 347.94,-144.62 352.82,-149.64"/>
</g>
<!-- src/util.ts -->
<g id="node9" class="node">
<title>src/util.ts</title>
<path fill="#79cdcd" stroke="#79cdcd" d="M391.5,-274C391.5,-274 361.5,-274 361.5,-274 355.5,-274 349.5,-268 349.5,-262 349.5,-262 349.5,-250 349.5,-250 349.5,-244 355.5,-238 361.5,-238 361.5,-238 391.5,-238 391.5,-238 397.5,-238 403.5,-244 403.5,-250 403.5,-250 403.5,-262 403.5,-262 403.5,-268 397.5,-274 391.5,-274"/>
<text text-anchor="middle" x="376.5" y="-252.3" font-family="Helvetica,sans-Serif" font-size="14.00">util.ts</text>
</g>
<!-- src/connection.ts&#45;&gt;src/util.ts -->
<g id="edge5" class="edge">
<title>src/connection.ts&#45;&gt;src/util.ts</title>
<path fill="none" stroke="#528b8b" stroke-width="2" d="M309.15,-232.62C319.36,-236.22 330.01,-239.97 339.7,-243.38"/>
<polygon fill="#528b8b" stroke="#528b8b" stroke-width="2" points="338.81,-246.78 349.4,-246.8 341.14,-240.18 338.81,-246.78"/>
</g>
<!-- src/watchable.ts -->
<g id="node10" class="node">
<title>src/watchable.ts</title>
<path fill="#79cdcd" stroke="#79cdcd" d="M539,-103C539,-103 471,-103 471,-103 465,-103 459,-97 459,-91 459,-91 459,-79 459,-79 459,-73 465,-67 471,-67 471,-67 539,-67 539,-67 545,-67 551,-73 551,-79 551,-79 551,-91 551,-91 551,-97 545,-103 539,-103"/>
<text text-anchor="middle" x="505" y="-81.3" font-family="Helvetica,sans-Serif" font-size="14.00">watchable.ts</text>
</g>
<!-- src/connection.ts&#45;&gt;src/watchable.ts -->
<g id="edge4" class="edge">
<title>src/connection.ts&#45;&gt;src/watchable.ts</title>
<path fill="none" stroke="#528b8b" stroke-width="2" d="M306.01,-197.96C335.46,-185.37 374.76,-167.55 408,-149 429.49,-137 452.47,-121.77 470.56,-109.18"/>
<polygon fill="#528b8b" stroke="#528b8b" stroke-width="2" points="472.85,-111.85 479.02,-103.24 468.82,-106.13 472.85,-111.85"/>
</g>
<!-- src/transport&#45;http&#45;client.ts -->
<g id="node4" class="node">
<title>src/transport&#45;http&#45;client.ts</title>
<path fill="#79cdcd" stroke="#79cdcd" d="M162,-178C162,-178 39,-178 39,-178 33,-178 27,-172 27,-166 27,-166 27,-154 27,-154 27,-148 33,-142 39,-142 39,-142 162,-142 162,-142 168,-142 174,-148 174,-154 174,-154 174,-166 174,-166 174,-172 168,-178 162,-178"/>
<text text-anchor="middle" x="100.5" y="-156.3" font-family="Helvetica,sans-Serif" font-size="14.00">transport&#45;http&#45;client.ts</text>
</g>
<!-- src/transport&#45;http&#45;client.ts&#45;&gt;src/connection.ts -->
<g id="edge11" class="edge">
<title>src/transport&#45;http&#45;client.ts&#45;&gt;src/connection.ts</title>
<path fill="none" stroke="#528b8b" stroke-width="2" d="M152.52,-178.03C168.71,-183.75 186.71,-190.11 203.27,-195.96"/>
<polygon fill="#528b8b" stroke="#528b8b" stroke-width="2" points="202.24,-199.31 212.84,-199.34 204.57,-192.71 202.24,-199.31"/>
</g>
<!-- src/transport&#45;http&#45;client.ts&#45;&gt;src/errors.ts -->
<g id="edge6" class="edge">
<title>src/transport&#45;http&#45;client.ts&#45;&gt;src/errors.ts</title>
<path fill="none" stroke="#528b8b" stroke-width="2" d="M121.94,-178.38C151.21,-204.53 202.68,-249.92 213,-255 226.45,-261.62 330.09,-281.44 345,-283 372.85,-285.92 380.26,-286.83 408,-283 425.9,-280.53 445.15,-275.59 461.69,-270.6"/>
<polygon fill="#528b8b" stroke="#528b8b" stroke-width="2" points="463.09,-273.83 471.59,-267.51 461,-267.15 463.09,-273.83"/>
</g>
<!-- src/transport&#45;http&#45;client.ts&#45;&gt;src/types&#45;envelope.ts -->
<g id="edge8" class="edge">
<title>src/transport&#45;http&#45;client.ts&#45;&gt;src/types&#45;envelope.ts</title>
<path fill="none" stroke="#528b8b" stroke-width="2" d="M174.39,-163.44C247.91,-166.91 360.66,-172.23 433.37,-175.67"/>
<polygon fill="#528b8b" stroke="#528b8b" stroke-width="2" points="433.64,-179.18 443.79,-176.16 433.97,-172.19 433.64,-179.18"/>
</g>
<!-- src/transport&#45;http&#45;client.ts&#45;&gt;src/types.ts -->
<g id="edge7" class="edge">
<title>src/transport&#45;http&#45;client.ts&#45;&gt;src/types.ts</title>
<path fill="none" stroke="#528b8b" stroke-width="2" d="M174.21,-149.92C225.62,-142.79 292.65,-133.49 334.89,-127.63"/>
<polygon fill="#528b8b" stroke="#528b8b" stroke-width="2" points="335.39,-131.1 344.81,-126.26 334.43,-124.16 335.39,-131.1"/>
</g>
<!-- src/transport&#45;http&#45;client.ts&#45;&gt;src/util.ts -->
<g id="edge10" class="edge">
<title>src/transport&#45;http&#45;client.ts&#45;&gt;src/util.ts</title>
<path fill="none" stroke="#528b8b" stroke-width="2" d="M119.25,-178.33C139.76,-198.18 175.51,-228.89 213,-243 254.23,-258.51 305.4,-259.97 339.18,-258.72"/>
<polygon fill="#528b8b" stroke="#528b8b" stroke-width="2" points="339.67,-262.2 349.5,-258.24 339.34,-255.21 339.67,-262.2"/>
</g>
<!-- src/transport&#45;http&#45;client.ts&#45;&gt;src/watchable.ts -->
<g id="edge9" class="edge">
<title>src/transport&#45;http&#45;client.ts&#45;&gt;src/watchable.ts</title>
<path fill="none" stroke="#528b8b" stroke-width="2" d="M142.72,-141.97C190.36,-122.21 271.62,-91.74 345,-80 372.65,-75.57 380.01,-79.27 408,-80 421.03,-80.34 435.05,-80.94 448.24,-81.6"/>
<polygon fill="#528b8b" stroke="#528b8b" stroke-width="2" points="448.43,-85.12 458.6,-82.15 448.8,-78.13 448.43,-85.12"/>
</g>
<!-- src/transport&#45;http&#45;server.ts -->
<g id="node5" class="node">
<title>src/transport&#45;http&#45;server.ts</title>
<path fill="#79cdcd" stroke="#79cdcd" d="M165,-272C165,-272 36,-272 36,-272 30,-272 24,-266 24,-260 24,-260 24,-248 24,-248 24,-242 30,-236 36,-236 36,-236 165,-236 165,-236 171,-236 177,-242 177,-248 177,-248 177,-260 177,-260 177,-266 171,-272 165,-272"/>
<text text-anchor="middle" x="100.5" y="-250.3" font-family="Helvetica,sans-Serif" font-size="14.00">transport&#45;http&#45;server.ts</text>
</g>
<!-- src/transport&#45;http&#45;server.ts&#45;&gt;deps.ts -->
<g id="edge17" class="edge">
<title>src/transport&#45;http&#45;server.ts&#45;&gt;deps.ts</title>
<path fill="none" stroke="#528b8b" stroke-width="2" d="M119.61,-272.13C140.72,-292.59 177.28,-326.02 213,-349 215.73,-350.75 218.62,-352.45 221.57,-354.07"/>
<polygon fill="#528b8b" stroke="#528b8b" stroke-width="2" points="220.02,-357.21 230.52,-358.68 223.23,-350.99 220.02,-357.21"/>
</g>
<!-- src/transport&#45;http&#45;server.ts&#45;&gt;src/connection.ts -->
<g id="edge16" class="edge">
<title>src/transport&#45;http&#45;server.ts&#45;&gt;src/connection.ts</title>
<path fill="none" stroke="#528b8b" stroke-width="2" d="M177.04,-235.89C185.65,-233.82 194.33,-231.74 202.65,-229.75"/>
<polygon fill="#528b8b" stroke="#528b8b" stroke-width="2" points="203.7,-233.1 212.61,-227.36 202.07,-226.29 203.7,-233.1"/>
</g>
<!-- src/transport&#45;http&#45;server.ts&#45;&gt;src/types&#45;envelope.ts -->
<g id="edge13" class="edge">
<title>src/transport&#45;http&#45;server.ts&#45;&gt;src/types&#45;envelope.ts</title>
<path fill="none" stroke="#528b8b" stroke-width="2" d="M143.81,-272.06C205.78,-295.53 323.06,-328.46 408,-283 433.43,-269.39 424.72,-250.46 444,-229 452.13,-219.95 461.93,-211.1 471.23,-203.43"/>
<polygon fill="#528b8b" stroke="#528b8b" stroke-width="2" points="473.62,-206 479.23,-197.01 469.24,-200.54 473.62,-206"/>
</g>
<!-- src/transport&#45;http&#45;server.ts&#45;&gt;src/types.ts -->
<g id="edge12" class="edge">
<title>src/transport&#45;http&#45;server.ts&#45;&gt;src/types.ts</title>
<path fill="none" stroke="#528b8b" stroke-width="2" d="M130.24,-235.78C152.42,-222.09 184.08,-203.31 213,-189 253.7,-168.86 301.99,-149.5 335.3,-136.81"/>
<polygon fill="#528b8b" stroke="#528b8b" stroke-width="2" points="336.58,-140.07 344.7,-133.26 334.11,-133.52 336.58,-140.07"/>
</g>
<!-- src/transport&#45;http&#45;server.ts&#45;&gt;src/util.ts -->
<g id="edge14" class="edge">
<title>src/transport&#45;http&#45;server.ts&#45;&gt;src/util.ts</title>
<path fill="none" stroke="#528b8b" stroke-width="2" d="M177.06,-257.08C189.08,-257.46 201.38,-257.79 213,-258 255.66,-258.76 266.34,-258.64 309,-258 318.75,-257.85 329.31,-257.59 339.08,-257.29"/>
<polygon fill="#528b8b" stroke="#528b8b" stroke-width="2" points="339.4,-260.78 349.29,-256.97 339.18,-253.79 339.4,-260.78"/>
</g>
<!-- src/transport&#45;http&#45;server.ts&#45;&gt;src/watchable.ts -->
<g id="edge15" class="edge">
<title>src/transport&#45;http&#45;server.ts&#45;&gt;src/watchable.ts</title>
<path fill="none" stroke="#528b8b" stroke-width="2" d="M123.82,-235.82C139.32,-222.81 160.12,-204.57 177,-187 194.5,-168.78 192.39,-157.62 213,-143 225.73,-133.97 329.72,-98.19 345,-95 379.06,-87.89 418.03,-85.35 448.87,-84.61"/>
<polygon fill="#528b8b" stroke="#528b8b" stroke-width="2" points="449.06,-88.11 459,-84.43 448.93,-81.11 449.06,-88.11"/>
</g>
<!-- src/transport&#45;local.ts -->
<g id="node6" class="node">
<title>src/transport&#45;local.ts</title>
<path fill="#79cdcd" stroke="#79cdcd" d="M146.5,-93C146.5,-93 54.5,-93 54.5,-93 48.5,-93 42.5,-87 42.5,-81 42.5,-81 42.5,-69 42.5,-69 42.5,-63 48.5,-57 54.5,-57 54.5,-57 146.5,-57 146.5,-57 152.5,-57 158.5,-63 158.5,-69 158.5,-69 158.5,-81 158.5,-81 158.5,-87 152.5,-93 146.5,-93"/>
<text text-anchor="middle" x="100.5" y="-71.3" font-family="Helvetica,sans-Serif" font-size="14.00">transport&#45;local.ts</text>
</g>
<!-- src/transport&#45;local.ts&#45;&gt;src/connection.ts -->
<g id="edge21" class="edge">
<title>src/transport&#45;local.ts&#45;&gt;src/connection.ts</title>
<path fill="none" stroke="#528b8b" stroke-width="2" d="M126.63,-93.02C141.63,-104.09 160.85,-118.83 177,-133 197.85,-151.3 220,-173.61 236.17,-190.49"/>
<polygon fill="#528b8b" stroke="#528b8b" stroke-width="2" points="233.72,-193 243.15,-197.83 238.8,-188.17 233.72,-193"/>
</g>
<!-- src/transport&#45;local.ts&#45;&gt;src/types&#45;envelope.ts -->
<g id="edge19" class="edge">
<title>src/transport&#45;local.ts&#45;&gt;src/types&#45;envelope.ts</title>
<path fill="none" stroke="#528b8b" stroke-width="2" d="M158.75,-68.09C222.24,-62.8 326.44,-61.28 408,-95 438.04,-107.42 465.19,-133.21 482.89,-152.96"/>
<polygon fill="#528b8b" stroke="#528b8b" stroke-width="2" points="480.45,-155.48 489.65,-160.72 485.73,-150.88 480.45,-155.48"/>
</g>
<!-- src/transport&#45;local.ts&#45;&gt;src/types.ts -->
<g id="edge18" class="edge">
<title>src/transport&#45;local.ts&#45;&gt;src/types.ts</title>
<path fill="none" stroke="#528b8b" stroke-width="2" d="M158.61,-84.8C211.24,-93.82 288.07,-107 334.75,-115.01"/>
<polygon fill="#528b8b" stroke="#528b8b" stroke-width="2" points="334.36,-118.49 344.81,-116.73 335.54,-111.59 334.36,-118.49"/>
</g>
<!-- src/transport&#45;local.ts&#45;&gt;src/watchable.ts -->
<g id="edge20" class="edge">
<title>src/transport&#45;local.ts&#45;&gt;src/watchable.ts</title>
<path fill="none" stroke="#528b8b" stroke-width="2" d="M147.95,-56.95C167.68,-50.19 191.14,-43.35 213,-40 298.67,-26.87 323.41,-21.16 408,-40 427.71,-44.39 448.15,-53.28 465.08,-62.01"/>
<polygon fill="#528b8b" stroke="#528b8b" stroke-width="2" points="463.63,-65.2 474.1,-66.81 466.92,-59.02 463.63,-65.2"/>
</g>
<!-- src/types.ts&#45;&gt;src/types&#45;envelope.ts -->
<g id="edge22" class="edge">
<title>src/types.ts&#45;&gt;src/types&#45;envelope.ts</title>
<path fill="none" stroke="#528b8b" stroke-width="2" d="M408.12,-135.8C421.93,-142.02 438.59,-149.53 454.12,-156.53"/>
<polygon fill="#528b8b" stroke="#528b8b" stroke-width="2" points="453.06,-159.89 463.62,-160.8 455.94,-153.5 453.06,-159.89"/>
</g>
<!-- src/types.ts&#45;&gt;src/watchable.ts -->
<g id="edge23" class="edge">
<title>src/types.ts&#45;&gt;src/watchable.ts</title>
<path fill="none" stroke="#528b8b" stroke-width="2" d="M408.12,-113.04C420.48,-109.43 435.13,-105.15 449.2,-101.03"/>
<polygon fill="#528b8b" stroke="#528b8b" stroke-width="2" points="450.21,-104.38 458.82,-98.21 448.24,-97.66 450.21,-104.38"/>
</g>
<!-- src/util.ts&#45;&gt;src/errors.ts -->
<g id="edge24" class="edge">
<title>src/util.ts&#45;&gt;src/errors.ts</title>
<path fill="none" stroke="#528b8b" stroke-width="2" d="M403.71,-256C420.52,-256 442.72,-256 461.95,-256"/>
<polygon fill="#528b8b" stroke="#528b8b" stroke-width="2" points="461.99,-259.5 471.99,-256 461.99,-252.5 461.99,-259.5"/>
</g>
</g>
</svg>
