<?xml version="1.0" encoding="UTF-8" standalone="no"?>
<!DOCTYPE svg PUBLIC "-//W3C//DTD SVG 1.1//EN"
 "http://www.w3.org/Graphics/SVG/1.1/DTD/svg11.dtd">
<!-- Generated by graphviz version 2.44.1 (20200629.0846)
 -->
<!-- Title: G Pages: 1 -->
<svg width="1447pt" height="974pt"
 viewBox="0.00 0.00 1447.00 974.35" xmlns="http://www.w3.org/2000/svg" xmlns:xlink="http://www.w3.org/1999/xlink">
<g id="graph0" class="graph" transform="scale(1 1) rotate(0) translate(4 970.35)">
<title>G</title>
<polygon fill="white" stroke="transparent" points="-4,4 -4,-970.35 1443,-970.35 1443,4 -4,4"/>
<g id="clust1" class="cluster">
<title>cluster816164315</title>
<path fill="bisque" stroke="#8b7d6b" stroke-width="2" d="M20,-76.3C20,-76.3 164,-76.3 164,-76.3 170,-76.3 176,-82.3 176,-88.3 176,-88.3 176,-247.3 176,-247.3 176,-253.3 170,-259.3 164,-259.3 164,-259.3 20,-259.3 20,-259.3 14,-259.3 8,-253.3 8,-247.3 8,-247.3 8,-88.3 8,-88.3 8,-82.3 14,-76.3 20,-76.3"/>
<text text-anchor="start" x="60.5" y="-245.1" font-family="Helvetica,sans-Serif" font-weight="bold" font-size="14.00">examples</text>
</g>
<g id="clust2" class="cluster">
<title>cluster8707387619</title>
<path fill="bisque" stroke="#8b7d6b" stroke-width="2" d="M200,-152.3C200,-152.3 1139,-152.3 1139,-152.3 1145,-152.3 1151,-158.3 1151,-164.3 1151,-164.3 1151,-732.3 1151,-732.3 1151,-738.3 1145,-744.3 1139,-744.3 1139,-744.3 200,-744.3 200,-744.3 194,-744.3 188,-738.3 188,-732.3 188,-732.3 188,-164.3 188,-164.3 188,-158.3 194,-152.3 200,-152.3"/>
<text text-anchor="start" x="659" y="-730.1" font-family="Helvetica,sans-Serif" font-weight="bold" font-size="14.00">src</text>
</g>
<g id="clust3" class="cluster">
<title>cluster2588540949</title>
<path fill="bisque" stroke="#8b7d6b" stroke-width="2" d="M208,-160.3C208,-160.3 632,-160.3 632,-160.3 638,-160.3 644,-166.3 644,-172.3 644,-172.3 644,-297.3 644,-297.3 644,-303.3 638,-309.3 632,-309.3 632,-309.3 208,-309.3 208,-309.3 202,-309.3 196,-303.3 196,-297.3 196,-297.3 196,-172.3 196,-172.3 196,-166.3 202,-160.3 208,-160.3"/>
<text text-anchor="start" x="407.5" y="-295.1" font-family="Helvetica,sans-Serif" font-weight="bold" font-size="14.00">test</text>
</g>
<!-- deps.ts -->
<g id="node1" class="node">
<title>deps.ts</title>
<path fill="#79cdcd" stroke="#79cdcd" d="M1100,-79.3C1100,-79.3 1064,-79.3 1064,-79.3 1058,-79.3 1052,-73.3 1052,-67.3 1052,-67.3 1052,-55.3 1052,-55.3 1052,-49.3 1058,-43.3 1064,-43.3 1064,-43.3 1100,-43.3 1100,-43.3 1106,-43.3 1112,-49.3 1112,-55.3 1112,-55.3 1112,-67.3 1112,-67.3 1112,-73.3 1106,-79.3 1100,-79.3"/>
<text text-anchor="middle" x="1082" y="-57.6" font-family="Helvetica,sans-Serif" font-size="14.00">deps.ts</text>
</g>
<!-- https://deno.land/x/crayon@2.3.1/mod.ts -->
<g id="node20" class="node">
<title>https://deno.land/x/crayon@2.3.1/mod.ts</title>
<polygon fill="#cdc8b1" stroke="#8b8878" points="1439,-106.3 1183,-106.3 1179,-102.3 1179,-70.3 1435,-70.3 1439,-74.3 1439,-106.3"/>
<polyline fill="none" stroke="#8b8878" points="1435,-102.3 1179,-102.3 "/>
<polyline fill="none" stroke="#8b8878" points="1435,-102.3 1435,-70.3 "/>
<polyline fill="none" stroke="#8b8878" points="1435,-102.3 1439,-106.3 "/>
<text text-anchor="middle" x="1309" y="-84.6" font-family="Helvetica,sans-Serif" font-size="14.00">https://deno.land/x/crayon@2.3.1/mod.ts</text>
</g>
<!-- deps.ts&#45;&gt;https://deno.land/x/crayon@2.3.1/mod.ts -->
<g id="edge53" class="edge">
<title>deps.ts&#45;&gt;https://deno.land/x/crayon@2.3.1/mod.ts</title>
<path fill="none" stroke="#8b8878" stroke-width="1.5" stroke-dasharray="5,2" d="M1112.41,-64.83C1127.69,-66.66 1147.57,-69.05 1168.8,-71.6"/>
<polygon fill="#8b8878" stroke="#8b8878" stroke-width="1.5" points="1168.63,-75.1 1178.98,-72.82 1169.47,-68.15 1168.63,-75.1"/>
</g>
<!-- https://deno.land/x/opine@2.1.1/mod.ts -->
<g id="node21" class="node">
<title>https://deno.land/x/opine@2.1.1/mod.ts</title>
<polygon fill="#cdc8b1" stroke="#8b8878" points="1435.5,-52.3 1186.5,-52.3 1182.5,-48.3 1182.5,-16.3 1431.5,-16.3 1435.5,-20.3 1435.5,-52.3"/>
<polyline fill="none" stroke="#8b8878" points="1431.5,-48.3 1182.5,-48.3 "/>
<polyline fill="none" stroke="#8b8878" points="1431.5,-48.3 1431.5,-16.3 "/>
<polyline fill="none" stroke="#8b8878" points="1431.5,-48.3 1435.5,-52.3 "/>
<text text-anchor="middle" x="1309" y="-30.6" font-family="Helvetica,sans-Serif" font-size="14.00">https://deno.land/x/opine@2.1.1/mod.ts</text>
</g>
<!-- deps.ts&#45;&gt;https://deno.land/x/opine@2.1.1/mod.ts -->
<g id="edge54" class="edge">
<title>deps.ts&#45;&gt;https://deno.land/x/opine@2.1.1/mod.ts</title>
<path fill="none" stroke="#8b8878" stroke-width="1.5" stroke-dasharray="5,2" d="M1112.41,-57.77C1128.5,-55.84 1149.7,-53.3 1172.2,-50.6"/>
<polygon fill="#8b8878" stroke="#8b8878" stroke-width="1.5" points="1172.75,-54.05 1182.27,-49.39 1171.92,-47.1 1172.75,-54.05"/>
</g>
<!-- mod.ts -->
<g id="node2" class="node">
<title>mod.ts</title>
<path fill="#79cdcd" stroke="#79cdcd" d="M282,-788.3C282,-788.3 248,-788.3 248,-788.3 242,-788.3 236,-782.3 236,-776.3 236,-776.3 236,-764.3 236,-764.3 236,-758.3 242,-752.3 248,-752.3 248,-752.3 282,-752.3 282,-752.3 288,-752.3 294,-758.3 294,-764.3 294,-764.3 294,-776.3 294,-776.3 294,-782.3 288,-788.3 282,-788.3"/>
<text text-anchor="middle" x="265" y="-766.6" font-family="Helvetica,sans-Serif" font-size="14.00">mod.ts</text>
</g>
<!-- src/connection.ts -->
<g id="node6" class="node">
<title>src/connection.ts</title>
<path fill="#79cdcd" stroke="#79cdcd" d="M635,-573.3C635,-573.3 563,-573.3 563,-573.3 557,-573.3 551,-567.3 551,-561.3 551,-561.3 551,-549.3 551,-549.3 551,-543.3 557,-537.3 563,-537.3 563,-537.3 635,-537.3 635,-537.3 641,-537.3 647,-543.3 647,-549.3 647,-549.3 647,-561.3 647,-561.3 647,-567.3 641,-573.3 635,-573.3"/>
<text text-anchor="middle" x="599" y="-551.6" font-family="Helvetica,sans-Serif" font-size="14.00">connection.ts</text>
</g>
<!-- mod.ts&#45;&gt;src/connection.ts -->
<g id="edge7" class="edge">
<title>mod.ts&#45;&gt;src/connection.ts</title>
<path fill="none" stroke="#528b8b" stroke-width="2" d="M294.11,-756.39C313.01,-747.37 338.65,-735.76 362,-727.3 428.41,-703.24 458.2,-726.29 515,-684.3 550.21,-658.27 574.43,-612.47 587.25,-583.03"/>
<polygon fill="#528b8b" stroke="#528b8b" stroke-width="2" points="590.51,-584.29 591.16,-573.72 584.06,-581.58 590.51,-584.29"/>
</g>
<!-- src/errors.ts -->
<g id="node7" class="node">
<title>src/errors.ts</title>
<path fill="#79cdcd" stroke="#79cdcd" d="M1103,-681.3C1103,-681.3 1061,-681.3 1061,-681.3 1055,-681.3 1049,-675.3 1049,-669.3 1049,-669.3 1049,-657.3 1049,-657.3 1049,-651.3 1055,-645.3 1061,-645.3 1061,-645.3 1103,-645.3 1103,-645.3 1109,-645.3 1115,-651.3 1115,-657.3 1115,-657.3 1115,-669.3 1115,-669.3 1115,-675.3 1109,-681.3 1103,-681.3"/>
<text text-anchor="middle" x="1082" y="-659.6" font-family="Helvetica,sans-Serif" font-size="14.00">errors.ts</text>
</g>
<!-- mod.ts&#45;&gt;src/errors.ts -->
<g id="edge8" class="edge">
<title>mod.ts&#45;&gt;src/errors.ts</title>
<path fill="none" stroke="#528b8b" stroke-width="2" d="M276.9,-788.45C292.37,-812.24 323.2,-852.88 362,-869.3 616.99,-977.23 751.49,-1018.1 985,-869.3 1047.2,-829.66 1069.75,-738.07 1077.39,-691.53"/>
<polygon fill="#528b8b" stroke="#528b8b" stroke-width="2" points="1080.87,-691.94 1078.92,-681.52 1073.95,-690.88 1080.87,-691.94"/>
</g>
<!-- src/transport&#45;http&#45;client.ts -->
<g id="node9" class="node">
<title>src/transport&#45;http&#45;client.ts</title>
<path fill="#79cdcd" stroke="#79cdcd" d="M500,-675.3C500,-675.3 377,-675.3 377,-675.3 371,-675.3 365,-669.3 365,-663.3 365,-663.3 365,-651.3 365,-651.3 365,-645.3 371,-639.3 377,-639.3 377,-639.3 500,-639.3 500,-639.3 506,-639.3 512,-645.3 512,-651.3 512,-651.3 512,-663.3 512,-663.3 512,-669.3 506,-675.3 500,-675.3"/>
<text text-anchor="middle" x="438.5" y="-653.6" font-family="Helvetica,sans-Serif" font-size="14.00">transport&#45;http&#45;client.ts</text>
</g>
<!-- mod.ts&#45;&gt;src/transport&#45;http&#45;client.ts -->
<g id="edge9" class="edge">
<title>mod.ts&#45;&gt;src/transport&#45;http&#45;client.ts</title>
<path fill="none" stroke="#528b8b" stroke-width="2" d="M284.18,-752.04C302.58,-734.3 332.46,-707.45 362,-689.3 367.49,-685.93 373.4,-682.74 379.42,-679.79"/>
<polygon fill="#528b8b" stroke="#528b8b" stroke-width="2" points="381.33,-682.76 388.9,-675.35 378.36,-676.42 381.33,-682.76"/>
</g>
<!-- src/transport&#45;http&#45;server.ts -->
<g id="node10" class="node">
<title>src/transport&#45;http&#45;server.ts</title>
<path fill="#79cdcd" stroke="#79cdcd" d="M503,-447.3C503,-447.3 374,-447.3 374,-447.3 368,-447.3 362,-441.3 362,-435.3 362,-435.3 362,-423.3 362,-423.3 362,-417.3 368,-411.3 374,-411.3 374,-411.3 503,-411.3 503,-411.3 509,-411.3 515,-417.3 515,-423.3 515,-423.3 515,-435.3 515,-435.3 515,-441.3 509,-447.3 503,-447.3"/>
<text text-anchor="middle" x="438.5" y="-425.6" font-family="Helvetica,sans-Serif" font-size="14.00">transport&#45;http&#45;server.ts</text>
</g>
<!-- mod.ts&#45;&gt;src/transport&#45;http&#45;server.ts -->
<g id="edge10" class="edge">
<title>mod.ts&#45;&gt;src/transport&#45;http&#45;server.ts</title>
<path fill="none" stroke="#528b8b" stroke-width="2" d="M275.22,-751.97C303.67,-695.4 390.18,-523.39 423.87,-456.41"/>
<polygon fill="#528b8b" stroke="#528b8b" stroke-width="2" points="427.08,-457.82 428.44,-447.31 420.82,-454.67 427.08,-457.82"/>
</g>
<!-- src/transport&#45;local.ts -->
<g id="node11" class="node">
<title>src/transport&#45;local.ts</title>
<path fill="#79cdcd" stroke="#79cdcd" d="M484.5,-376.3C484.5,-376.3 392.5,-376.3 392.5,-376.3 386.5,-376.3 380.5,-370.3 380.5,-364.3 380.5,-364.3 380.5,-352.3 380.5,-352.3 380.5,-346.3 386.5,-340.3 392.5,-340.3 392.5,-340.3 484.5,-340.3 484.5,-340.3 490.5,-340.3 496.5,-346.3 496.5,-352.3 496.5,-352.3 496.5,-364.3 496.5,-364.3 496.5,-370.3 490.5,-376.3 484.5,-376.3"/>
<text text-anchor="middle" x="438.5" y="-354.6" font-family="Helvetica,sans-Serif" font-size="14.00">transport&#45;local.ts</text>
</g>
<!-- mod.ts&#45;&gt;src/transport&#45;local.ts -->
<g id="edge11" class="edge">
<title>mod.ts&#45;&gt;src/transport&#45;local.ts</title>
<path fill="none" stroke="#528b8b" stroke-width="2" d="M266.02,-752.12C266.98,-694.69 276.98,-514.33 362,-402.3 368.12,-394.23 376.18,-387.38 384.76,-381.66"/>
<polygon fill="#528b8b" stroke="#528b8b" stroke-width="2" points="386.77,-384.53 393.45,-376.31 383.1,-378.57 386.77,-384.53"/>
</g>
<!-- src/types&#45;envelope.ts -->
<g id="node12" class="node">
<title>src/types&#45;envelope.ts</title>
<path fill="#79cdcd" stroke="#79cdcd" d="M1131,-577.3C1131,-577.3 1033,-577.3 1033,-577.3 1027,-577.3 1021,-571.3 1021,-565.3 1021,-565.3 1021,-553.3 1021,-553.3 1021,-547.3 1027,-541.3 1033,-541.3 1033,-541.3 1131,-541.3 1131,-541.3 1137,-541.3 1143,-547.3 1143,-553.3 1143,-553.3 1143,-565.3 1143,-565.3 1143,-571.3 1137,-577.3 1131,-577.3"/>
<text text-anchor="middle" x="1082" y="-555.6" font-family="Helvetica,sans-Serif" font-size="14.00">types&#45;envelope.ts</text>
</g>
<!-- mod.ts&#45;&gt;src/types&#45;envelope.ts -->
<g id="edge12" class="edge">
<title>mod.ts&#45;&gt;src/types&#45;envelope.ts</title>
<path fill="none" stroke="#528b8b" stroke-width="2" d="M286.75,-788.47C305.11,-803.25 333.37,-822.97 362,-831.3 428.47,-850.63 931.79,-875.58 985,-831.3 1052.74,-774.92 984.88,-716.69 1021,-636.3 1029.42,-617.56 1043.32,-599.31 1055.62,-585.28"/>
<polygon fill="#528b8b" stroke="#528b8b" stroke-width="2" points="1058.51,-587.3 1062.62,-577.53 1053.32,-582.6 1058.51,-587.3"/>
</g>
<!-- src/types.ts -->
<g id="node13" class="node">
<title>src/types.ts</title>
<path fill="#79cdcd" stroke="#79cdcd" d="M853.5,-521.3C853.5,-521.3 814.5,-521.3 814.5,-521.3 808.5,-521.3 802.5,-515.3 802.5,-509.3 802.5,-509.3 802.5,-497.3 802.5,-497.3 802.5,-491.3 808.5,-485.3 814.5,-485.3 814.5,-485.3 853.5,-485.3 853.5,-485.3 859.5,-485.3 865.5,-491.3 865.5,-497.3 865.5,-497.3 865.5,-509.3 865.5,-509.3 865.5,-515.3 859.5,-521.3 853.5,-521.3"/>
<text text-anchor="middle" x="834" y="-499.6" font-family="Helvetica,sans-Serif" font-size="14.00">types.ts</text>
</g>
<!-- mod.ts&#45;&gt;src/types.ts -->
<g id="edge13" class="edge">
<title>mod.ts&#45;&gt;src/types.ts</title>
<path fill="none" stroke="#528b8b" stroke-width="2" d="M294.33,-768.14C341.68,-763.74 439.18,-751.3 515,-719.3 515.98,-718.89 715.56,-583.18 798,-527.11"/>
<polygon fill="#528b8b" stroke="#528b8b" stroke-width="2" points="800.23,-529.82 806.53,-521.3 796.29,-524.03 800.23,-529.82"/>
</g>
<!-- src/util.ts -->
<g id="node14" class="node">
<title>src/util.ts</title>
<path fill="#79cdcd" stroke="#79cdcd" d="M849,-650.3C849,-650.3 819,-650.3 819,-650.3 813,-650.3 807,-644.3 807,-638.3 807,-638.3 807,-626.3 807,-626.3 807,-620.3 813,-614.3 819,-614.3 819,-614.3 849,-614.3 849,-614.3 855,-614.3 861,-620.3 861,-626.3 861,-626.3 861,-638.3 861,-638.3 861,-644.3 855,-650.3 849,-650.3"/>
<text text-anchor="middle" x="834" y="-628.6" font-family="Helvetica,sans-Serif" font-size="14.00">util.ts</text>
</g>
<!-- mod.ts&#45;&gt;src/util.ts -->
<g id="edge14" class="edge">
<title>mod.ts&#45;&gt;src/util.ts</title>
<path fill="none" stroke="#528b8b" stroke-width="2" d="M294.15,-774.23C358.52,-782.16 520.67,-796.02 647,-755.3 710.11,-734.96 772.03,-686.78 806.1,-657.12"/>
<polygon fill="#528b8b" stroke="#528b8b" stroke-width="2" points="808.57,-659.61 813.74,-650.37 803.93,-654.36 808.57,-659.61"/>
</g>
<!-- src/watchable.ts -->
<g id="node15" class="node">
<title>src/watchable.ts</title>
<path fill="#79cdcd" stroke="#79cdcd" d="M1116,-522.3C1116,-522.3 1048,-522.3 1048,-522.3 1042,-522.3 1036,-516.3 1036,-510.3 1036,-510.3 1036,-498.3 1036,-498.3 1036,-492.3 1042,-486.3 1048,-486.3 1048,-486.3 1116,-486.3 1116,-486.3 1122,-486.3 1128,-492.3 1128,-498.3 1128,-498.3 1128,-510.3 1128,-510.3 1128,-516.3 1122,-522.3 1116,-522.3"/>
<text text-anchor="middle" x="1082" y="-500.6" font-family="Helvetica,sans-Serif" font-size="14.00">watchable.ts</text>
</g>
<!-- mod.ts&#45;&gt;src/watchable.ts -->
<g id="edge15" class="edge">
<title>mod.ts&#45;&gt;src/watchable.ts</title>
<path fill="none" stroke="#528b8b" stroke-width="2" d="M294.19,-779.67C313.13,-785.45 338.77,-792.32 362,-795.3 487.84,-811.42 523.05,-806.36 647,-779.3 801.08,-745.66 876.64,-785.88 985,-671.3 1028.85,-624.93 980.19,-581.36 1021,-532.3 1022.93,-529.98 1025.09,-527.84 1027.43,-525.87"/>
<polygon fill="#528b8b" stroke="#528b8b" stroke-width="2" points="1029.8,-528.47 1035.89,-519.8 1025.73,-522.78 1029.8,-528.47"/>
</g>
<!-- examples/example&#45;http&#45;client.ts -->
<g id="node3" class="node">
<title>examples/example&#45;http&#45;client.ts</title>
<path fill="#79cdcd" stroke="#79cdcd" d="M153,-228.3C153,-228.3 31,-228.3 31,-228.3 25,-228.3 19,-222.3 19,-216.3 19,-216.3 19,-204.3 19,-204.3 19,-198.3 25,-192.3 31,-192.3 31,-192.3 153,-192.3 153,-192.3 159,-192.3 165,-198.3 165,-204.3 165,-204.3 165,-216.3 165,-216.3 165,-222.3 159,-228.3 153,-228.3"/>
<text text-anchor="middle" x="92" y="-206.6" font-family="Helvetica,sans-Serif" font-size="14.00">example&#45;http&#45;client.ts</text>
</g>
<!-- examples/example&#45;http&#45;client.ts&#45;&gt;mod.ts -->
<g id="edge1" class="edge">
<title>examples/example&#45;http&#45;client.ts&#45;&gt;mod.ts</title>
<path fill="none" stroke="#528b8b" stroke-width="2" d="M98.59,-228.61C123.61,-310.54 225.34,-643.7 255.52,-742.53"/>
<polygon fill="#528b8b" stroke="#528b8b" stroke-width="2" points="252.18,-743.58 258.45,-752.13 258.88,-741.54 252.18,-743.58"/>
</g>
<!-- examples/example&#45;http&#45;server.ts -->
<g id="node4" class="node">
<title>examples/example&#45;http&#45;server.ts</title>
<path fill="#79cdcd" stroke="#79cdcd" d="M156,-120.3C156,-120.3 28,-120.3 28,-120.3 22,-120.3 16,-114.3 16,-108.3 16,-108.3 16,-96.3 16,-96.3 16,-90.3 22,-84.3 28,-84.3 28,-84.3 156,-84.3 156,-84.3 162,-84.3 168,-90.3 168,-96.3 168,-96.3 168,-108.3 168,-108.3 168,-114.3 162,-120.3 156,-120.3"/>
<text text-anchor="middle" x="92" y="-98.6" font-family="Helvetica,sans-Serif" font-size="14.00">example&#45;http&#45;server.ts</text>
</g>
<!-- examples/example&#45;http&#45;server.ts&#45;&gt;deps.ts -->
<g id="edge3" class="edge">
<title>examples/example&#45;http&#45;server.ts&#45;&gt;deps.ts</title>
<path fill="none" stroke="#528b8b" stroke-width="2" d="M109.95,-84.11C127.58,-66.48 156.92,-40.67 188,-28.3 291.5,12.9 326.1,-4.3 437.5,-4.3 437.5,-4.3 437.5,-4.3 600,-4.3 771.44,-4.3 816.86,5.2 985,-28.3 1004.22,-32.13 1024.85,-38.86 1042.04,-45.24"/>
<polygon fill="#528b8b" stroke="#528b8b" stroke-width="2" points="1041.14,-48.64 1051.73,-48.94 1043.64,-42.1 1041.14,-48.64"/>
</g>
<!-- examples/example&#45;http&#45;server.ts&#45;&gt;mod.ts -->
<g id="edge2" class="edge">
<title>examples/example&#45;http&#45;server.ts&#45;&gt;mod.ts</title>
<path fill="none" stroke="#528b8b" stroke-width="2" d="M167.04,-120.43C170.37,-123.01 173.4,-125.95 176,-129.3 188.57,-145.48 185.65,-292.95 188,-313.3 206.87,-476.7 244.09,-670.67 258.3,-742.1"/>
<polygon fill="#528b8b" stroke="#528b8b" stroke-width="2" points="254.91,-742.99 260.3,-752.11 261.77,-741.62 254.91,-742.99"/>
</g>
<!-- examples/example.ts -->
<g id="node5" class="node">
<title>examples/example.ts</title>
<path fill="#79cdcd" stroke="#79cdcd" d="M121.5,-174.3C121.5,-174.3 62.5,-174.3 62.5,-174.3 56.5,-174.3 50.5,-168.3 50.5,-162.3 50.5,-162.3 50.5,-150.3 50.5,-150.3 50.5,-144.3 56.5,-138.3 62.5,-138.3 62.5,-138.3 121.5,-138.3 121.5,-138.3 127.5,-138.3 133.5,-144.3 133.5,-150.3 133.5,-150.3 133.5,-162.3 133.5,-162.3 133.5,-168.3 127.5,-174.3 121.5,-174.3"/>
<text text-anchor="middle" x="92" y="-152.6" font-family="Helvetica,sans-Serif" font-size="14.00">example.ts</text>
</g>
<!-- examples/example.ts&#45;&gt;deps.ts -->
<g id="edge6" class="edge">
<title>examples/example.ts&#45;&gt;deps.ts</title>
<path fill="none" stroke="#528b8b" stroke-width="2" d="M133.84,-149.2C148.28,-145.17 163.91,-138.93 176,-129.3 184.11,-122.84 179.72,-115.54 188,-109.3 279.66,-40.15 322.68,-42.3 437.5,-42.3 437.5,-42.3 437.5,-42.3 600,-42.3 764.13,-42.3 959.51,-53.48 1041.61,-58.69"/>
<polygon fill="#528b8b" stroke="#528b8b" stroke-width="2" points="1041.53,-62.19 1051.73,-59.34 1041.98,-55.21 1041.53,-62.19"/>
</g>
<!-- examples/example.ts&#45;&gt;mod.ts -->
<g id="edge4" class="edge">
<title>examples/example.ts&#45;&gt;mod.ts</title>
<path fill="none" stroke="#528b8b" stroke-width="2" d="M133.9,-160.12C149.42,-163.71 165.78,-170.52 176,-183.3 194.11,-205.96 184.28,-284.53 188,-313.3 209.06,-476.43 244.97,-670.56 258.57,-742.06"/>
<polygon fill="#528b8b" stroke="#528b8b" stroke-width="2" points="255.17,-742.92 260.48,-752.09 262.04,-741.61 255.17,-742.92"/>
</g>
<!-- src/log.ts -->
<g id="node8" class="node">
<title>src/log.ts</title>
<path fill="#79cdcd" stroke="#79cdcd" d="M849,-393.3C849,-393.3 819,-393.3 819,-393.3 813,-393.3 807,-387.3 807,-381.3 807,-381.3 807,-369.3 807,-369.3 807,-363.3 813,-357.3 819,-357.3 819,-357.3 849,-357.3 849,-357.3 855,-357.3 861,-363.3 861,-369.3 861,-369.3 861,-381.3 861,-381.3 861,-387.3 855,-393.3 849,-393.3"/>
<text text-anchor="middle" x="834" y="-371.6" font-family="Helvetica,sans-Serif" font-size="14.00">log.ts</text>
</g>
<!-- examples/example.ts&#45;&gt;src/log.ts -->
<g id="edge5" class="edge">
<title>examples/example.ts&#45;&gt;src/log.ts</title>
<path fill="none" stroke="#528b8b" stroke-width="2" d="M133.72,-145.23C228.88,-121.65 471.11,-74.92 647,-156.3 733.58,-196.36 794.61,-298.79 819.94,-348.05"/>
<polygon fill="#528b8b" stroke="#528b8b" stroke-width="2" points="816.9,-349.8 824.53,-357.15 823.15,-346.65 816.9,-349.8"/>
</g>
<!-- src/connection.ts&#45;&gt;src/errors.ts -->
<g id="edge16" class="edge">
<title>src/connection.ts&#45;&gt;src/errors.ts</title>
<path fill="none" stroke="#528b8b" stroke-width="2" d="M647.32,-558.99C735.96,-566.32 923.6,-583.84 985,-605.3 1007.91,-613.31 1031.26,-627.26 1049.19,-639.48"/>
<polygon fill="#528b8b" stroke="#528b8b" stroke-width="2" points="1047.34,-642.45 1057.54,-645.3 1051.34,-636.71 1047.34,-642.45"/>
</g>
<!-- src/connection.ts&#45;&gt;src/log.ts -->
<g id="edge21" class="edge">
<title>src/connection.ts&#45;&gt;src/log.ts</title>
<path fill="none" stroke="#528b8b" stroke-width="2" d="M617.34,-537.13C633.6,-520.5 658.96,-495.61 683,-476.3 720.54,-446.15 766.93,-415.88 798.1,-396.45"/>
<polygon fill="#528b8b" stroke="#528b8b" stroke-width="2" points="800.2,-399.26 806.86,-391.02 796.52,-393.31 800.2,-399.26"/>
</g>
<!-- src/connection.ts&#45;&gt;src/types&#45;envelope.ts -->
<g id="edge18" class="edge">
<title>src/connection.ts&#45;&gt;src/types&#45;envelope.ts</title>
<path fill="none" stroke="#528b8b" stroke-width="2" d="M647.44,-555.69C732.48,-556.4 911.25,-557.89 1010.62,-558.71"/>
<polygon fill="#528b8b" stroke="#528b8b" stroke-width="2" points="1010.83,-562.22 1020.86,-558.8 1010.89,-555.22 1010.83,-562.22"/>
</g>
<!-- src/connection.ts&#45;&gt;src/types.ts -->
<g id="edge17" class="edge">
<title>src/connection.ts&#45;&gt;src/types.ts</title>
<path fill="none" stroke="#528b8b" stroke-width="2" d="M647.35,-543.66C659,-540.86 671.44,-537.93 683,-535.3 719.93,-526.91 762.13,-517.97 792.34,-511.67"/>
<polygon fill="#528b8b" stroke="#528b8b" stroke-width="2" points="793.42,-515.02 802.5,-509.56 791.99,-508.17 793.42,-515.02"/>
</g>
<!-- src/connection.ts&#45;&gt;src/util.ts -->
<g id="edge20" class="edge">
<title>src/connection.ts&#45;&gt;src/util.ts</title>
<path fill="none" stroke="#528b8b" stroke-width="2" d="M640.13,-573.42C653.61,-579.19 668.83,-585.35 683,-590.3 721.42,-603.72 766.5,-615.88 797.14,-623.62"/>
<polygon fill="#528b8b" stroke="#528b8b" stroke-width="2" points="796.4,-627.04 806.95,-626.07 798.09,-620.25 796.4,-627.04"/>
</g>
<!-- src/connection.ts&#45;&gt;src/watchable.ts -->
<g id="edge19" class="edge">
<title>src/connection.ts&#45;&gt;src/watchable.ts</title>
<path fill="none" stroke="#528b8b" stroke-width="2" d="M647.1,-552.77C742.55,-547.57 952.5,-535.7 985,-530.3 998.44,-528.07 1012.71,-524.74 1026.03,-521.21"/>
<polygon fill="#528b8b" stroke="#528b8b" stroke-width="2" points="1027.27,-524.5 1035.99,-518.48 1025.42,-517.74 1027.27,-524.5"/>
</g>
<!-- src/log.ts&#45;&gt;deps.ts -->
<g id="edge22" class="edge">
<title>src/log.ts&#45;&gt;deps.ts</title>
<path fill="none" stroke="#528b8b" stroke-width="2" d="M849.29,-357.06C890.81,-304.06 1011.6,-149.88 1060.29,-87.73"/>
<polygon fill="#528b8b" stroke="#528b8b" stroke-width="2" points="1063.26,-89.62 1066.67,-79.59 1057.75,-85.3 1063.26,-89.62"/>
</g>
<!-- src/transport&#45;http&#45;client.ts&#45;&gt;src/connection.ts -->
<g id="edge36" class="edge">
<title>src/transport&#45;http&#45;client.ts&#45;&gt;src/connection.ts</title>
<path fill="none" stroke="#528b8b" stroke-width="2" d="M467.47,-639.3C493.57,-622.51 532.66,-597.35 561.26,-578.94"/>
<polygon fill="#528b8b" stroke="#528b8b" stroke-width="2" points="563.26,-581.82 569.77,-573.46 559.47,-575.93 563.26,-581.82"/>
</g>
<!-- src/transport&#45;http&#45;client.ts&#45;&gt;src/errors.ts -->
<g id="edge31" class="edge">
<title>src/transport&#45;http&#45;client.ts&#45;&gt;src/errors.ts</title>
<path fill="none" stroke="#528b8b" stroke-width="2" d="M479.37,-675.38C500.23,-683.87 526.48,-693.04 551,-697.3 741.04,-730.36 794.9,-729.97 985,-697.3 1003.35,-694.15 1022.86,-687.83 1039.45,-681.49"/>
<polygon fill="#528b8b" stroke="#528b8b" stroke-width="2" points="1040.84,-684.71 1048.86,-677.78 1038.27,-678.19 1040.84,-684.71"/>
</g>
<!-- src/transport&#45;http&#45;client.ts&#45;&gt;src/log.ts -->
<g id="edge37" class="edge">
<title>src/transport&#45;http&#45;client.ts&#45;&gt;src/log.ts</title>
<path fill="none" stroke="#528b8b" stroke-width="2" d="M448.84,-639.06C465.55,-607.95 503.35,-544.22 551,-505.3 628,-442.4 740.41,-402.66 797.25,-385.35"/>
<polygon fill="#528b8b" stroke="#528b8b" stroke-width="2" points="798.29,-388.7 806.87,-382.48 796.29,-381.99 798.29,-388.7"/>
</g>
<!-- src/transport&#45;http&#45;client.ts&#45;&gt;src/types&#45;envelope.ts -->
<g id="edge33" class="edge">
<title>src/transport&#45;http&#45;client.ts&#45;&gt;src/types&#45;envelope.ts</title>
<path fill="none" stroke="#528b8b" stroke-width="2" d="M512.12,-672.24C525.02,-674.35 538.36,-676.18 551,-677.3 599.03,-681.57 941.45,-698.01 985,-677.3 990.26,-674.8 1033.92,-619.63 1060.52,-585.63"/>
<polygon fill="#528b8b" stroke="#528b8b" stroke-width="2" points="1063.48,-587.52 1066.88,-577.48 1057.96,-583.21 1063.48,-587.52"/>
</g>
<!-- src/transport&#45;http&#45;client.ts&#45;&gt;src/types.ts -->
<g id="edge32" class="edge">
<title>src/transport&#45;http&#45;client.ts&#45;&gt;src/types.ts</title>
<path fill="none" stroke="#528b8b" stroke-width="2" d="M448.96,-639.27C465.34,-610.12 501.99,-553.39 551,-528.3 592.01,-507.3 724.18,-503.65 792.01,-503.2"/>
<polygon fill="#528b8b" stroke="#528b8b" stroke-width="2" points="792.34,-506.7 802.32,-503.15 792.3,-499.7 792.34,-506.7"/>
</g>
<!-- src/transport&#45;http&#45;client.ts&#45;&gt;src/util.ts -->
<g id="edge35" class="edge">
<title>src/transport&#45;http&#45;client.ts&#45;&gt;src/util.ts</title>
<path fill="none" stroke="#528b8b" stroke-width="2" d="M512.13,-652.69C596.49,-647.33 732.29,-638.7 796.77,-634.6"/>
<polygon fill="#528b8b" stroke="#528b8b" stroke-width="2" points="797.09,-638.09 806.85,-633.96 796.65,-631.1 797.09,-638.09"/>
</g>
<!-- src/transport&#45;http&#45;client.ts&#45;&gt;src/watchable.ts -->
<g id="edge34" class="edge">
<title>src/transport&#45;http&#45;client.ts&#45;&gt;src/watchable.ts</title>
<path fill="none" stroke="#528b8b" stroke-width="2" d="M512.19,-662.38C652.08,-671.47 948.24,-687.09 985,-659.3 1031.8,-623.92 982.97,-576.98 1021,-532.3 1022.96,-530 1025.14,-527.88 1027.49,-525.93"/>
<polygon fill="#528b8b" stroke="#528b8b" stroke-width="2" points="1029.87,-528.53 1036,-519.89 1025.82,-522.82 1029.87,-528.53"/>
</g>
<!-- src/transport&#45;http&#45;server.ts&#45;&gt;deps.ts -->
<g id="edge44" class="edge">
<title>src/transport&#45;http&#45;server.ts&#45;&gt;deps.ts</title>
<path fill="none" stroke="#528b8b" stroke-width="2" d="M485.42,-411.11C496.7,-404.57 507.64,-396.07 515,-385.3 573.13,-300.24 487.87,-237.72 551,-156.3 611.14,-78.74 929.19,-64.5 1041.6,-61.89"/>
<polygon fill="#528b8b" stroke="#528b8b" stroke-width="2" points="1041.9,-65.38 1051.82,-61.67 1041.75,-58.38 1041.9,-65.38"/>
</g>
<!-- src/transport&#45;http&#45;server.ts&#45;&gt;src/connection.ts -->
<g id="edge42" class="edge">
<title>src/transport&#45;http&#45;server.ts&#45;&gt;src/connection.ts</title>
<path fill="none" stroke="#528b8b" stroke-width="2" d="M462.21,-447.35C489.87,-469.34 536.7,-506.57 567.49,-531.04"/>
<polygon fill="#528b8b" stroke="#528b8b" stroke-width="2" points="565.33,-533.8 575.33,-537.28 569.68,-528.32 565.33,-533.8"/>
</g>
<!-- src/transport&#45;http&#45;server.ts&#45;&gt;src/log.ts -->
<g id="edge43" class="edge">
<title>src/transport&#45;http&#45;server.ts&#45;&gt;src/log.ts</title>
<path fill="none" stroke="#528b8b" stroke-width="2" d="M486.57,-411.23C506.2,-404.46 529.42,-397.41 551,-393.3 637.97,-376.75 742.47,-374.59 796.55,-374.75"/>
<polygon fill="#528b8b" stroke="#528b8b" stroke-width="2" points="796.66,-378.26 806.68,-374.81 796.7,-371.26 796.66,-378.26"/>
</g>
<!-- src/transport&#45;http&#45;server.ts&#45;&gt;src/types&#45;envelope.ts -->
<g id="edge39" class="edge">
<title>src/transport&#45;http&#45;server.ts&#45;&gt;src/types&#45;envelope.ts</title>
<path fill="none" stroke="#528b8b" stroke-width="2" d="M515.17,-427.79C645.96,-426.49 907.74,-430 985,-476.3 1010.06,-491.32 998.92,-512.17 1021,-531.3 1022.73,-532.8 1024.55,-534.23 1026.44,-535.6"/>
<polygon fill="#528b8b" stroke="#528b8b" stroke-width="2" points="1024.81,-538.72 1035.1,-541.22 1028.62,-532.84 1024.81,-538.72"/>
</g>
<!-- src/transport&#45;http&#45;server.ts&#45;&gt;src/types.ts -->
<g id="edge38" class="edge">
<title>src/transport&#45;http&#45;server.ts&#45;&gt;src/types.ts</title>
<path fill="none" stroke="#528b8b" stroke-width="2" d="M515.37,-443.57C598.05,-459.12 727.22,-483.41 792.43,-495.67"/>
<polygon fill="#528b8b" stroke="#528b8b" stroke-width="2" points="791.85,-499.12 802.33,-497.53 793.15,-492.24 791.85,-499.12"/>
</g>
<!-- src/transport&#45;http&#45;server.ts&#45;&gt;src/util.ts -->
<g id="edge40" class="edge">
<title>src/transport&#45;http&#45;server.ts&#45;&gt;src/util.ts</title>
<path fill="none" stroke="#528b8b" stroke-width="2" d="M445.69,-447.53C458.82,-483.11 493.1,-561.47 551,-597.3 591.32,-622.25 730.07,-629.47 796.71,-631.51"/>
<polygon fill="#528b8b" stroke="#528b8b" stroke-width="2" points="796.67,-635.01 806.76,-631.8 796.87,-628.01 796.67,-635.01"/>
</g>
<!-- src/transport&#45;http&#45;server.ts&#45;&gt;src/watchable.ts -->
<g id="edge41" class="edge">
<title>src/transport&#45;http&#45;server.ts&#45;&gt;src/watchable.ts</title>
<path fill="none" stroke="#528b8b" stroke-width="2" d="M515.22,-416.96C527.16,-415.44 539.39,-414.13 551,-413.3 680.22,-404.08 952.8,-415.23 985,-427.3 1013.53,-438 1040.07,-460.68 1057.98,-478.66"/>
<polygon fill="#528b8b" stroke="#528b8b" stroke-width="2" points="1055.64,-481.28 1065.11,-486.04 1060.67,-476.42 1055.64,-481.28"/>
</g>
<!-- src/transport&#45;local.ts&#45;&gt;src/connection.ts -->
<g id="edge48" class="edge">
<title>src/transport&#45;local.ts&#45;&gt;src/connection.ts</title>
<path fill="none" stroke="#528b8b" stroke-width="2" d="M479.62,-376.34C491.98,-383.23 504.97,-391.95 515,-402.3 550.84,-439.26 575.74,-494.79 588.39,-527.8"/>
<polygon fill="#528b8b" stroke="#528b8b" stroke-width="2" points="585.14,-529.13 591.91,-537.28 591.7,-526.69 585.14,-529.13"/>
</g>
<!-- src/transport&#45;local.ts&#45;&gt;src/log.ts -->
<g id="edge49" class="edge">
<title>src/transport&#45;local.ts&#45;&gt;src/log.ts</title>
<path fill="none" stroke="#528b8b" stroke-width="2" d="M496.72,-360.77C578.87,-364.32 727.87,-370.76 796.55,-373.73"/>
<polygon fill="#528b8b" stroke="#528b8b" stroke-width="2" points="796.71,-377.24 806.86,-374.17 797.02,-370.24 796.71,-377.24"/>
</g>
<!-- src/transport&#45;local.ts&#45;&gt;src/types&#45;envelope.ts -->
<g id="edge46" class="edge">
<title>src/transport&#45;local.ts&#45;&gt;src/types&#45;envelope.ts</title>
<path fill="none" stroke="#528b8b" stroke-width="2" d="M496.65,-353.14C628.99,-341.77 948.01,-317.88 985,-348.3 1049.02,-400.95 969.9,-466.03 1021,-531.3 1021.93,-532.49 1022.92,-533.63 1023.97,-534.72"/>
<polygon fill="#528b8b" stroke="#528b8b" stroke-width="2" points="1021.7,-537.39 1031.55,-541.28 1026.28,-532.09 1021.7,-537.39"/>
</g>
<!-- src/transport&#45;local.ts&#45;&gt;src/types.ts -->
<g id="edge45" class="edge">
<title>src/transport&#45;local.ts&#45;&gt;src/types.ts</title>
<path fill="none" stroke="#528b8b" stroke-width="2" d="M488.54,-376.37C567.15,-405.34 719.89,-461.62 792.62,-488.42"/>
<polygon fill="#528b8b" stroke="#528b8b" stroke-width="2" points="791.74,-491.83 802.34,-492 794.17,-485.26 791.74,-491.83"/>
</g>
<!-- src/transport&#45;local.ts&#45;&gt;src/watchable.ts -->
<g id="edge47" class="edge">
<title>src/transport&#45;local.ts&#45;&gt;src/watchable.ts</title>
<path fill="none" stroke="#528b8b" stroke-width="2" d="M496.67,-342.94C513.99,-338.98 533.16,-335.28 551,-333.3 742.72,-312.07 818.54,-235.85 985,-333.3 1037.86,-364.25 1063.84,-436.16 1074.61,-476.17"/>
<polygon fill="#528b8b" stroke="#528b8b" stroke-width="2" points="1071.28,-477.26 1077.14,-486.08 1078.06,-475.52 1071.28,-477.26"/>
</g>
<!-- src/types.ts&#45;&gt;src/types&#45;envelope.ts -->
<g id="edge50" class="edge">
<title>src/types.ts&#45;&gt;src/types&#45;envelope.ts</title>
<path fill="none" stroke="#528b8b" stroke-width="2" d="M865.66,-510.28C901.73,-518.49 962.78,-532.39 1010.68,-543.29"/>
<polygon fill="#528b8b" stroke="#528b8b" stroke-width="2" points="1010.16,-546.76 1020.69,-545.57 1011.72,-539.94 1010.16,-546.76"/>
</g>
<!-- src/types.ts&#45;&gt;src/watchable.ts -->
<g id="edge51" class="edge">
<title>src/types.ts&#45;&gt;src/watchable.ts</title>
<path fill="none" stroke="#528b8b" stroke-width="2" d="M865.66,-503.42C905.58,-503.59 976.09,-503.87 1025.51,-504.07"/>
<polygon fill="#528b8b" stroke="#528b8b" stroke-width="2" points="1025.71,-507.58 1035.72,-504.12 1025.74,-500.58 1025.71,-507.58"/>
</g>
<!-- src/util.ts&#45;&gt;src/errors.ts -->
<g id="edge52" class="edge">
<title>src/util.ts&#45;&gt;src/errors.ts</title>
<path fill="none" stroke="#528b8b" stroke-width="2" d="M861.33,-635.62C903.77,-640.97 987.69,-651.54 1038.63,-657.96"/>
<polygon fill="#528b8b" stroke="#528b8b" stroke-width="2" points="1038.31,-661.45 1048.67,-659.23 1039.18,-654.5 1038.31,-661.45"/>
</g>
<!-- src/test/asserts.ts -->
<g id="node16" class="node">
<title>src/test/asserts.ts</title>
<path fill="#79cdcd" stroke="#79cdcd" d="M624,-222.3C624,-222.3 574,-222.3 574,-222.3 568,-222.3 562,-216.3 562,-210.3 562,-210.3 562,-198.3 562,-198.3 562,-192.3 568,-186.3 574,-186.3 574,-186.3 624,-186.3 624,-186.3 630,-186.3 636,-192.3 636,-198.3 636,-198.3 636,-210.3 636,-210.3 636,-216.3 630,-222.3 624,-222.3"/>
<text text-anchor="middle" x="599" y="-200.6" font-family="Helvetica,sans-Serif" font-size="14.00">asserts.ts</text>
</g>
<!-- https://deno.land/std@0.121.0/testing/asserts.ts -->
<g id="node22" class="node">
<title>https://deno.land/std@0.121.0/testing/asserts.ts</title>
<polygon fill="#cdc8b1" stroke="#8b8878" points="985,-144.3 687,-144.3 683,-140.3 683,-108.3 981,-108.3 985,-112.3 985,-144.3"/>
<polyline fill="none" stroke="#8b8878" points="981,-140.3 683,-140.3 "/>
<polyline fill="none" stroke="#8b8878" points="981,-140.3 981,-108.3 "/>
<polyline fill="none" stroke="#8b8878" points="981,-140.3 985,-144.3 "/>
<text text-anchor="middle" x="834" y="-122.6" font-family="Helvetica,sans-Serif" font-size="14.00">https://deno.land/std@0.121.0/testing/asserts.ts</text>
</g>
<!-- src/test/asserts.ts&#45;&gt;https://deno.land/std@0.121.0/testing/asserts.ts -->
<g id="edge55" class="edge">
<title>src/test/asserts.ts&#45;&gt;https://deno.land/std@0.121.0/testing/asserts.ts</title>
<path fill="none" stroke="#8b8878" stroke-width="1.5" stroke-dasharray="5,2" d="M621.03,-186.18C636.96,-173.47 659.98,-157.22 683,-148.3 683.44,-148.13 683.89,-147.96 684.34,-147.79"/>
<polygon fill="#8b8878" stroke="#8b8878" stroke-width="1.5" points="685.63,-151.04 693.89,-144.42 683.3,-144.44 685.63,-151.04"/>
</g>
<!-- src/test/connection.test.ts -->
<g id="node17" class="node">
<title>src/test/connection.test.ts</title>
<path fill="#79cdcd" stroke="#79cdcd" d="M314,-278.3C314,-278.3 216,-278.3 216,-278.3 210,-278.3 204,-272.3 204,-266.3 204,-266.3 204,-254.3 204,-254.3 204,-248.3 210,-242.3 216,-242.3 216,-242.3 314,-242.3 314,-242.3 320,-242.3 326,-248.3 326,-254.3 326,-254.3 326,-266.3 326,-266.3 326,-272.3 320,-278.3 314,-278.3"/>
<text text-anchor="middle" x="265" y="-256.6" font-family="Helvetica,sans-Serif" font-size="14.00">connection.test.ts</text>
</g>
<!-- src/test/connection.test.ts&#45;&gt;src/transport&#45;local.ts -->
<g id="edge25" class="edge">
<title>src/test/connection.test.ts&#45;&gt;src/transport&#45;local.ts</title>
<path fill="none" stroke="#528b8b" stroke-width="2" d="M297.86,-278.5C325.77,-294.46 366.5,-317.73 396.78,-335.03"/>
<polygon fill="#528b8b" stroke="#528b8b" stroke-width="2" points="395.4,-338.27 405.81,-340.19 398.87,-332.19 395.4,-338.27"/>
</g>
<!-- src/test/connection.test.ts&#45;&gt;src/types.ts -->
<g id="edge24" class="edge">
<title>src/test/connection.test.ts&#45;&gt;src/types.ts</title>
<path fill="none" stroke="#528b8b" stroke-width="2" d="M268.89,-278.42C276.3,-318.23 299.93,-413.16 362,-456.3 431.08,-504.32 690.96,-505.59 792.24,-504.18"/>
<polygon fill="#528b8b" stroke="#528b8b" stroke-width="2" points="792.44,-507.67 802.38,-504.02 792.33,-500.67 792.44,-507.67"/>
</g>
<!-- src/test/connection.test.ts&#45;&gt;src/util.ts -->
<g id="edge26" class="edge">
<title>src/test/connection.test.ts&#45;&gt;src/util.ts</title>
<path fill="none" stroke="#528b8b" stroke-width="2" d="M270.4,-278.51C280.76,-318.44 309.82,-415.25 362,-479.3 427.03,-559.13 453.99,-578.77 551,-613.3 634.86,-643.15 741.47,-640.24 796.48,-636"/>
<polygon fill="#528b8b" stroke="#528b8b" stroke-width="2" points="797.1,-639.47 806.78,-635.15 796.52,-632.49 797.1,-639.47"/>
</g>
<!-- src/test/connection.test.ts&#45;&gt;src/test/asserts.ts -->
<g id="edge23" class="edge">
<title>src/test/connection.test.ts&#45;&gt;src/test/asserts.ts</title>
<path fill="none" stroke="#528b8b" stroke-width="2" d="M324.81,-242.24C337.02,-238.92 349.86,-235.74 362,-233.3 380.11,-229.66 488.32,-216.93 551.74,-209.6"/>
<polygon fill="#528b8b" stroke="#528b8b" stroke-width="2" points="552.36,-213.05 561.9,-208.43 551.56,-206.1 552.36,-213.05"/>
</g>
<!-- src/test/event&#45;log.ts -->
<g id="node18" class="node">
<title>src/test/event&#45;log.ts</title>
<path fill="#79cdcd" stroke="#79cdcd" d="M469.5,-204.3C469.5,-204.3 407.5,-204.3 407.5,-204.3 401.5,-204.3 395.5,-198.3 395.5,-192.3 395.5,-192.3 395.5,-180.3 395.5,-180.3 395.5,-174.3 401.5,-168.3 407.5,-168.3 407.5,-168.3 469.5,-168.3 469.5,-168.3 475.5,-168.3 481.5,-174.3 481.5,-180.3 481.5,-180.3 481.5,-192.3 481.5,-192.3 481.5,-198.3 475.5,-204.3 469.5,-204.3"/>
<text text-anchor="middle" x="438.5" y="-182.6" font-family="Helvetica,sans-Serif" font-size="14.00">event&#45;log.ts</text>
</g>
<!-- src/test/connection.test.ts&#45;&gt;src/test/event&#45;log.ts -->
<g id="edge27" class="edge">
<title>src/test/connection.test.ts&#45;&gt;src/test/event&#45;log.ts</title>
<path fill="none" stroke="#528b8b" stroke-width="2" d="M307.06,-242.21C324.05,-234.76 343.95,-226.07 362,-218.3 369.71,-214.98 377.87,-211.49 385.86,-208.09"/>
<polygon fill="#528b8b" stroke="#528b8b" stroke-width="2" points="387.3,-211.28 395.14,-204.15 384.56,-204.84 387.3,-211.28"/>
</g>
<!-- src/test/event&#45;log.ts&#45;&gt;src/test/asserts.ts -->
<g id="edge28" class="edge">
<title>src/test/event&#45;log.ts&#45;&gt;src/test/asserts.ts</title>
<path fill="none" stroke="#528b8b" stroke-width="2" d="M481.56,-191.08C503.17,-193.53 529.56,-196.53 551.75,-199.05"/>
<polygon fill="#528b8b" stroke="#528b8b" stroke-width="2" points="551.61,-202.55 561.94,-200.2 552.4,-195.6 551.61,-202.55"/>
</g>
<!-- src/test/util.test.ts -->
<g id="node19" class="node">
<title>src/test/util.test.ts</title>
<path fill="#79cdcd" stroke="#79cdcd" d="M463.5,-278.3C463.5,-278.3 413.5,-278.3 413.5,-278.3 407.5,-278.3 401.5,-272.3 401.5,-266.3 401.5,-266.3 401.5,-254.3 401.5,-254.3 401.5,-248.3 407.5,-242.3 413.5,-242.3 413.5,-242.3 463.5,-242.3 463.5,-242.3 469.5,-242.3 475.5,-248.3 475.5,-254.3 475.5,-254.3 475.5,-266.3 475.5,-266.3 475.5,-272.3 469.5,-278.3 463.5,-278.3"/>
<text text-anchor="middle" x="438.5" y="-256.6" font-family="Helvetica,sans-Serif" font-size="14.00">util.test.ts</text>
</g>
<!-- src/test/util.test.ts&#45;&gt;src/util.ts -->
<g id="edge30" class="edge">
<title>src/test/util.test.ts&#45;&gt;src/util.ts</title>
<path fill="none" stroke="#528b8b" stroke-width="2" d="M475.68,-262.43C489.98,-265.17 505.29,-270.85 515,-282.3 601.85,-384.72 457.75,-485.67 551,-582.3 565.99,-597.84 625.72,-593.64 647,-597.3 699.24,-606.29 759.51,-617.85 796.94,-625.17"/>
<polygon fill="#528b8b" stroke="#528b8b" stroke-width="2" points="796.38,-628.63 806.86,-627.12 797.72,-621.76 796.38,-628.63"/>
</g>
<!-- src/test/util.test.ts&#45;&gt;src/test/asserts.ts -->
<g id="edge29" class="edge">
<title>src/test/util.test.ts&#45;&gt;src/test/asserts.ts</title>
<path fill="none" stroke="#528b8b" stroke-width="2" d="M475.86,-247.45C498.52,-239.45 527.86,-229.08 552.11,-220.52"/>
<polygon fill="#528b8b" stroke="#528b8b" stroke-width="2" points="553.54,-223.72 561.81,-217.09 551.21,-217.12 553.54,-223.72"/>
</g>
</g>
</svg>
