<?xml version="1.0" encoding="UTF-8" standalone="no"?>
<!DOCTYPE svg PUBLIC "-//W3C//DTD SVG 1.1//EN"
 "http://www.w3.org/Graphics/SVG/1.1/DTD/svg11.dtd">
<!-- Generated by graphviz version 2.44.1 (20200629.0846)
 -->
<!-- Title: G Pages: 1 -->
<svg width="572pt" height="193pt"
 viewBox="0.00 0.00 572.00 193.00" xmlns="http://www.w3.org/2000/svg" xmlns:xlink="http://www.w3.org/1999/xlink">
<g id="graph0" class="graph" transform="scale(1 1) rotate(0) translate(4 189)">
<title>G</title>
<polygon fill="white" stroke="transparent" points="-4,4 -4,-189 568,-189 568,4 -4,4"/>
<g id="clust1" class="cluster">
<title>cluster2285140244</title>
<path fill="none" stroke="#8b7d6b" stroke-width="2" d="M20,-8C20,-8 544,-8 544,-8 550,-8 556,-14 556,-20 556,-20 556,-165 556,-165 556,-171 550,-177 544,-177 544,-177 20,-177 20,-177 14,-177 8,-171 8,-165 8,-165 8,-20 8,-20 8,-14 14,-8 20,-8"/>
<text text-anchor="start" x="271.5" y="-162.8" font-family="Helvetica,sans-Serif" font-weight="bold" font-size="14.00">src</text>
</g>
<!-- src/connection.ts -->
<g id="node1" class="node">
<title>src/connection.ts</title>
<path fill="#79cdcd" stroke="#79cdcd" d="M279,-89C279,-89 207,-89 207,-89 201,-89 195,-83 195,-77 195,-77 195,-65 195,-65 195,-59 201,-53 207,-53 207,-53 279,-53 279,-53 285,-53 291,-59 291,-65 291,-65 291,-77 291,-77 291,-83 285,-89 279,-89"/>
<text text-anchor="middle" x="243" y="-67.3" font-family="Helvetica,sans-Serif" font-size="14.00">connection.ts</text>
</g>
<!-- src/types&#45;envelope.ts -->
<g id="node4" class="node">
<title>src/types&#45;envelope.ts</title>
<path fill="#79cdcd" stroke="#79cdcd" d="M536,-126C536,-126 438,-126 438,-126 432,-126 426,-120 426,-114 426,-114 426,-102 426,-102 426,-96 432,-90 438,-90 438,-90 536,-90 536,-90 542,-90 548,-96 548,-102 548,-102 548,-114 548,-114 548,-120 542,-126 536,-126"/>
<text text-anchor="middle" x="487" y="-104.3" font-family="Helvetica,sans-Serif" font-size="14.00">types&#45;envelope.ts</text>
</g>
<!-- src/connection.ts&#45;&gt;src/types&#45;envelope.ts -->
<g id="edge2" class="edge">
<title>src/connection.ts&#45;&gt;src/types&#45;envelope.ts</title>
<path fill="none" stroke="#528b8b" stroke-width="2" d="M291.31,-71.78C320.03,-72.86 357.33,-75.35 390,-81 399.66,-82.67 409.74,-84.92 419.59,-87.42"/>
<polygon fill="#528b8b" stroke="#528b8b" stroke-width="2" points="418.77,-90.82 429.33,-89.98 420.55,-84.05 418.77,-90.82"/>
</g>
<!-- src/types.ts -->
<g id="node5" class="node">
<title>src/types.ts</title>
<path fill="#79cdcd" stroke="#79cdcd" d="M378,-126C378,-126 339,-126 339,-126 333,-126 327,-120 327,-114 327,-114 327,-102 327,-102 327,-96 333,-90 339,-90 339,-90 378,-90 378,-90 384,-90 390,-96 390,-102 390,-102 390,-114 390,-114 390,-120 384,-126 378,-126"/>
<text text-anchor="middle" x="358.5" y="-104.3" font-family="Helvetica,sans-Serif" font-size="14.00">types.ts</text>
</g>
<!-- src/connection.ts&#45;&gt;src/types.ts -->
<g id="edge1" class="edge">
<title>src/connection.ts&#45;&gt;src/types.ts</title>
<path fill="none" stroke="#528b8b" stroke-width="2" d="M291.15,-86.37C299.82,-89.2 308.79,-92.12 317.23,-94.87"/>
<polygon fill="#528b8b" stroke="#528b8b" stroke-width="2" points="316.26,-98.24 326.85,-98.01 318.43,-91.58 316.26,-98.24"/>
</g>
<!-- src/util.ts -->
<g id="node6" class="node">
<title>src/util.ts</title>
<path fill="#79cdcd" stroke="#79cdcd" d="M373.5,-52C373.5,-52 343.5,-52 343.5,-52 337.5,-52 331.5,-46 331.5,-40 331.5,-40 331.5,-28 331.5,-28 331.5,-22 337.5,-16 343.5,-16 343.5,-16 373.5,-16 373.5,-16 379.5,-16 385.5,-22 385.5,-28 385.5,-28 385.5,-40 385.5,-40 385.5,-46 379.5,-52 373.5,-52"/>
<text text-anchor="middle" x="358.5" y="-30.3" font-family="Helvetica,sans-Serif" font-size="14.00">util.ts</text>
</g>
<!-- src/connection.ts&#45;&gt;src/util.ts -->
<g id="edge3" class="edge">
<title>src/connection.ts&#45;&gt;src/util.ts</title>
<path fill="none" stroke="#528b8b" stroke-width="2" d="M291.15,-55.63C301.36,-52.3 312.01,-48.83 321.7,-45.67"/>
<polygon fill="#528b8b" stroke="#528b8b" stroke-width="2" points="322.98,-48.93 331.4,-42.51 320.81,-42.28 322.98,-48.93"/>
</g>
<!-- src/example.ts -->
<g id="node2" class="node">
<title>src/example.ts</title>
<path fill="#79cdcd" stroke="#79cdcd" d="M117,-146C117,-146 58,-146 58,-146 52,-146 46,-140 46,-134 46,-134 46,-122 46,-122 46,-116 52,-110 58,-110 58,-110 117,-110 117,-110 123,-110 129,-116 129,-122 129,-122 129,-134 129,-134 129,-140 123,-146 117,-146"/>
<text text-anchor="middle" x="87.5" y="-124.3" font-family="Helvetica,sans-Serif" font-size="14.00">example.ts</text>
</g>
<!-- src/transportHttpClient.ts -->
<g id="node3" class="node">
<title>src/transportHttpClient.ts</title>
<path fill="#79cdcd" stroke="#79cdcd" d="M147,-92C147,-92 28,-92 28,-92 22,-92 16,-86 16,-80 16,-80 16,-68 16,-68 16,-62 22,-56 28,-56 28,-56 147,-56 147,-56 153,-56 159,-62 159,-68 159,-68 159,-80 159,-80 159,-86 153,-92 147,-92"/>
<text text-anchor="middle" x="87.5" y="-70.3" font-family="Helvetica,sans-Serif" font-size="14.00">transportHttpClient.ts</text>
</g>
<!-- src/transportHttpClient.ts&#45;&gt;src/connection.ts -->
<g id="edge6" class="edge">
<title>src/transportHttpClient.ts&#45;&gt;src/connection.ts</title>
<path fill="none" stroke="#528b8b" stroke-width="2" d="M159.41,-72.61C167.8,-72.45 176.29,-72.28 184.47,-72.12"/>
<polygon fill="#528b8b" stroke="#528b8b" stroke-width="2" points="184.7,-75.62 194.63,-71.93 184.57,-68.62 184.7,-75.62"/>
</g>
<!-- src/transportHttpClient.ts&#45;&gt;src/types&#45;envelope.ts -->
<g id="edge5" class="edge">
<title>src/transportHttpClient.ts&#45;&gt;src/types&#45;envelope.ts</title>
<path fill="none" stroke="#528b8b" stroke-width="2" d="M143.23,-92.01C159.77,-97.17 178.05,-102.59 195,-107 279.73,-129.06 303.27,-146.96 390,-135 400.4,-133.57 411.25,-131.3 421.77,-128.67"/>
<polygon fill="#528b8b" stroke="#528b8b" stroke-width="2" points="422.94,-131.98 431.72,-126.05 421.16,-125.21 422.94,-131.98"/>
</g>
<!-- src/transportHttpClient.ts&#45;&gt;src/types.ts -->
<g id="edge4" class="edge">
<title>src/transportHttpClient.ts&#45;&gt;src/types.ts</title>
<path fill="none" stroke="#528b8b" stroke-width="2" d="M159.24,-91.6C171.12,-94.08 183.37,-96.34 195,-98 236.16,-103.87 283.66,-106.29 316.63,-107.29"/>
<polygon fill="#528b8b" stroke="#528b8b" stroke-width="2" points="316.71,-110.8 326.8,-107.57 316.9,-103.8 316.71,-110.8"/>
</g>
<!-- src/types.ts&#45;&gt;src/types&#45;envelope.ts -->
<g id="edge7" class="edge">
<title>src/types.ts&#45;&gt;src/types&#45;envelope.ts</title>
<path fill="none" stroke="#528b8b" stroke-width="2" d="M390.12,-108C397.98,-108 406.77,-108 415.75,-108"/>
<polygon fill="#528b8b" stroke="#528b8b" stroke-width="2" points="415.93,-111.5 425.93,-108 415.93,-104.5 415.93,-111.5"/>
</g>
</g>
</svg>
