<?xml version="1.0" encoding="UTF-8" standalone="no"?>
<!DOCTYPE svg PUBLIC "-//W3C//DTD SVG 1.1//EN"
 "http://www.w3.org/Graphics/SVG/1.1/DTD/svg11.dtd">
<!-- Generated by graphviz version 2.44.1 (20200629.0846)
 -->
<!-- Title: G Pages: 1 -->
<svg width="944pt" height="440pt"
 viewBox="0.00 0.00 944.00 440.35" xmlns="http://www.w3.org/2000/svg" xmlns:xlink="http://www.w3.org/1999/xlink">
<g id="graph0" class="graph" transform="scale(1 1) rotate(0) translate(4 436.35)">
<title>G</title>
<polygon fill="white" stroke="transparent" points="-4,4 -4,-436.35 940,-436.35 940,4 -4,4"/>
<g id="clust1" class="cluster">
<title>cluster5260739295</title>
<path fill="bisque" stroke="#8b7d6b" stroke-width="2" d="M217,-26.35C217,-26.35 842,-26.35 842,-26.35 848,-26.35 854,-32.35 854,-38.35 854,-38.35 854,-322.35 854,-322.35 854,-328.35 848,-334.35 842,-334.35 842,-334.35 217,-334.35 217,-334.35 211,-334.35 205,-328.35 205,-322.35 205,-322.35 205,-38.35 205,-38.35 205,-32.35 211,-26.35 217,-26.35"/>
<text text-anchor="start" x="519" y="-320.15" font-family="Helvetica,sans-Serif" font-weight="bold" font-size="14.00">src</text>
</g>
<g id="clust2" class="cluster">
<title>cluster8468707883</title>
<path fill="bisque" stroke="#8b7d6b" stroke-width="2" d="M407,-228.35C407,-228.35 594,-228.35 594,-228.35 600,-228.35 606,-234.35 606,-240.35 606,-240.35 606,-291.35 606,-291.35 606,-297.35 600,-303.35 594,-303.35 594,-303.35 407,-303.35 407,-303.35 401,-303.35 395,-297.35 395,-291.35 395,-291.35 395,-240.35 395,-240.35 395,-234.35 401,-228.35 407,-228.35"/>
<text text-anchor="start" x="488" y="-289.15" font-family="Helvetica,sans-Serif" font-weight="bold" font-size="14.00">test</text>
</g>
<!-- deps.ts -->
<g id="node1" class="node">
<title>deps.ts</title>
<path fill="#79cdcd" stroke="#79cdcd" d="M803,-378.35C803,-378.35 767,-378.35 767,-378.35 761,-378.35 755,-372.35 755,-366.35 755,-366.35 755,-354.35 755,-354.35 755,-348.35 761,-342.35 767,-342.35 767,-342.35 803,-342.35 803,-342.35 809,-342.35 815,-348.35 815,-354.35 815,-354.35 815,-366.35 815,-366.35 815,-372.35 809,-378.35 803,-378.35"/>
<text text-anchor="middle" x="785" y="-356.65" font-family="Helvetica,sans-Serif" font-size="14.00">deps.ts</text>
</g>
<!-- example.ts -->
<g id="node2" class="node">
<title>example.ts</title>
<path fill="#79cdcd" stroke="#79cdcd" d="M71,-254.35C71,-254.35 12,-254.35 12,-254.35 6,-254.35 0,-248.35 0,-242.35 0,-242.35 0,-230.35 0,-230.35 0,-224.35 6,-218.35 12,-218.35 12,-218.35 71,-218.35 71,-218.35 77,-218.35 83,-224.35 83,-230.35 83,-230.35 83,-242.35 83,-242.35 83,-248.35 77,-254.35 71,-254.35"/>
<text text-anchor="middle" x="41.5" y="-232.65" font-family="Helvetica,sans-Serif" font-size="14.00">example.ts</text>
</g>
<!-- mod.ts -->
<g id="node3" class="node">
<title>mod.ts</title>
<path fill="#79cdcd" stroke="#79cdcd" d="M165,-132.35C165,-132.35 131,-132.35 131,-132.35 125,-132.35 119,-126.35 119,-120.35 119,-120.35 119,-108.35 119,-108.35 119,-102.35 125,-96.35 131,-96.35 131,-96.35 165,-96.35 165,-96.35 171,-96.35 177,-102.35 177,-108.35 177,-108.35 177,-120.35 177,-120.35 177,-126.35 171,-132.35 165,-132.35"/>
<text text-anchor="middle" x="148" y="-110.65" font-family="Helvetica,sans-Serif" font-size="14.00">mod.ts</text>
</g>
<!-- example.ts&#45;&gt;mod.ts -->
<g id="edge1" class="edge">
<title>example.ts&#45;&gt;mod.ts</title>
<path fill="none" stroke="#528b8b" stroke-width="2" d="M57.92,-218.34C75.59,-197.71 104.71,-163.72 124.81,-140.25"/>
<polygon fill="#528b8b" stroke="#528b8b" stroke-width="2" points="127.67,-142.29 131.52,-132.42 122.35,-137.74 127.67,-142.29"/>
</g>
<!-- src/log.ts -->
<g id="node5" class="node">
<title>src/log.ts</title>
<path fill="#79cdcd" stroke="#79cdcd" d="M576,-218.35C576,-218.35 546,-218.35 546,-218.35 540,-218.35 534,-212.35 534,-206.35 534,-206.35 534,-194.35 534,-194.35 534,-188.35 540,-182.35 546,-182.35 546,-182.35 576,-182.35 576,-182.35 582,-182.35 588,-188.35 588,-194.35 588,-194.35 588,-206.35 588,-206.35 588,-212.35 582,-218.35 576,-218.35"/>
<text text-anchor="middle" x="561" y="-196.65" font-family="Helvetica,sans-Serif" font-size="14.00">log.ts</text>
</g>
<!-- example.ts&#45;&gt;src/log.ts -->
<g id="edge2" class="edge">
<title>example.ts&#45;&gt;src/log.ts</title>
<path fill="none" stroke="#528b8b" stroke-width="2" d="M68.7,-254.36C142.2,-302.47 353.71,-423.97 488,-328.35 527.84,-299.97 494.09,-263.05 524,-224.35 524.69,-223.45 525.42,-222.58 526.19,-221.74"/>
<polygon fill="#528b8b" stroke="#528b8b" stroke-width="2" points="528.83,-224.07 533.85,-214.74 524.11,-218.9 528.83,-224.07"/>
</g>
<!-- src/connection.ts -->
<g id="node4" class="node">
<title>src/connection.ts</title>
<path fill="#79cdcd" stroke="#79cdcd" d="M476,-118.35C476,-118.35 404,-118.35 404,-118.35 398,-118.35 392,-112.35 392,-106.35 392,-106.35 392,-94.35 392,-94.35 392,-88.35 398,-82.35 404,-82.35 404,-82.35 476,-82.35 476,-82.35 482,-82.35 488,-88.35 488,-94.35 488,-94.35 488,-106.35 488,-106.35 488,-112.35 482,-118.35 476,-118.35"/>
<text text-anchor="middle" x="440" y="-96.65" font-family="Helvetica,sans-Serif" font-size="14.00">connection.ts</text>
</g>
<!-- mod.ts&#45;&gt;src/connection.ts -->
<g id="edge7" class="edge">
<title>mod.ts&#45;&gt;src/connection.ts</title>
<path fill="none" stroke="#528b8b" stroke-width="2" d="M177.19,-112.17C186.08,-111.53 195.95,-110.86 205,-110.35 265.32,-106.9 334.46,-104.09 381.85,-102.33"/>
<polygon fill="#528b8b" stroke="#528b8b" stroke-width="2" points="382.05,-105.83 391.92,-101.96 381.8,-98.83 382.05,-105.83"/>
</g>
<!-- src/transportHttpClient.ts -->
<g id="node6" class="node">
<title>src/transportHttpClient.ts</title>
<path fill="#79cdcd" stroke="#79cdcd" d="M344,-155.35C344,-155.35 225,-155.35 225,-155.35 219,-155.35 213,-149.35 213,-143.35 213,-143.35 213,-131.35 213,-131.35 213,-125.35 219,-119.35 225,-119.35 225,-119.35 344,-119.35 344,-119.35 350,-119.35 356,-125.35 356,-131.35 356,-131.35 356,-143.35 356,-143.35 356,-149.35 350,-155.35 344,-155.35"/>
<text text-anchor="middle" x="284.5" y="-133.65" font-family="Helvetica,sans-Serif" font-size="14.00">transportHttpClient.ts</text>
</g>
<!-- mod.ts&#45;&gt;src/transportHttpClient.ts -->
<g id="edge6" class="edge">
<title>mod.ts&#45;&gt;src/transportHttpClient.ts</title>
<path fill="none" stroke="#528b8b" stroke-width="2" d="M177.2,-119.17C184.95,-120.49 193.75,-122 202.91,-123.56"/>
<polygon fill="#528b8b" stroke="#528b8b" stroke-width="2" points="202.49,-127.04 212.94,-125.28 203.67,-120.14 202.49,-127.04"/>
</g>
<!-- src/types&#45;envelope.ts -->
<g id="node7" class="node">
<title>src/types&#45;envelope.ts</title>
<path fill="#79cdcd" stroke="#79cdcd" d="M834,-88.35C834,-88.35 736,-88.35 736,-88.35 730,-88.35 724,-82.35 724,-76.35 724,-76.35 724,-64.35 724,-64.35 724,-58.35 730,-52.35 736,-52.35 736,-52.35 834,-52.35 834,-52.35 840,-52.35 846,-58.35 846,-64.35 846,-64.35 846,-76.35 846,-76.35 846,-82.35 840,-88.35 834,-88.35"/>
<text text-anchor="middle" x="785" y="-66.65" font-family="Helvetica,sans-Serif" font-size="14.00">types&#45;envelope.ts</text>
</g>
<!-- mod.ts&#45;&gt;src/types&#45;envelope.ts -->
<g id="edge3" class="edge">
<title>mod.ts&#45;&gt;src/types&#45;envelope.ts</title>
<path fill="none" stroke="#528b8b" stroke-width="2" d="M159.56,-96.22C169.3,-81.36 185.23,-61.21 205,-51.35 364.81,28.38 428.77,-3.29 606,-25.35 643.55,-30.02 684.56,-40.03 717.73,-49.43"/>
<polygon fill="#528b8b" stroke="#528b8b" stroke-width="2" points="717.19,-52.92 727.77,-52.32 719.13,-46.19 717.19,-52.92"/>
</g>
<!-- src/types.ts -->
<g id="node8" class="node">
<title>src/types.ts</title>
<path fill="#79cdcd" stroke="#79cdcd" d="M580.5,-70.35C580.5,-70.35 541.5,-70.35 541.5,-70.35 535.5,-70.35 529.5,-64.35 529.5,-58.35 529.5,-58.35 529.5,-46.35 529.5,-46.35 529.5,-40.35 535.5,-34.35 541.5,-34.35 541.5,-34.35 580.5,-34.35 580.5,-34.35 586.5,-34.35 592.5,-40.35 592.5,-46.35 592.5,-46.35 592.5,-58.35 592.5,-58.35 592.5,-64.35 586.5,-70.35 580.5,-70.35"/>
<text text-anchor="middle" x="561" y="-48.65" font-family="Helvetica,sans-Serif" font-size="14.00">types.ts</text>
</g>
<!-- mod.ts&#45;&gt;src/types.ts -->
<g id="edge4" class="edge">
<title>mod.ts&#45;&gt;src/types.ts</title>
<path fill="none" stroke="#528b8b" stroke-width="2" d="M177.16,-106.14C186.05,-103.59 195.92,-100.81 205,-98.35 287.82,-75.89 306.87,-61.1 392,-50.35 434.33,-45 445.34,-49.75 488,-50.35 498.02,-50.48 508.83,-50.73 518.94,-51.01"/>
<polygon fill="#528b8b" stroke="#528b8b" stroke-width="2" points="519.08,-54.51 529.17,-51.3 519.28,-47.52 519.08,-54.51"/>
</g>
<!-- src/util.ts -->
<g id="node9" class="node">
<title>src/util.ts</title>
<path fill="#79cdcd" stroke="#79cdcd" d="M576,-164.35C576,-164.35 546,-164.35 546,-164.35 540,-164.35 534,-158.35 534,-152.35 534,-152.35 534,-140.35 534,-140.35 534,-134.35 540,-128.35 546,-128.35 546,-128.35 576,-128.35 576,-128.35 582,-128.35 588,-134.35 588,-140.35 588,-140.35 588,-152.35 588,-152.35 588,-158.35 582,-164.35 576,-164.35"/>
<text text-anchor="middle" x="561" y="-142.65" font-family="Helvetica,sans-Serif" font-size="14.00">util.ts</text>
</g>
<!-- mod.ts&#45;&gt;src/util.ts -->
<g id="edge5" class="edge">
<title>mod.ts&#45;&gt;src/util.ts</title>
<path fill="none" stroke="#528b8b" stroke-width="2" d="M163.63,-132.43C198.12,-173.45 289.43,-272.62 392,-307.35 432.41,-321.03 454.14,-333.31 488,-307.35 536.94,-269.82 489.44,-224.42 524,-173.35 524.85,-172.09 525.77,-170.87 526.76,-169.69"/>
<polygon fill="#528b8b" stroke="#528b8b" stroke-width="2" points="529.4,-172 533.99,-162.45 524.45,-167.06 529.4,-172"/>
</g>
<!-- src/connection.ts&#45;&gt;src/log.ts -->
<g id="edge11" class="edge">
<title>src/connection.ts&#45;&gt;src/log.ts</title>
<path fill="none" stroke="#528b8b" stroke-width="2" d="M460.75,-118.49C477.33,-133.54 501.81,-155.31 524,-173.35 525.14,-174.27 526.3,-175.2 527.48,-176.14"/>
<polygon fill="#528b8b" stroke="#528b8b" stroke-width="2" points="525.36,-178.92 535.4,-182.3 529.66,-173.4 525.36,-178.92"/>
</g>
<!-- src/connection.ts&#45;&gt;src/types&#45;envelope.ts -->
<g id="edge9" class="edge">
<title>src/connection.ts&#45;&gt;src/types&#45;envelope.ts</title>
<path fill="none" stroke="#528b8b" stroke-width="2" d="M488.33,-96.21C546.72,-91.1 646.48,-82.37 713.8,-76.49"/>
<polygon fill="#528b8b" stroke="#528b8b" stroke-width="2" points="714.24,-79.96 723.9,-75.6 713.63,-72.99 714.24,-79.96"/>
</g>
<!-- src/connection.ts&#45;&gt;src/types.ts -->
<g id="edge8" class="edge">
<title>src/connection.ts&#45;&gt;src/types.ts</title>
<path fill="none" stroke="#528b8b" stroke-width="2" d="M485.65,-82.34C496.87,-77.81 508.85,-72.98 519.83,-68.55"/>
<polygon fill="#528b8b" stroke="#528b8b" stroke-width="2" points="521.23,-71.76 529.19,-64.77 518.61,-65.27 521.23,-71.76"/>
</g>
<!-- src/connection.ts&#45;&gt;src/util.ts -->
<g id="edge10" class="edge">
<title>src/connection.ts&#45;&gt;src/util.ts</title>
<path fill="none" stroke="#528b8b" stroke-width="2" d="M487.69,-118.39C499.78,-123.07 512.6,-128.02 524.05,-132.45"/>
<polygon fill="#528b8b" stroke="#528b8b" stroke-width="2" points="523.1,-135.83 533.69,-136.18 525.63,-129.31 523.1,-135.83"/>
</g>
<!-- src/log.ts&#45;&gt;deps.ts -->
<g id="edge12" class="edge">
<title>src/log.ts&#45;&gt;deps.ts</title>
<path fill="none" stroke="#528b8b" stroke-width="2" d="M588.4,-210.2C594.97,-213.76 601.43,-218.42 606,-224.35 637.83,-265.68 595.39,-303.25 634,-338.35 663.61,-365.26 710.96,-367.97 744.53,-365.72"/>
<polygon fill="#528b8b" stroke="#528b8b" stroke-width="2" points="745.24,-369.18 754.91,-364.85 744.65,-362.2 745.24,-369.18"/>
</g>
<!-- src/transportHttpClient.ts&#45;&gt;src/connection.ts -->
<g id="edge17" class="edge">
<title>src/transportHttpClient.ts&#45;&gt;src/connection.ts</title>
<path fill="none" stroke="#528b8b" stroke-width="2" d="M356.41,-120.25C364.9,-118.21 373.48,-116.14 381.74,-114.15"/>
<polygon fill="#528b8b" stroke="#528b8b" stroke-width="2" points="382.73,-117.51 391.63,-111.76 381.09,-110.7 382.73,-117.51"/>
</g>
<!-- src/transportHttpClient.ts&#45;&gt;src/log.ts -->
<g id="edge18" class="edge">
<title>src/transportHttpClient.ts&#45;&gt;src/log.ts</title>
<path fill="none" stroke="#528b8b" stroke-width="2" d="M356.19,-153.57C409.9,-165.9 481.56,-182.34 524.03,-192.09"/>
<polygon fill="#528b8b" stroke="#528b8b" stroke-width="2" points="523.39,-195.53 533.92,-194.36 524.95,-188.71 523.39,-195.53"/>
</g>
<!-- src/transportHttpClient.ts&#45;&gt;src/types&#45;envelope.ts -->
<g id="edge16" class="edge">
<title>src/transportHttpClient.ts&#45;&gt;src/types&#45;envelope.ts</title>
<path fill="none" stroke="#528b8b" stroke-width="2" d="M356.05,-136.79C395.09,-135.75 444.4,-133.22 488,-127.35 504.24,-125.16 507.94,-122.64 524,-119.35 588.25,-106.16 661.72,-92.43 714.13,-82.88"/>
<polygon fill="#528b8b" stroke="#528b8b" stroke-width="2" points="714.78,-86.32 724,-81.08 713.53,-79.43 714.78,-86.32"/>
</g>
<!-- src/transportHttpClient.ts&#45;&gt;src/types.ts -->
<g id="edge15" class="edge">
<title>src/transportHttpClient.ts&#45;&gt;src/types.ts</title>
<path fill="none" stroke="#528b8b" stroke-width="2" d="M309.01,-119.25C329.69,-104.34 361.21,-83.98 392,-73.35 433.79,-58.9 484.48,-54.18 519.18,-52.75"/>
<polygon fill="#528b8b" stroke="#528b8b" stroke-width="2" points="519.53,-56.24 529.41,-52.4 519.29,-49.24 519.53,-56.24"/>
</g>
<!-- src/types.ts&#45;&gt;src/types&#45;envelope.ts -->
<g id="edge19" class="edge">
<title>src/types.ts&#45;&gt;src/types&#45;envelope.ts</title>
<path fill="none" stroke="#528b8b" stroke-width="2" d="M592.87,-54.85C623.95,-57.37 672.98,-61.34 713.6,-64.64"/>
<polygon fill="#528b8b" stroke="#528b8b" stroke-width="2" points="713.48,-68.14 723.73,-65.46 714.05,-61.16 713.48,-68.14"/>
</g>
<!-- src/test/asserts.ts -->
<g id="node10" class="node">
<title>src/test/asserts.ts</title>
<path fill="#79cdcd" stroke="#79cdcd" d="M586,-272.35C586,-272.35 536,-272.35 536,-272.35 530,-272.35 524,-266.35 524,-260.35 524,-260.35 524,-248.35 524,-248.35 524,-242.35 530,-236.35 536,-236.35 536,-236.35 586,-236.35 586,-236.35 592,-236.35 598,-242.35 598,-248.35 598,-248.35 598,-260.35 598,-260.35 598,-266.35 592,-272.35 586,-272.35"/>
<text text-anchor="middle" x="561" y="-250.65" font-family="Helvetica,sans-Serif" font-size="14.00">asserts.ts</text>
</g>
<!-- https://deno.land/std@0.121.0/testing/asserts.ts -->
<g id="node12" class="node">
<title>https://deno.land/std@0.121.0/testing/asserts.ts</title>
<polygon fill="#cdc8b1" stroke="#8b8878" points="936,-432.35 638,-432.35 634,-428.35 634,-396.35 932,-396.35 936,-400.35 936,-432.35"/>
<polyline fill="none" stroke="#8b8878" points="932,-428.35 634,-428.35 "/>
<polyline fill="none" stroke="#8b8878" points="932,-428.35 932,-396.35 "/>
<polyline fill="none" stroke="#8b8878" points="932,-428.35 936,-432.35 "/>
<text text-anchor="middle" x="785" y="-410.65" font-family="Helvetica,sans-Serif" font-size="14.00">https://deno.land/std@0.121.0/testing/asserts.ts</text>
</g>
<!-- src/test/asserts.ts&#45;&gt;https://deno.land/std@0.121.0/testing/asserts.ts -->
<g id="edge20" class="edge">
<title>src/test/asserts.ts&#45;&gt;https://deno.land/std@0.121.0/testing/asserts.ts</title>
<path fill="none" stroke="#8b8878" stroke-width="1.5" stroke-dasharray="5,2" d="M566.46,-272.79C574.57,-302.09 594.65,-358.87 634,-387.35 635.87,-388.7 637.79,-389.99 639.75,-391.23"/>
<polygon fill="#8b8878" stroke="#8b8878" stroke-width="1.5" points="638.18,-394.36 648.6,-396.28 641.65,-388.28 638.18,-394.36"/>
</g>
<!-- src/test/util.test.ts -->
<g id="node11" class="node">
<title>src/test/util.test.ts</title>
<path fill="#79cdcd" stroke="#79cdcd" d="M465,-272.35C465,-272.35 415,-272.35 415,-272.35 409,-272.35 403,-266.35 403,-260.35 403,-260.35 403,-248.35 403,-248.35 403,-242.35 409,-236.35 415,-236.35 415,-236.35 465,-236.35 465,-236.35 471,-236.35 477,-242.35 477,-248.35 477,-248.35 477,-260.35 477,-260.35 477,-266.35 471,-272.35 465,-272.35"/>
<text text-anchor="middle" x="440" y="-250.65" font-family="Helvetica,sans-Serif" font-size="14.00">util.test.ts</text>
</g>
<!-- src/test/util.test.ts&#45;&gt;src/util.ts -->
<g id="edge14" class="edge">
<title>src/test/util.test.ts&#45;&gt;src/util.ts</title>
<path fill="none" stroke="#528b8b" stroke-width="2" d="M477.28,-240.09C481.11,-237.81 484.78,-235.23 488,-232.35 510.88,-211.85 503.34,-196.08 524,-173.35 524.74,-172.54 525.5,-171.73 526.28,-170.94"/>
<polygon fill="#528b8b" stroke="#528b8b" stroke-width="2" points="528.76,-173.42 533.8,-164.11 524.05,-168.24 528.76,-173.42"/>
</g>
<!-- src/test/util.test.ts&#45;&gt;src/test/asserts.ts -->
<g id="edge13" class="edge">
<title>src/test/util.test.ts&#45;&gt;src/test/asserts.ts</title>
<path fill="none" stroke="#528b8b" stroke-width="2" d="M477.03,-254.35C488.46,-254.35 501.26,-254.35 513.33,-254.35"/>
<polygon fill="#528b8b" stroke="#528b8b" stroke-width="2" points="513.68,-257.85 523.68,-254.35 513.68,-250.85 513.68,-257.85"/>
</g>
</g>
</svg>
